<?xml version="1.0" standalone="no"?>
<svg style="background: #fff" xmlns="http://www.w3.org/2000/svg" xmlns:xlink="http://www.w3.org/1999/xlink" version="1.1" width="614px" height="368px" viewBox="-0.5 -0.5 614 368"><defs><style>* {margin: 0px; padding: 0px;}</style></defs><g><path d="M 224 39 L 224 79.63" fill="none" stroke="#000000" stroke-miterlimit="10" pointer-events="none"/><path d="M 224 84.88 L 220.5 77.88 L 224 79.63 L 227.5 77.88 Z" fill="#000000" stroke="#000000" stroke-miterlimit="10" pointer-events="none"/><rect x="174" y="0" width="100" height="39" rx="2.73" ry="2.73" fill="#ffffcc" stroke="#000000" pointer-events="none"/><g fill="#000000" font-family="Helvetica" text-anchor="middle" font-size="12px"><text x="223.5" y="16">Relay to all:</text><text x="223.5" y="30">m["fileopened"]</text></g><path d="M 224 121 L 224 140.83 L 223.17 140.83 L 223.17 138.13" fill="none" stroke="#000000" stroke-miterlimit="10" pointer-events="none"/><path d="M 223.17 143.38 L 219.67 136.38 L 223.17 138.13 L 226.67 136.38 Z" fill="#000000" stroke="#000000" stroke-miterlimit="10" pointer-events="none"/><rect x="174" y="86" width="100" height="35" rx="2.45" ry="2.45" fill="#ccffff" stroke="#000000" pointer-events="none"/><g fill="#000000" font-family="Helvetica" text-anchor="middle" font-size="12px"><text x="223.5" y="107">read config.yaml</text></g><path d="M 223 204.5 L 223 249.63" fill="none" stroke="#000000" stroke-miterlimit="10" pointer-events="none"/><path d="M 223 254.88 L 219.5 247.88 L 223 249.63 L 226.5 247.88 Z" fill="#000000" stroke="#000000" stroke-miterlimit="10" pointer-events="none"/><path d="M 273.17 174.17 L 322.33 174.17 L 457.63 174.17" fill="none" stroke="#000000" stroke-miterlimit="10" pointer-events="none"/><path d="M 462.88 174.17 L 455.88 177.67 L 457.63 174.17 L 455.88 170.67 Z" fill="#000000" stroke="#000000" stroke-miterlimit="10" pointer-events="none"/><path d="M 223 144.5 L 273 174.5 L 223 204.5 L 173 174.5 Z" fill="#ffffff" stroke="#000000" stroke-miterlimit="10" pointer-events="none"/><g fill="#000000" font-family="Helvetica" text-anchor="middle" font-size="12px"><text x="222.5" y="178">fileopened ? </text></g><path d="M 272 276.67 L 292.33 276.67 L 280.67 276.67 L 294.63 276.67" fill="none" stroke="#000000" stroke-miterlimit="10" pointer-events="none"/><path d="M 299.88 276.67 L 292.88 280.17 L 294.63 276.67 L 292.88 273.17 Z" fill="#000000" stroke="#000000" stroke-miterlimit="10" pointer-events="none"/><rect x="174" y="256" width="98" height="42" rx="2.94" ry="2.94" fill="#ff66b3" stroke="#000000" pointer-events="none"/><g fill="#000000" font-family="Helvetica" text-anchor="middle" font-size="12px"><text x="222.5" y="273.5">Query: </text><text x="222.5" y="287.5">open new file ?</text></g><path d="M 401 276.67 L 442.33 276.67 L 456.8 276.67" fill="none" stroke="#000000" stroke-miterlimit="10" pointer-events="none"/><path d="M 462.05 276.67 L 455.05 280.17 L 456.8 276.67 L 455.05 273.17 Z" fill="#000000" stroke="#000000" stroke-miterlimit="10" pointer-events="none"/><path d="M 350.67 307 L 350.67 326.67 L 350.67 321.67 L 350.9 335.63" fill="none" stroke="#000000" stroke-miterlimit="10" pointer-events="none"/><path d="M 350.98 340.88 L 347.37 333.94 L 350.9 335.63 L 354.37 333.83 Z" fill="#000000" stroke="#000000" stroke-miterlimit="10" pointer-events="none"/><path d="M 351 247 L 401 277 L 351 307 L 301 277 Z" fill="#ffffff" stroke="#000000" stroke-miterlimit="10" pointer-events="none"/><g fill="#000000" font-family="Helvetica" text-anchor="middle" font-size="12px"><text x="350.5" y="280.5">open new file ?</text></g><rect x="513" y="195.5" width="100" height="60" rx="3.6" ry="3.6" fill="#66ff66" stroke="#000000" pointer-events="none"/><path d="M 527 195.5 L 527 255.5 M 599 195.5 L 599 255.5" fill="none" stroke="#000000" stroke-miterlimit="10" pointer-events="none"/><g fill="#000000" font-family="Helvetica" text-anchor="middle" font-size="12px"><text x="562.5" y="229">FileOpen()</text></g><path d="M 513 174 L 488 174 L 488 277 L 513 277" fill="none" stroke="#000000" stroke-miterlimit="10" transform="rotate(180,488,225.5)" pointer-events="none"/><path d="M 463 225.5 L 488 225.5" fill="none" stroke="#000000" stroke-miterlimit="10" transform="rotate(180,488,225.5)" pointer-events="none"/><path d="M 362 303.5 L 398 303.5 L 398 321.5 L 362 321.5 L 362 303.5 Z" fill="#ffffff" stroke="none" pointer-events="none"/><path d="M 363.5 305 L 363.5 320 L 363.5 320 L 396.5 320 L 396.5 305 L 363.5 305" fill="#ffffff" stroke="none" pointer-events="none"/><path d="M 362 303.5 L 398 303.5 L 398 321.5 L 362 321.5 L 362 303.5 Z" fill="none" stroke="#000000" stroke-miterlimit="10" pointer-events="none"/><g fill="#000000" font-family="Helvetica" text-anchor="middle" font-size="12px"><text x="379.5" y="316">no</text></g><path d="M 283 153.5 L 319 153.5 L 319 171.5 L 283 171.5 L 283 153.5 Z" fill="#ffffff" stroke="none" pointer-events="none"/><path d="M 284.5 155 L 284.5 170 L 284.5 170 L 317.5 170 L 317.5 155 L 284.5 155" fill="#ffffff" stroke="none" pointer-events="none"/><path d="M 283 153.5 L 319 153.5 L 319 171.5 L 283 171.5 L 283 153.5 Z" fill="none" stroke="#000000" stroke-miterlimit="10" pointer-events="none"/><g fill="#000000" font-family="Helvetica" text-anchor="middle" font-size="12px"><text x="300.5" y="166">no</text></g><path d="M 383 238 L 419 238 L 419 256 L 383 256 L 383 238 Z" fill="#ffffff" stroke="none" pointer-events="none"/><path d="M 384.5 239.5 L 384.5 254.5 L 384.5 254.5 L 417.5 254.5 L 417.5 239.5 L 384.5 239.5" fill="#ffffff" stroke="none" pointer-events="none"/><path d="M 383 238 L 419 238 L 419 256 L 383 256 L 383 238 Z" fill="none" stroke="#000000" stroke-miterlimit="10" pointer-events="none"/><g fill="#000000" font-family="Helvetica" text-anchor="middle" font-size="12px"><text x="400.5" y="250.5">yes</text></g><ellipse cx="351" cy="352" rx="11" ry="11" fill="#000000" stroke="#ff0000" pointer-events="none"/><ellipse cx="351" cy="352" rx="15" ry="15" fill="none" stroke="#ff0000" pointer-events="none"/><path d="M 383 341 L 471 341 L 471 359 L 383 359 L 383 341 Z" fill="#ffffff" stroke="none" pointer-events="none"/><path d="M 386.67 342.5 L 386.67 357.5 L 386.67 357.5 L 467.33 357.5 L 467.33 342.5 L 386.67 342.5" fill="#ffffff" stroke="none" pointer-events="none"/><path d="M 383 341 L 471 341 L 471 359 L 383 359 L 383 341 Z" fill="none" stroke="#000000" stroke-miterlimit="10" pointer-events="none"/><g fill="#000000" font-family="Helvetica" text-anchor="middle" font-size="12px"><text x="426.5" y="353.5">Return False</text></g><path d="M 142 20 L 162.33 20 L 162.33 19.17 L 167.63 19.17" fill="none" stroke="#000000" stroke-miterlimit="10" pointer-events="none"/><path d="M 172.88 19.17 L 165.88 22.67 L 167.63 19.17 L 165.88 15.67 Z" fill="#000000" stroke="#000000" stroke-miterlimit="10" pointer-events="none"/><path d="M 0 5 L 127.8 5 L 127.8 5 L 142 20 L 127.8 35 L 127.8 35 L 0 35 L 14.2 20 Z" fill="#ffffff" stroke="#000000" stroke-miterlimit="10" pointer-events="none"/><g fill="#000000" font-family="Helvetica" text-anchor="middle" font-size="12px"><text x="70.5" y="23.5">gui.actionFile_open</text></g><path d="M 223 207.5 L 259 207.5 L 259 225.5 L 223 225.5 L 223 207.5 Z" fill="#ffffff" stroke="none" pointer-events="none"/><path d="M 224.5 209 L 224.5 224 L 224.5 224 L 257.5 224 L 257.5 209 L 224.5 209" fill="#ffffff" stroke="none" pointer-events="none"/><path d="M 223 207.5 L 259 207.5 L 259 225.5 L 223 225.5 L 223 207.5 Z" fill="none" stroke="#000000" stroke-miterlimit="10" pointer-events="none"/><g fill="#000000" font-family="Helvetica" text-anchor="middle" font-size="12px"><text x="240.5" y="220">yes</text></g></g></svg>