<?xml version="1.0" standalone="no"?>
<svg style="background: #fff" xmlns="http://www.w3.org/2000/svg" xmlns:xlink="http://www.w3.org/1999/xlink" version="1.1" width="758px" height="1937px" viewBox="-0.5 -0.5 758 1937"><defs><style>* {margin: 0px; padding: 0px;}</style></defs><g><path d="M 572 711 L 572 767 L 571 767 L 571 817.13" fill="none" stroke="#000000" stroke-miterlimit="10" pointer-events="none"/><path d="M 571 822.38 L 567.5 815.38 L 571 817.13 L 574.5 815.38 Z" fill="#000000" stroke="#000000" stroke-miterlimit="10" pointer-events="none"/><ellipse cx="110" cy="21" rx="50" ry="21" fill="#ffcc99" stroke="#000000" pointer-events="none"/><g fill="#000000" font-family="Helvetica" text-anchor="middle" font-size="12px"><text x="109.5" y="24.5">cb_resample</text></g><path d="M 47 53 L 140.8 53 L 140.8 53 L 181 68 L 140.8 83 L 140.8 83 L 47 83 L 87.2 68 Z" fill="#66ffff" stroke="#000000" stroke-miterlimit="10" pointer-events="none"/><g fill="#000000" font-family="Helvetica" text-anchor="middle" font-size="12px"><text x="113.5" y="64.5">inactivate </text><text x="113.5" y="78.5">other tabs</text></g><path d="M 65.65 146.99 L 153.3 146.99 C 154.73 146.99 155.87 146.89 156.43 146.72 C 157 146.55 156.95 146.32 156.29 146.09 L 111.46 136.18 C 110.33 136 108.62 136 107.49 136.18 L 62.66 146.09 C 62.04 146.33 62 146.56 62.57 146.74 C 63.14 146.91 64.25 147 65.65 146.99 Z" fill="#cc0000" stroke="#000000" stroke-miterlimit="10" pointer-events="none"/><g fill="#000000" font-family="Helvetica" text-anchor="middle" font-size="12px"><text x="109" y="159">SigterminateFinished</text><text x="109" y="173">disconnect</text></g><rect x="60" y="180.5" width="100" height="36" rx="2.52" ry="2.52" fill="#ffffff" stroke="#000000" pointer-events="none"/><g fill="#000000" font-family="Helvetica" text-anchor="middle" font-size="12px"><text x="109.5" y="195">disable resample</text><text x="109.5" y="209">GUI elements</text></g><path d="M 162 255 L 418.63 255" fill="none" stroke="#000000" stroke-miterlimit="10" pointer-events="none"/><path d="M 423.88 255 L 416.88 258.5 L 418.63 255 L 416.88 251.5 Z" fill="#000000" stroke="#000000" stroke-miterlimit="10" pointer-events="none"/><path d="M 112 279.5 L 112 300 L 112 284 L 112 297.13" fill="none" stroke="#000000" stroke-miterlimit="10" pointer-events="none"/><path d="M 112 302.38 L 108.5 295.38 L 112 297.13 L 115.5 295.38 Z" fill="#000000" stroke="#000000" stroke-miterlimit="10" pointer-events="none"/><path d="M 112 230.5 L 162 255 L 112 279.5 L 62 255 Z" fill="#ffffff" stroke="#000000" stroke-miterlimit="10" pointer-events="none"/><g fill="#000000" font-family="Helvetica" text-anchor="middle" font-size="12px"><text x="111.5" y="251.5">emergency</text><text x="111.5" y="265.5">stop ?</text></g><path d="M 112 464 L 112 543.63" fill="none" stroke="#000000" stroke-miterlimit="10" pointer-events="none"/><path d="M 112 548.88 L 108.5 541.88 L 112 543.63 L 115.5 541.88 Z" fill="#000000" stroke="#000000" stroke-miterlimit="10" pointer-events="none"/><rect x="62" y="415" width="100" height="49" rx="3.43" ry="3.43" fill="#ffffff" stroke="#000000" pointer-events="none"/><g fill="#000000" font-family="Helvetica" text-anchor="middle" font-size="12px"><text x="111.5" y="429">set SR and LO</text><text x="111.5" y="443">reset starttrim</text><text x="111.5" y="457">reset stoptrim</text></g><path d="M 323.61 332 L 362.39 332 C 379.29 332 393 342.52 393 355.5 C 393 368.48 379.29 379 362.39 379 L 323.61 379 C 306.71 379 293 368.48 293 355.5 C 293 342.52 306.71 332 323.61 332 Z" fill="#ffffff" stroke="#000000" stroke-miterlimit="10" pointer-events="none"/><g fill="#000000" font-family="Helvetica" text-anchor="middle" font-size="12px"><text x="342.5" y="352">return</text><text x="342.5" y="366">False</text></g><path d="M 268 355.06 L 288.63 355.01" fill="none" stroke="#000000" stroke-miterlimit="10" pointer-events="none"/><path d="M 293.88 355 L 286.89 358.52 L 288.63 355.01 L 286.87 351.52 Z" fill="#000000" stroke="#000000" stroke-miterlimit="10" pointer-events="none"/><path d="M 112 610 L 112 659.13" fill="none" stroke="#000000" stroke-miterlimit="10" pointer-events="none"/><path d="M 112 664.38 L 108.5 657.38 L 112 659.13 L 115.5 657.38 Z" fill="#000000" stroke="#000000" stroke-miterlimit="10" pointer-events="none"/><path d="M 162 580 L 182 580 L 170 580 L 183.63 580" fill="none" stroke="#000000" stroke-miterlimit="10" pointer-events="none"/><path d="M 188.88 580 L 181.88 583.5 L 183.63 580 L 181.88 576.5 Z" fill="#000000" stroke="#000000" stroke-miterlimit="10" pointer-events="none"/><path d="M 112 550 L 162 580 L 112 610 L 62 580 Z" fill="#ffffff" stroke="#000000" stroke-miterlimit="10" pointer-events="none"/><g fill="#000000" font-family="Helvetica" text-anchor="middle" font-size="12px"><text x="111.5" y="576.5">reslist not</text><text x="111.5" y="590.5">empty</text></g><path d="M 162 696 L 193 696 L 217.63 696" fill="none" stroke="#000000" stroke-miterlimit="10" pointer-events="none"/><path d="M 222.88 696 L 215.88 699.5 L 217.63 696 L 215.88 692.5 Z" fill="#000000" stroke="#000000" stroke-miterlimit="10" pointer-events="none"/><path d="M 112 725.5 L 112 756 L 112 780.73" fill="none" stroke="#000000" stroke-miterlimit="10" pointer-events="none"/><path d="M 112 785.98 L 108.5 778.98 L 112 780.73 L 115.5 778.98 Z" fill="#000000" stroke="#000000" stroke-miterlimit="10" pointer-events="none"/><path d="M 112 665.5 L 162 695.5 L 112 725.5 L 62 695.5 Z" fill="#ffffff" stroke="#000000" stroke-miterlimit="10" pointer-events="none"/><g fill="#000000" font-family="Helvetica" text-anchor="middle" font-size="12px"><text x="111.5" y="699">end of reslist ?</text></g><path d="M 111.5 834.1 L 111.5 914.73" fill="none" stroke="#000000" stroke-miterlimit="10" pointer-events="none"/><path d="M 111.5 919.98 L 108 912.98 L 111.5 914.73 L 115 912.98 Z" fill="#000000" stroke="#000000" stroke-miterlimit="10" pointer-events="none"/><rect x="40" y="787.1" width="143" height="47" rx="3.29" ry="3.29" fill="#ffffff" stroke="#000000" pointer-events="none"/><g fill="#000000" font-family="Helvetica" text-anchor="middle" font-size="12px"><text x="111" y="800.1">set item green</text><text x="111" y="814.1">get current filename</text><text x="111" y="828.1">get wavheader             </text></g><rect x="136" y="725.6" width="33" height="22" rx="1.54" ry="1.54" fill="#ffffff" stroke="#000000" pointer-events="none"/><g fill="#000000" font-family="Helvetica" text-anchor="middle" font-size="12px"><text x="152" y="740.1">no</text></g><path d="M 112 967.1 L 112 1042 L 112 1112.63" fill="none" stroke="#000000" stroke-miterlimit="10" pointer-events="none"/><path d="M 112 1117.88 L 108.5 1110.88 L 112 1112.63 L 115.5 1110.88 Z" fill="#000000" stroke="#000000" stroke-miterlimit="10" pointer-events="none"/><rect x="31" y="921.1" width="161" height="46" rx="3.22" ry="3.22" fill="#ffffff" stroke="#000000" pointer-events="none"/><g fill="#000000" font-family="Helvetica" text-anchor="middle" font-size="12px"><text x="111" y="933.6">get cutt times</text><text x="111" y="947.6">set starttrim for first list item</text><text x="111" y="961.6">set stoptrim for last lititem</text></g><path d="M 274 726 L 274 746 L 274 736 L 274 749.63" fill="none" stroke="#000000" stroke-miterlimit="10" pointer-events="none"/><path d="M 274 754.88 L 270.5 747.88 L 274 749.63 L 277.5 747.88 Z" fill="#000000" stroke="#000000" stroke-miterlimit="10" pointer-events="none"/><path d="M 324 696 L 393.63 696" fill="none" stroke="#000000" stroke-miterlimit="10" pointer-events="none"/><path d="M 398.88 696 L 391.88 699.5 L 393.63 696 L 391.88 692.5 Z" fill="#000000" stroke="#000000" stroke-miterlimit="10" pointer-events="none"/><path d="M 274 666 L 324 696 L 274 726 L 224 696 Z" fill="#ffffff" stroke="#000000" stroke-miterlimit="10" pointer-events="none"/><g fill="#000000" font-family="Helvetica" text-anchor="middle" font-size="12px"><text x="273.5" y="692.5">automerge </text><text x="273.5" y="706.5">checked ?</text></g><rect x="169" y="665.5" width="33" height="22" rx="1.54" ry="1.54" fill="#ffffff" stroke="#000000" pointer-events="none"/><g fill="#000000" font-family="Helvetica" text-anchor="middle" font-size="12px"><text x="185" y="680">yes</text></g><rect x="70" y="607.5" width="33" height="22" rx="1.54" ry="1.54" fill="#ffffff" stroke="#000000" pointer-events="none"/><g fill="#000000" font-family="Helvetica" text-anchor="middle" font-size="12px"><text x="86" y="622">yes</text></g><path d="M 274 816 L 274 836 L 274 848.13" fill="none" stroke="#000000" stroke-miterlimit="10" pointer-events="none"/><path d="M 274 853.38 L 270.5 846.38 L 274 848.13 L 277.5 846.38 Z" fill="#000000" stroke="#000000" stroke-miterlimit="10" pointer-events="none"/><path d="M 324 786 L 383 786 L 383 950 L 388.37 950" fill="none" stroke="#000000" stroke-miterlimit="10" pointer-events="none"/><path d="M 383.12 950 L 390.12 946.5 L 388.37 950 L 390.12 953.5 Z" fill="#000000" stroke="#000000" stroke-miterlimit="10" pointer-events="none"/><path d="M 274 756 L 324 786 L 274 816 L 224 786 Z" fill="#ffffff" stroke="#000000" stroke-miterlimit="10" pointer-events="none"/><g fill="#000000" font-family="Helvetica" text-anchor="middle" font-size="12px"><text x="273.5" y="782.5">emergency</text><text x="273.5" y="796.5">stop ?</text></g><rect x="277.5" y="816" width="33" height="22" rx="1.54" ry="1.54" fill="#ffffff" stroke="#000000" pointer-events="none"/><g fill="#000000" font-family="Helvetica" text-anchor="middle" font-size="12px"><text x="293.5" y="830.5">no</text></g><rect x="210" y="854.5" width="127" height="48" rx="3.36" ry="3.36" fill="#ffffff" stroke="#000000" pointer-events="none"/><g fill="#000000" font-family="Helvetica" text-anchor="middle" font-size="12px"><text x="273" y="868">progress 0</text><text x="273" y="882">actionlabel MERGE</text><text x="273" y="896">updateGUIelements</text></g><rect x="222" y="908.5" width="111" height="36" rx="2.16" ry="2.16" fill="#00ff80" stroke="#000000" pointer-events="none"/><path d="M 237.54 908.5 L 237.54 944.5 M 317.46 908.5 L 317.46 944.5" fill="none" stroke="#000000" stroke-miterlimit="10" pointer-events="none"/><g fill="#000000" font-family="Helvetica" text-anchor="middle" font-size="12px"><text x="277" y="923">merge2G_new</text><text x="277" y="937">(filelist)</text></g><path d="M 44.5 877.1 L 138.3 877.1 L 138.3 877.1 L 178.5 892.1 L 138.3 907.1 L 138.3 907.1 L 44.5 907.1 L 84.7 892.1 Z" fill="#99ffff" stroke="#000000" stroke-miterlimit="10" pointer-events="none"/><g fill="#000000" font-family="Helvetica" text-anchor="middle" font-size="12px"><text x="111" y="888.6">SigUpdate</text><text x="111" y="902.6">OtherGUIs</text></g><path d="M 44.5 840.6 L 138.3 840.6 L 138.3 840.6 L 178.5 855.6 L 138.3 870.6 L 138.3 870.6 L 44.5 870.6 L 84.7 855.6 Z" fill="#ff3399" stroke="#000000" stroke-miterlimit="10" pointer-events="none"/><g fill="#000000" font-family="Helvetica" text-anchor="middle" font-size="12px"><text x="111" y="852.1">relay</text><text x="111" y="866.1">filename</text></g><path d="M 571 883.5 L 571 970.63" fill="none" stroke="#000000" stroke-miterlimit="10" pointer-events="none"/><path d="M 571 975.88 L 567.5 968.88 L 571 970.63 L 574.5 968.88 Z" fill="#000000" stroke="#000000" stroke-miterlimit="10" pointer-events="none"/><rect x="400" y="681" width="343" height="30" rx="2.1" ry="2.1" fill="#ffffff" stroke="#000000" pointer-events="none"/><g fill="#000000" font-family="Helvetica" text-anchor="middle" font-size="12px"><text x="571" y="692.5">enable_resamp_GUI_elemets</text></g><path d="M 558 580 L 578 580 L 574.63 580" fill="none" stroke="#000000" stroke-miterlimit="10" pointer-events="none"/><path d="M 579.88 580 L 572.88 583.5 L 574.63 580 L 572.88 576.5 Z" fill="#000000" stroke="#000000" stroke-miterlimit="10" pointer-events="none"/><rect x="190" y="560" width="228" height="40" rx="2.8" ry="2.8" fill="#ffffff" stroke="#000000" pointer-events="none"/><g fill="#000000" font-family="Helvetica" text-anchor="middle" font-size="12px"><text x="303.5" y="576.5">standard_errorbox("No files ...")</text><text x="303.5" y="590.5">enable_resamp_GUI_elemets(True)</text></g><path d="M 611.61 564 L 650.39 564 C 667.29 564 681 570.94 681 579.5 C 681 588.06 667.29 595 650.39 595 L 611.61 595 C 594.71 595 581 588.06 581 579.5 C 581 570.94 594.71 564 611.61 564 Z" fill="#ffffff" stroke="#000000" stroke-miterlimit="10" pointer-events="none"/><g fill="#000000" font-family="Helvetica" text-anchor="middle" font-size="12px"><text x="630.5" y="576">return</text><text x="630.5" y="590">False</text></g><path d="M 112 406.5 L 112 427 L 112 395 L 112 408.63" fill="none" stroke="#000000" stroke-miterlimit="10" pointer-events="none"/><path d="M 112 413.88 L 108.5 406.88 L 112 408.63 L 115.5 406.88 Z" fill="#000000" stroke="#000000" stroke-miterlimit="10" pointer-events="none"/><path d="M 112 303.5 L 175 355 L 112 406.5 L 49 355 Z" fill="#ffffff" stroke="#000000" stroke-miterlimit="10" pointer-events="none"/><g fill="#000000" font-family="Helvetica" text-anchor="middle" font-size="12px"><text x="111.5" y="337.5">sox exists</text><text x="111.5" y="351.5">fileopened</text><text x="111.5" y="365.5">consistency</text><text x="111.5" y="379.5">of selected files</text></g><rect x="64" y="1014.5" width="100" height="23" rx="1.61" ry="1.61" fill="#ffffff" stroke="#000000" pointer-events="none"/><g fill="#000000" font-family="Helvetica" text-anchor="middle" font-size="12px"><text x="113.5" y="1029.5">reslist_ix +=1</text></g><path d="M 162.5 1147 L 183 1147 L 177 1147 L 190.13 1147" fill="none" stroke="#000000" stroke-miterlimit="10" pointer-events="none"/><path d="M 195.38 1147 L 188.38 1150.5 L 190.13 1147 L 188.38 1143.5 Z" fill="#000000" stroke="#000000" stroke-miterlimit="10" pointer-events="none"/><path d="M 113 1176.5 L 113 1268 L 114 1268 L 114 1352.63" fill="none" stroke="#000000" stroke-miterlimit="10" pointer-events="none"/><path d="M 114 1357.88 L 110.5 1350.88 L 114 1352.63 L 117.5 1350.88 Z" fill="#000000" stroke="#000000" stroke-miterlimit="10" pointer-events="none"/><path d="M 112.5 1116.5 L 162.5 1146.5 L 112.5 1176.5 L 62.5 1146.5 Z" fill="#ffffff" stroke="#000000" stroke-miterlimit="10" pointer-events="none"/><g fill="#000000" font-family="Helvetica" text-anchor="middle" font-size="12px"><text x="112" y="1143">formatTag</text><text x="112" y="1157">in [1,3] ?</text></g><path d="M 164 1389 L 215.63 1389" fill="none" stroke="#000000" stroke-miterlimit="10" pointer-events="none"/><path d="M 220.88 1389 L 213.88 1392.5 L 215.63 1389 L 213.88 1385.5 Z" fill="#000000" stroke="#000000" stroke-miterlimit="10" pointer-events="none"/><path d="M 114 1419 L 114 1487.63" fill="none" stroke="#000000" stroke-miterlimit="10" pointer-events="none"/><path d="M 114 1492.88 L 110.5 1485.88 L 114 1487.63 L 117.5 1485.88 Z" fill="#000000" stroke="#000000" stroke-miterlimit="10" pointer-events="none"/><path d="M 114 1359 L 164 1389 L 114 1419 L 64 1389 Z" fill="#ffffff" stroke="#000000" stroke-miterlimit="10" pointer-events="none"/><g fill="#000000" font-family="Helvetica" text-anchor="middle" font-size="12px"><text x="113.5" y="1392.5">fshift &lt; 1e-5</text></g><path d="M 164 1524 L 184 1524 L 197.13 1524" fill="none" stroke="#000000" stroke-miterlimit="10" pointer-events="none"/><path d="M 202.38 1524 L 195.38 1527.5 L 197.13 1524 L 195.38 1520.5 Z" fill="#000000" stroke="#000000" stroke-miterlimit="10" pointer-events="none"/><path d="M 114 1554 L 114 1574 L 114 1561 L 114 1574.63" fill="none" stroke="#000000" stroke-miterlimit="10" pointer-events="none"/><path d="M 114 1579.88 L 110.5 1572.88 L 114 1574.63 L 117.5 1572.88 Z" fill="#000000" stroke="#000000" stroke-miterlimit="10" pointer-events="none"/><path d="M 114 1494 L 164 1524 L 114 1554 L 64 1524 Z" fill="#ffffff" stroke="#000000" stroke-miterlimit="10" pointer-events="none"/><g fill="#000000" font-family="Helvetica" text-anchor="middle" font-size="12px"><text x="113.5" y="1527.5">starttrim &lt; 1e-5</text></g><path d="M 322 1389 L 392.63 1389" fill="none" stroke="#000000" stroke-miterlimit="10" pointer-events="none"/><path d="M 397.88 1389 L 390.88 1392.5 L 392.63 1389 L 390.88 1385.5 Z" fill="#000000" stroke="#000000" stroke-miterlimit="10" pointer-events="none"/><path d="M 272 1419 L 272 1439 L 272 1444.63" fill="none" stroke="#000000" stroke-miterlimit="10" pointer-events="none"/><path d="M 272 1449.88 L 268.5 1442.88 L 272 1444.63 L 275.5 1442.88 Z" fill="#000000" stroke="#000000" stroke-miterlimit="10" pointer-events="none"/><path d="M 272 1359 L 322 1389 L 272 1419 L 222 1389 Z" fill="#ffffff" stroke="#000000" stroke-miterlimit="10" pointer-events="none"/><g fill="#000000" font-family="Helvetica" text-anchor="middle" font-size="12px"><text x="271.5" y="1392.5">nBitspS = 24</text></g><path d="M 449 1419 L 449 1439 L 449 1435 L 449 1448.63" fill="none" stroke="#000000" stroke-miterlimit="10" pointer-events="none"/><path d="M 449 1453.88 L 445.5 1446.88 L 449 1448.63 L 452.5 1446.88 Z" fill="#000000" stroke="#000000" stroke-miterlimit="10" pointer-events="none"/><path d="M 499 1389 L 536.63 1389" fill="none" stroke="#000000" stroke-miterlimit="10" pointer-events="none"/><path d="M 541.88 1389 L 534.88 1392.5 L 536.63 1389 L 534.88 1385.5 Z" fill="#000000" stroke="#000000" stroke-miterlimit="10" pointer-events="none"/><path d="M 449 1359 L 499 1389 L 449 1419 L 399 1389 Z" fill="#ffffff" stroke="#000000" stroke-miterlimit="10" pointer-events="none"/><g fill="#000000" font-family="Helvetica" text-anchor="middle" font-size="12px"><text x="448.5" y="1392.5">tSR &gt; nSps</text></g><path d="M 424.5 1147 L 445 1147 L 443.63 1147" fill="none" stroke="#000000" stroke-miterlimit="10" pointer-events="none"/><path d="M 448.88 1147 L 441.88 1150.5 L 443.63 1147 L 441.88 1143.5 Z" fill="#000000" stroke="#000000" stroke-miterlimit="10" pointer-events="none"/><rect x="196.5" y="1126.5" width="228" height="40" rx="2.8" ry="2.8" fill="#ffffff" stroke="#000000" pointer-events="none"/><g fill="#000000" font-family="Helvetica" text-anchor="middle" font-size="12px"><text x="310" y="1143">standard_errorbox("No files ...")</text><text x="310" y="1157">enable_resamp_GUI_elemets(True)</text></g><path d="M 480.61 1132 L 519.39 1132 C 536.29 1132 550 1138.71 550 1147 C 550 1155.29 536.29 1162 519.39 1162 L 480.61 1162 C 463.71 1162 450 1155.29 450 1147 C 450 1138.71 463.71 1132 480.61 1132 Z" fill="#ffffff" stroke="#000000" stroke-miterlimit="10" pointer-events="none"/><g fill="#000000" font-family="Helvetica" text-anchor="middle" font-size="12px"><text x="499.5" y="1143.5">return</text><text x="499.5" y="1157.5">False</text></g><rect x="157" y="1115.5" width="33" height="22" rx="1.54" ry="1.54" fill="#ffffff" stroke="#000000" pointer-events="none"/><g fill="#000000" font-family="Helvetica" text-anchor="middle" font-size="12px"><text x="173" y="1130">no</text></g><rect x="35" y="1201" width="154" height="50" rx="3.5" ry="3.5" fill="#ffffff" stroke="#000000" pointer-events="none"/><g fill="#000000" font-family="Helvetica" text-anchor="middle" font-size="12px"><text x="111.5" y="1215.5">generate filename suffix</text><text x="111.5" y="1229.5">with timestamp info</text><text x="111.5" y="1243.5">from m.["wavheader"]</text></g><path d="M 475 290.5 L 475 326 L 475 354.63" fill="none" stroke="#000000" stroke-miterlimit="10" pointer-events="none"/><path d="M 475 359.88 L 471.5 352.88 L 475 354.63 L 478.5 352.88 Z" fill="#000000" stroke="#000000" stroke-miterlimit="10" pointer-events="none"/><rect x="425" y="217.5" width="100" height="73" rx="5.11" ry="5.11" fill="#ffffff" stroke="#000000" pointer-events="none"/><g fill="#000000" font-family="Helvetica" text-anchor="middle" font-size="12px"><text x="474.5" y="229.5">reslist_ix = 0</text><text x="474.5" y="243.5">clear lists</text><text x="474.5" y="257.5">fileopened = false</text><text x="474.5" y="271.5">empty filelist</text><text x="474.5" y="285.5">GUI_reset_status()</text></g><path d="M 455.11 361 L 493.89 361 C 510.79 361 524.5 367.94 524.5 376.5 C 524.5 385.06 510.79 392 493.89 392 L 455.11 392 C 438.21 392 424.5 385.06 424.5 376.5 C 424.5 367.94 438.21 361 455.11 361 Z" fill="#ffffff" stroke="#000000" stroke-miterlimit="10" pointer-events="none"/><g fill="#000000" font-family="Helvetica" text-anchor="middle" font-size="12px"><text x="474" y="373">return</text><text x="474" y="387">False</text></g><path d="M 450.88 1059.5 L 451 1080 L 452 1080 L 452 1074.63" fill="none" stroke="#000000" stroke-miterlimit="10" pointer-events="none"/><path d="M 452 1079.88 L 448.5 1072.88 L 452 1074.63 L 455.5 1072.88 Z" fill="#000000" stroke="#000000" stroke-miterlimit="10" pointer-events="none"/><path d="M 475 881 L 450 881 L 450 1122 L 475 1122" fill="none" stroke="#000000" stroke-miterlimit="10" transform="rotate(270,450,1001.5)" pointer-events="none"/><path d="M 425 1001.5 L 450 1001.5" fill="none" stroke="#000000" stroke-miterlimit="10" transform="rotate(270,450,1001.5)" pointer-events="none"/><path d="M 432.61 1081 L 471.39 1081 C 488.29 1081 502 1087.94 502 1096.5 C 502 1105.06 488.29 1112 471.39 1112 L 432.61 1112 C 415.71 1112 402 1105.06 402 1096.5 C 402 1087.94 415.71 1081 432.61 1081 Z" fill="#ffffff" stroke="#000000" stroke-miterlimit="10" pointer-events="none"/><g fill="#000000" font-family="Helvetica" text-anchor="middle" font-size="12px"><text x="451.5" y="1100">return True</text></g><path d="M 475.77 1026.5 L 451 1027 L 450.91 1053.13" fill="none" stroke="#000000" stroke-miterlimit="10" pointer-events="none"/><path d="M 450.89 1058.38 L 447.41 1051.37 L 450.91 1053.13 L 454.41 1051.39 Z" fill="#000000" stroke="#000000" stroke-miterlimit="10" pointer-events="none"/><rect x="0" y="1258" width="220" height="87" rx="6.09" ry="6.09" fill="#ffffff" stroke="#000000" pointer-events="none"/><g fill="#000000" font-family="Helvetica" text-anchor="middle" font-size="12px"><text x="109.5" y="1277">generate target-filen as *.dat</text><text x="109.5" y="1291">get target params:</text><text x="109.5" y="1305">self.m["tLO"], self.m["fshift"],</text><text x="109.5" y="1319">self.m["tSR"], self.m["s_wavheader"]</text><text x="109.5" y="1333">self.m["source_fn"],self.m["target_fn"]</text></g><rect x="157" y="1359" width="33" height="22" rx="1.54" ry="1.54" fill="#ffffff" stroke="#000000" pointer-events="none"/><g fill="#000000" font-family="Helvetica" text-anchor="middle" font-size="12px"><text x="173" y="1373.5">yes</text></g><rect x="124" y="1419" width="33" height="22" rx="1.54" ry="1.54" fill="#ffffff" stroke="#000000" pointer-events="none"/><g fill="#000000" font-family="Helvetica" text-anchor="middle" font-size="12px"><text x="140" y="1433.5">no</text></g><rect x="324" y="1359" width="33" height="22" rx="1.54" ry="1.54" fill="#ffffff" stroke="#000000" pointer-events="none"/><g fill="#000000" font-family="Helvetica" text-anchor="middle" font-size="12px"><text x="340" y="1373.5">no</text></g><rect x="300" y="1408" width="33" height="22" rx="1.54" ry="1.54" fill="#ffffff" stroke="#000000" pointer-events="none"/><g fill="#000000" font-family="Helvetica" text-anchor="middle" font-size="12px"><text x="316" y="1422.5">yes</text></g><rect x="467" y="1418" width="33" height="22" rx="1.54" ry="1.54" fill="#ffffff" stroke="#000000" pointer-events="none"/><g fill="#000000" font-family="Helvetica" text-anchor="middle" font-size="12px"><text x="483" y="1432.5">yes</text></g><rect x="203" y="1451" width="137" height="36" rx="2.16" ry="2.16" fill="#00ff80" stroke="#000000" pointer-events="none"/><path d="M 222.18 1451 L 222.18 1487 M 320.82 1451 L 320.82 1487" fill="none" stroke="#000000" stroke-miterlimit="10" pointer-events="none"/><g fill="#000000" font-family="Helvetica" text-anchor="middle" font-size="12px"><text x="271" y="1472.5">c_schedule_B24</text></g><rect x="380.5" y="1453" width="137" height="36" rx="2.16" ry="2.16" fill="#00ff80" stroke="#000000" pointer-events="none"/><path d="M 399.68 1453 L 399.68 1489 M 498.32 1453 L 498.32 1489" fill="none" stroke="#000000" stroke-miterlimit="10" pointer-events="none"/><g fill="#000000" font-family="Helvetica" text-anchor="middle" font-size="12px"><text x="448.5" y="1474.5">c_schedule_B24</text></g><rect x="544" y="1372" width="137" height="36" rx="2.16" ry="2.16" fill="#00ff80" stroke="#000000" pointer-events="none"/><path d="M 563.18 1372 L 563.18 1408 M 661.82 1372 L 661.82 1408" fill="none" stroke="#000000" stroke-miterlimit="10" pointer-events="none"/><g fill="#000000" font-family="Helvetica" text-anchor="middle" font-size="12px"><text x="612" y="1393.5">c_schedule_B</text></g><rect x="203.5" y="1506" width="137" height="36" rx="2.16" ry="2.16" fill="#00ff80" stroke="#000000" pointer-events="none"/><path d="M 222.68 1506 L 222.68 1542 M 321.32 1506 L 321.32 1542" fill="none" stroke="#000000" stroke-miterlimit="10" pointer-events="none"/><g fill="#000000" font-family="Helvetica" text-anchor="middle" font-size="12px"><text x="271.5" y="1527.5">c_schedule_A</text></g><rect x="42" y="1580.5" width="137" height="38" rx="2.28" ry="2.28" fill="#00ff80" stroke="#000000" pointer-events="none"/><path d="M 61.18 1580.5 L 61.18 1618.5 M 159.82 1580.5 L 159.82 1618.5" fill="none" stroke="#000000" stroke-miterlimit="10" pointer-events="none"/><g fill="#000000" font-family="Helvetica" text-anchor="middle" font-size="12px"><text x="110" y="1603">c_schedule_B</text></g><rect x="497.5" y="1358" width="33" height="22" rx="1.54" ry="1.54" fill="#ffffff" stroke="#000000" pointer-events="none"/><g fill="#000000" font-family="Helvetica" text-anchor="middle" font-size="12px"><text x="513.5" y="1372.5">no</text></g><rect x="129.5" y="1554" width="33" height="22" rx="1.54" ry="1.54" fill="#ffffff" stroke="#000000" pointer-events="none"/><g fill="#000000" font-family="Helvetica" text-anchor="middle" font-size="12px"><text x="145.5" y="1568.5">yes</text></g><rect x="160" y="1494" width="33" height="22" rx="1.54" ry="1.54" fill="#ffffff" stroke="#000000" pointer-events="none"/><g fill="#000000" font-family="Helvetica" text-anchor="middle" font-size="12px"><text x="176" y="1508.5">no</text></g><path d="M 370 1731.5 L 370 1752 L 370 1742 L 370 1755.13" fill="none" stroke="#000000" stroke-miterlimit="10" pointer-events="none"/><path d="M 370 1760.38 L 366.5 1753.38 L 370 1755.13 L 373.5 1753.38 Z" fill="#000000" stroke="#000000" stroke-miterlimit="10" pointer-events="none"/><rect x="291.5" y="1686.5" width="156" height="45" rx="3.15" ry="3.15" fill="#ffffff" stroke="#000000" pointer-events="none"/><g fill="#000000" font-family="Helvetica" text-anchor="middle" font-size="12px"><text x="369" y="1712.5">generate m["new_name"]</text></g><path d="M 395 1321 L 370 1321 L 370 1999 L 395 1999" fill="none" stroke="#000000" stroke-miterlimit="10" transform="rotate(270,370,1660)" pointer-events="none"/><path d="M 345 1660 L 370 1660" fill="none" stroke="#000000" stroke-miterlimit="10" transform="rotate(270,370,1660)" pointer-events="none"/><path d="M 402 1067.5 L 425 1007.5 L 479 1007.5 L 502 1067.5 Z" fill="#ccffcc" stroke="#000000" stroke-miterlimit="10" transform="translate(0,1037.5)scale(1,-1)translate(0,-1037.5)" pointer-events="none"/><g fill="#000000" font-family="Helvetica" text-anchor="middle" font-size="12px"><text x="451.5" y="1027">playlist2_widget</text><text x="451.5" y="1041">item changed</text><text x="451.5" y="1055">reconnect</text></g><path d="M 425 358 L 448 298 L 502 298 L 525 358 Z" fill="#ccffcc" stroke="#000000" stroke-miterlimit="10" transform="translate(0,328)scale(1,-1)translate(0,-328)" pointer-events="none"/><g fill="#000000" font-family="Helvetica" text-anchor="middle" font-size="12px"><text x="474.5" y="317.5">playlist2_widget</text><text x="474.5" y="331.5">item changed</text><text x="474.5" y="345.5">reconnect</text></g><path d="M 179 385 L 202 325 L 256 325 L 279 385 Z" fill="#ccffcc" stroke="#000000" stroke-miterlimit="10" transform="translate(0,355)scale(1,-1)translate(0,-355)" pointer-events="none"/><g fill="#000000" font-family="Helvetica" text-anchor="middle" font-size="12px"><text x="228.5" y="344.5">playlist2_widget</text><text x="228.5" y="358.5">item changed</text><text x="228.5" y="372.5">reconnect</text></g><path d="M 171 354.5 L 191 355 L 184.63 354.84" fill="none" stroke="#000000" stroke-miterlimit="10" pointer-events="none"/><path d="M 189.88 354.97 L 182.8 358.3 L 184.63 354.84 L 182.97 351.3 Z" fill="#000000" stroke="#000000" stroke-miterlimit="10" pointer-events="none"/><path d="M 65.65 98.99 L 153.3 98.99 C 154.73 98.99 155.87 98.89 156.43 98.72 C 157 98.55 156.95 98.32 156.29 98.09 L 111.46 88.18 C 110.33 88 108.62 88 107.49 88.18 L 62.66 98.09 C 62.04 98.33 62 98.56 62.57 98.74 C 63.14 98.91 64.25 99 65.65 98.99 Z" fill="#cc0000" stroke="#000000" stroke-miterlimit="10" pointer-events="none"/><g fill="#000000" font-family="Helvetica" text-anchor="middle" font-size="12px"><text x="109" y="104">playlist2_widget</text><text x="109" y="118">item changed</text><text x="109" y="132">disconnect</text></g><path d="M 370 1821.5 L 370 1866 L 370 1906.63" fill="none" stroke="#000000" stroke-miterlimit="10" pointer-events="none"/><path d="M 370 1911.88 L 366.5 1904.88 L 370 1906.63 L 373.5 1904.88 Z" fill="#000000" stroke="#000000" stroke-miterlimit="10" pointer-events="none"/><path d="M 312.5 1821.5 L 338.72 1761.5 L 400.28 1761.5 L 426.5 1821.5 Z" fill="#ccffcc" stroke="#000000" stroke-miterlimit="10" transform="translate(0,1791.5)scale(1,-1)translate(0,-1791.5)" pointer-events="none"/><g fill="#000000" font-family="Helvetica" text-anchor="middle" font-size="12px"><text x="369" y="1788">SigincrScheduler</text><text x="369" y="1802">connect</text></g><path d="M 279 1831.5 L 404.3 1831.5 L 404.3 1831.5 L 458 1843.5 L 404.3 1855.5 L 404.3 1855.5 L 279 1855.5 L 332.7 1843.5 Z" fill="#99ffff" stroke="#000000" stroke-miterlimit="10" pointer-events="none"/><g fill="#000000" font-family="Helvetica" text-anchor="middle" font-size="12px"><text x="368" y="1847">        SigincrScheduler</text></g><rect x="227" y="1865" width="294" height="26" rx="1.82" ry="1.82" fill="#ffffff" stroke="#000000" pointer-events="none"/><g fill="#000000" font-family="Helvetica" text-anchor="middle" font-size="12px"><text x="373.5" y="1881.5">enable lineEdit_resample_targetnameprefix</text></g><path d="M 347.61 1911 L 386.39 1911 C 403.29 1911 417 1916.6 417 1923.5 C 417 1930.4 403.29 1936 386.39 1936 L 347.61 1936 C 330.71 1936 317 1930.4 317 1923.5 C 317 1916.6 330.71 1911 347.61 1911 Z" fill="#ffffff" stroke="#000000" stroke-miterlimit="10" pointer-events="none"/><g fill="#000000" font-family="Helvetica" text-anchor="middle" font-size="12px"><text x="366.5" y="1927">leave</text></g><path d="M 62.5 535.5 L 85.5 475.5 L 139.5 475.5 L 162.5 535.5 Z" fill="#ccffcc" stroke="#000000" stroke-miterlimit="10" transform="translate(0,505.5)scale(1,-1)translate(0,-505.5)" pointer-events="none"/><g fill="#000000" font-family="Helvetica" text-anchor="middle" font-size="12px"><text x="112" y="495">pushButton_resample</text><text x="112" y="509">_cancel.clicked.connect</text><text x="112" y="523">(c.cancel_resampling)</text></g><path d="M 354 917 L 329 917 L 329 1020 L 354 1020" fill="none" stroke="#000000" stroke-miterlimit="10" transform="rotate(270,329,968.5)" pointer-events="none"/><path d="M 304 968.5 L 329 968.5" fill="none" stroke="#000000" stroke-miterlimit="10" transform="rotate(270,329,968.5)" pointer-events="none"/><path d="M 458 610 L 481 550 L 535 550 L 558 610 Z" fill="#ccffcc" stroke="#000000" stroke-miterlimit="10" transform="translate(0,580)scale(1,-1)translate(0,-580)" pointer-events="none"/><g fill="#000000" font-family="Helvetica" text-anchor="middle" font-size="12px"><text x="507.5" y="569.5">playlist2_widget</text><text x="507.5" y="583.5">item changed</text><text x="507.5" y="597.5">reconnect</text></g><path d="M 418 580 L 451.63 580" fill="none" stroke="#000000" stroke-miterlimit="10" pointer-events="none"/><path d="M 456.88 580 L 449.88 583.5 L 451.63 580 L 449.88 576.5 Z" fill="#000000" stroke="#000000" stroke-miterlimit="10" pointer-events="none"/><rect x="279.5" y="725.5" width="33" height="22" rx="1.54" ry="1.54" fill="#ffffff" stroke="#000000" pointer-events="none"/><g fill="#000000" font-family="Helvetica" text-anchor="middle" font-size="12px"><text x="295.5" y="740">yes</text></g><rect x="333" y="665.5" width="33" height="22" rx="1.54" ry="1.54" fill="#ffffff" stroke="#000000" pointer-events="none"/><g fill="#000000" font-family="Helvetica" text-anchor="middle" font-size="12px"><text x="349" y="680">no</text></g><path d="M 508 921.1 L 601.8 921.1 L 601.8 921.1 L 642 936.1 L 601.8 951.1 L 601.8 951.1 L 508 951.1 L 548.2 936.1 Z" fill="#ff3399" stroke="#000000" stroke-miterlimit="10" pointer-events="none"/><g fill="#000000" font-family="Helvetica" text-anchor="middle" font-size="12px"><text x="574.5" y="932.6">relay</text><text x="574.5" y="946.6">fileopened false</text></g><path d="M 508 961.1 L 601.8 961.1 L 601.8 961.1 L 642 976.1 L 601.8 991.1 L 601.8 991.1 L 508 991.1 L 548.2 976.1 Z" fill="#ffffcc" stroke="#000000" stroke-miterlimit="10" pointer-events="none"/><g fill="#000000" font-family="Helvetica" text-anchor="middle" font-size="12px"><text x="574.5" y="972.6">relay</text><text x="574.5" y="986.6">reset_GUI()</text></g><path d="M 500 717.6 L 593.8 717.6 L 593.8 717.6 L 634 732.6 L 593.8 747.6 L 593.8 747.6 L 500 747.6 L 540.2 732.6 Z" fill="#99ffff" stroke="#000000" stroke-miterlimit="10" pointer-events="none"/><g fill="#000000" font-family="Helvetica" text-anchor="middle" font-size="12px"><text x="566.5" y="729.1">SigUpdate</text><text x="566.5" y="743.1">OtherGUIs</text></g><rect x="400" y="771" width="343" height="37" rx="2.59" ry="2.59" fill="#ffffff" stroke="#000000" pointer-events="none"/><g fill="#000000" font-family="Helvetica" text-anchor="middle" font-size="12px"><text x="571" y="786">SigActivateOtherTabs.emit("Resample","activate",[])</text><text x="571" y="800">listWidget_playlist_2.itemChanged.connect(self.reslist_update)         </text></g><path d="M 621 854 L 641 854 L 641 853 L 650.63 853" fill="none" stroke="#000000" stroke-miterlimit="10" pointer-events="none"/><path d="M 655.88 853 L 648.88 856.5 L 650.63 853 L 648.88 849.5 Z" fill="#000000" stroke="#000000" stroke-miterlimit="10" pointer-events="none"/><path d="M 571 823.5 L 621 853.5 L 571 883.5 L 521 853.5 Z" fill="#ffffff" stroke="#000000" stroke-miterlimit="10" pointer-events="none"/><g fill="#000000" font-family="Helvetica" text-anchor="middle" font-size="12px"><text x="570.5" y="850">automerge </text><text x="570.5" y="864">checked ?</text></g><rect x="657" y="838" width="100" height="30" rx="2.1" ry="2.1" fill="#ffffff" stroke="#000000" pointer-events="none"/><g fill="#000000" font-family="Helvetica" text-anchor="middle" font-size="12px"><text x="706.5" y="856.5">self.reset_GUI()</text></g><rect x="609" y="823.5" width="33" height="22" rx="1.54" ry="1.54" fill="#ffffff" stroke="#000000" pointer-events="none"/><g fill="#000000" font-family="Helvetica" text-anchor="middle" font-size="12px"><text x="625" y="838">no</text></g><rect x="517.5" y="895" width="100" height="22" rx="1.54" ry="1.54" fill="#ffffff" stroke="#000000" pointer-events="none"/><g fill="#000000" font-family="Helvetica" text-anchor="middle" font-size="12px"><text x="567" y="909.5">empty filelist</text></g><rect x="598" y="866" width="33" height="22" rx="1.54" ry="1.54" fill="#ffffff" stroke="#000000" pointer-events="none"/><g fill="#000000" font-family="Helvetica" text-anchor="middle" font-size="12px"><text x="614" y="880.5">yes</text></g></g></svg>