<?xml version="1.0" encoding="UTF-8" standalone="no"?>
<svg
   viewBox="0 0 2725.2747 1198.5715"
   version="1.1"
   id="svg2"
   sodipodi:docname="cohiradia-logo.svg"
   xml:space="preserve"
   inkscape:version="1.2.2 (b0a8486, 2022-12-01)"
   width="2725.2747"
   height="1198.5715"
   xmlns:inkscape="http://www.inkscape.org/namespaces/inkscape"
   xmlns:sodipodi="http://sodipodi.sourceforge.net/DTD/sodipodi-0.dtd"
   xmlns="http://www.w3.org/2000/svg"
   xmlns:svg="http://www.w3.org/2000/svg"
   xmlns:rdf="http://www.w3.org/1999/02/22-rdf-syntax-ns#"
   xmlns:cc="http://creativecommons.org/ns#"
   xmlns:dc="http://purl.org/dc/elements/1.1/"><defs
     id="defs2" /><sodipodi:namedview
     id="namedview2"
     pagecolor="#ffffff"
     bordercolor="#000000"
     borderopacity="0.25"
     inkscape:showpageshadow="2"
     inkscape:pageopacity="0.0"
     inkscape:pagecheckerboard="0"
     inkscape:deskcolor="#d1d1d1"
     showgrid="false"
     inkscape:zoom="0.44934976"
     inkscape:cx="347.16832"
     inkscape:cy="702.12567"
     inkscape:window-width="1440"
     inkscape:window-height="787"
     inkscape:window-x="0"
     inkscape:window-y="25"
     inkscape:window-maximized="0"
     inkscape:current-layer="Page-1" /><title
     id="title1">Page 1</title><g
     inkscape:groupmode="layer"
     id="layer2"
     inkscape:label="Layer 1"
     transform="translate(1156.5557,-505.22642)"><g
       inkscape:label="Image"
       id="g1"
       transform="matrix(5.4062715,0,0,8.1060867,-1155.595,944.83114)"><path
         
         d="M 23.906523,30.248047 H 12.258085 v -3.046875 h 3.679688 v -9.222656 h -3.679688 v -2.847657 q 0.84375,0 1.617188,-0.09375 0.773437,-0.105468 1.289062,-0.351562 0.609375,-0.292969 0.914063,-0.761719 0.304687,-0.46875 0.351562,-1.171875 h 3.878907 v 14.449219 h 3.597656 z"
         id="text2"
         aria-label="1 " /><path
         d="m 39.433168,21.488281 q 0,2.203125 -0.398437,3.949219 -0.398438,1.734375 -1.242188,2.847656 -0.867187,1.136719 -2.226562,1.722656 -1.359375,0.574219 -3.351563,0.574219 -1.957031,0 -3.339843,-0.585937 Q 27.491762,29.410156 26.636293,28.261719 25.769106,27.113281 25.382387,25.414062 24.995668,23.703125 24.995668,21.5 q 0,-2.273438 0.398438,-3.949219 0.398437,-1.675781 1.265625,-2.835937 0.867187,-1.148438 2.25,-1.722656 1.382812,-0.574219 3.304687,-0.574219 2.003907,0 3.363282,0.597656 1.359375,0.585938 2.226562,1.757813 0.855469,1.148437 1.242188,2.835937 0.386718,1.675781 0.386718,3.878906 z m -4.535156,0 q 0,-3.164062 -0.621094,-4.5 -0.621093,-1.347656 -2.0625,-1.347656 -1.441406,0 -2.0625,1.347656 -0.621093,1.335938 -0.621093,4.523438 0,3.105468 0.632812,4.476562 0.632813,1.371094 2.050781,1.371094 1.417969,0 2.050782,-1.371094 0.632812,-1.371094 0.632812,-4.5 z"
         id="text26"
         aria-label="0" /><path
         d="m 56.223721,21.488281 q 0,2.203125 -0.398438,3.949219 -0.398437,1.734375 -1.242187,2.847656 -0.867188,1.136719 -2.226563,1.722656 -1.359375,0.574219 -3.351562,0.574219 -1.957032,0 -3.339844,-0.585937 Q 44.282314,29.410156 43.426846,28.261719 42.559658,27.113281 42.172939,25.414062 41.786221,23.703125 41.786221,21.5 q 0,-2.273438 0.398437,-3.949219 0.398438,-1.675781 1.265625,-2.835937 0.867188,-1.148438 2.25,-1.722656 1.382813,-0.574219 3.304688,-0.574219 2.003906,0 3.363281,0.597656 1.359375,0.585938 2.226562,1.757813 0.855469,1.148437 1.242188,2.835937 0.386719,1.675781 0.386719,3.878906 z m -4.535157,0 q 0,-3.164062 -0.621093,-4.5 -0.621094,-1.347656 -2.0625,-1.347656 -1.441407,0 -2.0625,1.347656 -0.621094,1.335938 -0.621094,4.523438 0,3.105468 0.632812,4.476562 0.632813,1.371094 2.050782,1.371094 1.417968,0 2.050781,-1.371094 0.632812,-1.371094 0.632812,-4.5 z"
         id="text29"
         aria-label="0" /><path
         d="M 69.533333,30.248047 H 57.884895 v -3.046875 h 3.679688 v -9.222656 h -3.679688 v -2.847657 q 0.84375,0 1.617188,-0.09375 0.773437,-0.105468 1.289062,-0.351562 0.609375,-0.292969 0.914063,-0.761719 0.304687,-0.46875 0.351562,-1.171875 h 3.878907 v 14.449219 h 3.597656 z"
         id="text31"
         aria-label="1" /><path
         d="M 82.96669,30.248047 H 71.318253 v -3.046875 h 3.679687 v -9.222656 h -3.679687 v -2.847657 q 0.84375,0 1.617187,-0.09375 0.773438,-0.105468 1.289063,-0.351562 0.609375,-0.292969 0.914062,-0.761719 0.304688,-0.46875 0.351563,-1.171875 h 3.878906 v 14.449219 h 3.597656 z"
         id="text33"
         aria-label="1" /></g></g><g
     id="Page-1"
     stroke="none"
     stroke-width="1"
     fill="none"
     fill-rule="evenodd"
     transform="translate(-196.51056,-178.42847)"><g
       id="Cohi5"
       transform="translate(33,33)"
       stroke="#000000"><path
         d="m 764,156 c 100.40693,0 188.07636,33.70035 233.87906,83.98722 v 0 l 38.03464,0.002 c 18.2378,17.36711 35.5504,36.42223 51.8185,56.99835 v 0 L 859.528,632.05555 C 833.78348,614.35894 802.60162,604 769,604 c -35.67842,0 -68.62886,11.67868 -95.23856,31.42022 v 0 L 440.96303,293.60443 c 15.48118,-19.28519 31.88928,-37.20397 49.12349,-53.61538 v 0 l 40.03441,-0.002 C 575.92362,189.70035 663.59306,156 764,156 Z"
         id="Combined-Shape"
         stroke-width="10"
         fill="#00ef76" /><path
         d="m 872.78816,865.77432 228.92824,323.04648 c -16.6482,20.1908 -34.3586,38.8936 -53.003,55.9397 v 0 l -37.6149,0.2421 C 964.70785,1301.1392 873.36053,1339 768.5,1339 c -102.7262,0 -192.47702,-36.3366 -239.70977,-90.5922 v 0 l -2.92654,-3.4042 H 487.884 c -18.09376,-16.5206 -35.30291,-34.593 -51.51087,-54.0619 L 437.3,1192.047 667.28468,867.51274 C 694.65711,890.08 729.65983,903.72525 767.842,903.9959 L 769,904 c 39.6046,0 75.84813,-14.38982 103.78816,-38.22568 z"
         id="path1"
         stroke-width="10"
         fill="#00ef76" /><circle
         id="Oval"
         stroke-width="10"
         cx="769"
         cy="754"
         r="150" /><path
         d="M 518.94416,203.55464 C 303.35449,308.49931 168.37521,489.58798 168.37521,744.35968 c 0,317.13182 261.16586,562.93292 574.79716,562.93292 172.85854,0 329.90293,-78.6983 436.05623,-200.2184 86.4492,-98.9637 195.0329,-331.31641 110.0772,-544.29403"
         id="Path"
         stroke-width="50"
         stroke-linecap="round"
         stroke-linejoin="round"
         transform="rotate(65,744.24699,755.42362)" /></g><path
       d="m 1269.4414,903.54102 c 35.1563,0 62.6953,-10.2295 82.6172,-30.68848 19.9219,-20.45899 29.8828,-48.07129 29.8828,-82.83692 0,-35.05859 -10.0098,-62.76855 -30.0293,-83.12988 -20.0195,-20.36133 -47.5098,-30.54199 -82.4707,-30.54199 -35.0586,0 -62.5488,10.18066 -82.4707,30.54199 -19.9219,20.36133 -29.8828,48.07129 -29.8828,83.12988 0,34.76563 9.9609,62.37793 29.8828,82.83692 19.9219,20.45898 47.4121,30.68848 82.4707,30.68848 z m 0.1465,-41.16211 c -7.2266,0 -14.1113,-1.36719 -20.6543,-4.10157 -6.543,-2.73437 -12.2559,-6.98242 -17.1387,-12.74414 -4.8828,-5.76172 -8.8134,-13.20801 -11.792,-22.33886 -2.9785,-9.13086 -4.4677,-20.19043 -4.4677,-33.17872 0,-12.69531 1.538,-23.85253 4.6142,-33.47168 3.0762,-9.61914 7.0557,-17.16308 11.9385,-22.63183 5.2734,-5.85938 11.0596,-10.05859 17.3584,-12.59766 6.2988,-2.53906 13.0127,-3.80859 20.1416,-3.80859 7.0312,0 13.7939,1.31836 20.2881,3.95508 6.4941,2.63672 12.2314,6.88476 17.2119,12.74414 4.8828,5.66406 8.8379,13.08594 11.8652,22.26562 3.0274,9.17969 4.541,20.3125 4.541,33.39844 0,12.20703 -1.3183,22.82715 -3.955,31.86035 -2.6368,9.0332 -6.6895,16.87012 -12.1582,23.51074 -4.8828,5.85938 -10.5957,10.18067 -17.1387,12.96387 -6.543,2.7832 -13.4277,4.17481 -20.6543,4.17481 z M 1481.1113,899 v -96.09375 h 83.0567 V 899 h 56.25 V 680.88477 h -56.25 v 79.83398 h -83.0567 v -79.83398 h -56.25 V 899 Z m 312.8907,0 v -38.67188 h -35.7422 V 719.55664 h 35.7422 v -38.67187 h -127.7344 v 38.67187 h 35.7422 v 140.77148 h -35.7422 V 899 Z m 101.8066,0 v -79.98047 h 25.9277 L 1981.209,899 h 68.7012 l -72.8028,-93.45703 c 13.8672,-6.73828 24.5362,-15.18555 32.0069,-25.3418 7.4707,-10.15625 11.206,-23.29101 11.206,-39.4043 0,-11.71875 -2.417,-21.45996 -7.251,-29.22363 -4.8339,-7.76367 -11.3525,-14.08691 -19.5556,-18.96972 -8.1055,-4.88282 -16.7969,-8.05665 -26.0742,-9.52149 -9.2774,-1.46484 -20.3614,-2.19726 -33.252,-2.19726 v 0 h -94.3359 V 899 Z m 17.2852,-119.23828 h -17.2852 v -58.74024 h 20.3613 c 6.7383,0 12.6465,0.1709 17.7246,0.5127 5.0782,0.3418 9.5215,1.29394 13.3301,2.85644 5.4688,2.2461 9.3262,5.32227 11.5723,9.22852 2.2461,3.90625 3.3691,8.59375 3.3691,14.0625 0,6.15234 -0.9033,11.05957 -2.7099,14.72168 -1.8067,3.66211 -4.6631,7.00684 -8.5694,10.03418 -4.1015,3.125 -9.1797,5.12695 -15.2344,6.00586 -6.0546,0.87891 -13.5742,1.31836 -22.5585,1.31836 z M 2106.8926,899 l 15.0879,-44.0918 h 80.8593 L 2217.9277,899 h 58.1543 l -80.5664,-218.11523 h -64.7461 L 2050.2031,899 Z m 82.3242,-84.08203 h -53.6133 l 26.8067,-78.22266 z M 2384.334,899 c 17.3828,0 32.4219,-1.26953 45.1172,-3.80859 12.6953,-2.53907 24.3652,-7.03125 35.0097,-13.47657 14.1602,-8.59375 25.8789,-20.92285 35.1563,-36.9873 9.2773,-16.06445 13.916,-34.25293 13.916,-54.56543 0,-21.09375 -4.3213,-39.42871 -12.9639,-55.00488 -8.6425,-15.57618 -20.4834,-27.95411 -35.5224,-37.13379 -8.7891,-5.46875 -19.6289,-9.69239 -32.5196,-12.6709 -12.8906,-2.97852 -28.2226,-4.46777 -45.996,-4.46777 v 0 h -79.1016 V 899 Z m -5.6774,-40.86914 h -14.9769 V 721.60742 h 14.209 c 12.1094,0 21.167,0.5127 27.1728,1.53809 6.0059,1.02539 11.8897,2.9541 17.6514,5.78613 11.3281,5.76172 19.6045,13.74512 24.8291,23.9502 5.2246,10.20507 7.8369,22.48535 7.8369,36.84082 0,14.45312 -2.3926,26.58691 -7.1777,36.40136 -4.7852,9.81446 -12.3047,17.65137 -22.5586,23.51075 -5.957,3.22265 -12.0606,5.44433 -18.3106,6.66503 -6.25,1.22071 -16.0644,1.83106 -29.4433,1.83106 z M 2674.3731,899 v -38.67188 h -35.7422 V 719.55664 h 35.7422 v -38.67187 h -127.7344 v 38.67187 h 35.7422 v 140.77148 h -35.7422 V 899 Z m 78.2226,0 15.0879,-44.0918 h 80.8594 L 2863.6309,899 h 58.1543 l -80.5664,-218.11523 h -64.7461 L 2695.9063,899 Z m 82.3242,-84.08203 h -53.6133 l 26.8067,-78.22266 z"
       id="OHIRADIA"
       fill="#000000"
       fill-rule="nonzero" /><g
       id="SVG-curve"
       transform="translate(656,688)"
       fill="#000000"><path
         d="m 146.1202,0 0.37341,0.01164969 0.3734,0.03695382 0.3734,0.06223595 0.3734,0.0874811 0.3734,0.11267416 0.3734,0.13780022 0.3734,0.1628443 0.37341,0.18779152 0.3734,0.21262704 0.3734,0.237336 0.3734,0.2619039 0.3734,0.286316 0.3734,0.3105577 0.37341,0.3346147 0.3734,0.3584726 0.3734,0.3821174 0.3734,0.4055347 0.3734,0.428711 0.3734,0.4516321 0.3734,0.4742845 0.37341,0.496655 0.3734,0.5187299 0.3734,0.5404962 0.3734,0.5619411 0.3734,0.5830517 0.3734,0.6038154 0.37341,0.62422 0.3734,0.6442532 0.3734,0.6639031 0.3734,0.683158 0.3734,0.702007 0.3734,0.720438 0.3734,0.738441 0.37341,0.756004 0.3734,0.773117 0.3734,0.789772 0.3734,0.805955 0.3734,0.821659 0.3734,0.836875 0.37341,0.851593 0.3734,0.865805 0.3734,0.8795 0.3734,0.892674 0.3734,0.905316 0.3734,0.917419 0.3734,0.928977 0.37341,0.939983 0.3734,0.950428 0.3734,0.960309 0.3734,0.969619 0.3734,0.978351 0.3734,0.986502 0.37341,0.994065 0.3734,1.001039 0.3734,1.007415 0.3734,1.013193 0.3734,1.018369 0.3734,1.022937 0.3734,1.026899 0.37341,1.030248 0.3734,1.032985 0.3734,1.035109 0.7468,2.07412 0.3734,1.037778 0.37341,1.037435 0.3734,1.036472 0.3734,1.034895 0.3734,1.032702 0.3734,1.029893 0.3734,1.026473 0.3734,1.022443 0.37341,1.017802 0.3734,1.012558 0.3734,1.006712 0.3734,1.000265 0.3734,0.993224 0.3734,0.985593 0.37341,0.977374 0.3734,0.968576 0.3734,0.959199 0.3734,0.949254 0.3734,0.938743 0.3734,0.927673 0.3734,0.916052 0.37341,0.903887 0.3734,0.891183 0.3734,0.877949 0.3734,0.864193 0.3734,0.849923 0.3734,0.835147 0.37341,0.819875 0.3734,0.804114 0.3734,0.787877 0.3734,0.771168 0.3734,0.754003 0.3734,0.736389 0.37341,0.718336 0.3734,0.699856 0.3734,0.680961 0.3734,0.661659 0.3734,0.641964 0.3734,0.621888 0.3734,0.601441 0.37341,0.580636 0.3734,0.559488 0.3734,0.538004 0.3734,0.516202 0.3734,0.494092 0.3734,0.471689 0.3734,0.449005 0.37341,0.426053 0.3734,0.402849 0.3734,0.379404 0.3734,0.355734 0.3734,0.331853 0.3734,0.307774 0.37341,0.283511 0.3734,0.259081 0.3734,0.234496 0.3734,0.209772 0.3734,0.184922 0.3734,0.159964 0.3734,0.134909 0.37341,0.109774 0.3734,0.08458 L 193.187,85 h 2.077 l 0.14521,-0.02591 0.3734,-0.09239 0.3734,-0.117572 0.3734,-0.142683 0.3734,-0.16771 0.3734,-0.192636 0.37341,-0.217448 0.3734,-0.242131 0.3734,-0.26667 0.3734,-0.29105 0.3734,-0.315256 0.3734,-0.339276 0.37341,-0.363093 0.3734,-0.386695 0.3734,-0.410067 0.3734,-0.433194 0.3734,-0.456064 0.3734,-0.478663 0.3734,-0.500976 0.37341,-0.522993 0.3734,-0.544697 0.3734,-0.566078 0.3734,-0.587122 0.3734,-0.607817 0.3734,-0.62815 0.37341,-0.648109 0.3734,-0.667684 0.3734,-0.68686 0.3734,-0.705628 0.3734,-0.723978 0.3734,-0.741895 0.3734,-0.759371 0.37341,-0.776397 0.3734,-0.792959 0.3734,-0.80905 0.3734,-0.824661 0.3734,-0.83978 0.3734,-0.8544 0.3734,-0.868512 0.37341,-0.882106 0.3734,-0.895177 0.3734,-0.907715 0.3734,-0.919713 0.3734,-0.931163 0.3734,-0.942061 0.37341,-0.952396 0.3734,-0.962167 0.3734,-0.971364 0.3734,-0.979984 0.3734,-0.988021 0.3734,-0.99547 0.3734,-1.002326 0.37341,-1.008588 0.3734,-1.014248 0.3734,-1.019305 0.3734,-1.023757 0.3734,-1.027599 0.3734,-1.030829 0.37341,-1.033447 0.3734,-1.03545 0.3734,-1.036836 0.3734,-1.037607 0.3734,-1.03776 0.3734,-1.037295 0.3734,-1.036214 0.37341,-1.034517 0.3734,-1.032202 0.3734,-1.029276 0.3734,-1.025736 0.3734,-1.021586 0.3734,-1.01683 0.37341,-1.011466 0.3734,-1.005503 0.3734,-0.998941 0.3734,-0.991785 0.3734,-0.984038 0.3734,-0.975707 0.3734,-0.966795 0.37341,-0.957307 0.3734,-0.947251 0.3734,-0.936632 0.3734,-0.925454 0.3734,-0.913726 0.3734,-0.901455 0.37341,-0.888647 0.3734,-0.875312 0.3734,-0.861454 0.3734,-0.847086 0.3734,-0.832212 0.3734,-0.816844 0.3734,-0.80099 0.37341,-0.78466 0.3734,-0.767862 0.3734,-0.750609 0.3734,-0.732907 0.3734,-0.714772 0.3734,-0.696209 0.37341,-0.6772338 0.3734,-0.657855 0.3734,-0.6380849 0.3734,-0.6179353 0.3734,-0.5974182 0.3734,-0.5765455 0.3734,-0.5553301 0.37341,-0.5337842 0.3734,-0.5119208 0.3734,-0.4897529 0.3734,-0.4672936 0.3734,-0.4445565 0.3734,-0.4215548 0.37341,-0.3983023 0.3734,-0.3748131 0.3734,-0.3511007 0.3734,-0.3271795 0.3734,-0.3030638 0.3734,-0.2787677 0.3734,-0.2543058 0.37341,-0.22969265 0.3734,-0.20494283 0.3734,-0.18007113 0.3734,-0.15509229 0.3734,-0.1300212 0.3734,-0.10487278 0.37341,-0.07966196 0.3734,-0.05440376 0.3734,-0.0291132 0.3734,-0.00380532 0.3734,0.02150483 0.3734,0.04680219 0.3734,0.07207169 0.37341,0.0972983 0.3734,0.1224671 0.3734,0.14756301 0.3734,0.17257114 0.3734,0.19747663 0.3734,0.22226463 0.37341,0.2469205 0.3734,0.2714293 0.3734,0.2957768 0.3734,0.3199483 0.3734,0.3439295 0.3734,0.3677061 0.3734,0.3912639 0.37341,0.4145891 0.3734,0.4376675 0.3734,0.4604857 0.3734,0.48303 0.3734,0.5052868 0.3734,0.5272432 0.37341,0.5488858 0.3734,0.5702021 0.3734,0.591179 0.3734,0.6118043 0.3734,0.6320658 0.3734,0.6519512 0.3734,0.6714492 0.37341,0.690547 0.3734,0.709234 0.3734,0.7275 0.3734,0.745332 0.3734,0.762722 0.3734,0.779658 0.37341,0.79613 0.3734,0.812127 0.3734,0.827644 0.3734,0.842666 0.3734,0.857187 0.3734,0.8712 0.37341,0.884693 0.3734,0.89766 0.3734,0.910093 0.3734,0.921985 0.3734,0.933329 0.3734,0.944117 0.3734,0.954343 0.37341,0.964003 0.3734,0.973088 0.3734,0.981594 0.3734,0.989518 0.3734,0.996851 0.3734,1.003593 0.3734,1.009736 0.37341,1.015281 0.3734,1.020219 0.3734,1.024553 0.3734,1.028275 0.3734,1.031387 0.3734,1.033886 0.37341,1.035768 0.3734,1.037035 0.3734,1.037685 0.3734,1.037718 0.3734,1.037133 0.3734,1.035931 0.3734,1.034114 0.37341,1.031681 0.3734,1.028635 0.3734,1.024976 0.3734,1.020707 0.3734,1.015833 0.3734,1.010352 0.37341,1.004273 0.3734,0.997593 0.3734,0.990323 0.3734,0.982462 0.3734,0.974017 0.3734,0.964992 0.3734,0.955395 0.37341,0.945227 0.3734,0.934498 0.3734,0.923214 0.3734,0.911379 0.3734,0.899003 0.3734,0.886092 0.37341,0.872655 0.3734,0.858696 0.3734,0.844229 0.3734,0.829259 0.3734,0.813795 0.3734,0.797848 0.3734,0.781425 0.37341,0.764539 0.3734,0.747196 0.3734,0.729411 0.3734,0.71119 0.3734,0.692547 0.3734,0.673492 0.3734,0.654036 0.37341,0.634191 0.3734,0.613969 0.3734,0.593382 0.3734,0.572441 0.3734,0.551161 0.3734,0.529552 0.37341,0.507628 0.3734,0.485402 0.3734,0.462888 0.3734,0.440099 0.3734,0.417046 0.3734,0.393747 0.3734,0.370214 0.37341,0.346459 0.3734,0.322499 0.3734,0.298347 0.3734,0.274017 0.3734,0.249525 0.3734,0.224884 0.37341,0.20011 0.3734,0.175215 0.3734,0.150218 0.3734,0.12513 0.3734,0.09997 L 289.391,85 H 292 v 28 h -2.614 l -0.25301,0.051 -0.3734,0.1 -0.3734,0.12513 -0.3734,0.15022 -0.3734,0.17521 -0.37341,0.20011 -0.3734,0.22489 -0.3734,0.24952 -0.3734,0.27402 -0.3734,0.29835 -0.3734,0.3225 -0.37341,0.34645 -0.3734,0.37022 -0.3734,0.39374 -0.3734,0.41705 -0.3734,0.4401 -0.3734,0.46289 -0.3734,0.4854 -0.37341,0.50763 -0.3734,0.52955 -0.3734,0.55116 -0.3734,0.57244 -0.3734,0.59338 -0.3734,0.61397 -0.37341,0.63419 -0.3734,0.65404 -0.3734,0.67349 -0.3734,0.69255 -0.3734,0.71119 -0.3734,0.72941 -0.3734,0.7472 -0.37341,0.76453 -0.3734,0.78143 -0.3734,0.79785 -0.3734,0.81379 -0.3734,0.82926 -0.3734,0.84423 -0.3734,0.8587 -0.37341,0.87265 -0.3734,0.88609 -0.3734,0.89901 -0.3734,0.91138 -0.3734,0.92321 -0.3734,0.9345 -0.37341,0.94522 -0.3734,0.9554 -0.3734,0.96499 -0.3734,0.97402 -0.3734,0.98246 -0.3734,0.99032 -0.3734,0.9976 -0.37341,1.00427 -0.3734,1.01035 -0.3734,1.01583 -0.3734,1.02071 -0.3734,1.02498 -0.3734,1.02863 -0.37341,1.03168 -0.3734,1.03412 -0.3734,1.03593 -0.3734,1.03713 -0.3734,1.03772 -0.3734,1.03768 -0.3734,1.03704 -0.37341,1.03577 -0.3734,1.03388 -0.3734,1.03139 -0.3734,1.02828 -0.3734,1.02455 -0.3734,1.02022 -0.37341,1.01528 -0.3734,1.00973 -0.3734,1.0036 -0.3734,0.99685 -0.3734,0.98952 -0.3734,0.98159 -0.3734,0.97309 -0.37341,0.964 -0.3734,0.95434 -0.3734,0.94412 -0.3734,0.93333 -0.3734,0.92199 -0.3734,0.91009 -0.3734,0.89766 -0.37341,0.88469 -0.3734,0.8712 -0.3734,0.85719 -0.3734,0.84266 -0.3734,0.82765 -0.3734,0.81213 -0.37341,0.79613 -0.3734,0.77965 -0.3734,0.76273 -0.3734,0.74533 -0.3734,0.7275 -0.3734,0.70923 -0.37341,0.69055 -0.3734,0.67145 -0.3734,0.65195 -0.3734,0.63206 -0.3734,0.61181 -0.3734,0.59118 -0.3734,0.5702 -0.37341,0.54889 -0.3734,0.52724 -0.3734,0.50529 -0.3734,0.48303 -0.3734,0.46048 -0.3734,0.43767 -0.37341,0.41459 -0.3734,0.39126 -0.3734,0.36771 -0.3734,0.34393 -0.3734,0.31995 -0.3734,0.29577 -0.3734,0.27143 -0.37341,0.24692 -0.3734,0.22227 -0.3734,0.19747 -0.3734,0.17257 -0.3734,0.14757 -0.3734,0.12247 -0.37341,0.0973 -0.3734,0.0721 -0.3734,0.0468 -0.3734,0.0215 -0.3734,-0.004 -0.3734,-0.0291 -0.3734,-0.0544 -0.37341,-0.0797 -0.3734,-0.10487 -0.3734,-0.13003 -0.3734,-0.15509 -0.3734,-0.18007 -0.3734,-0.20494 -0.37341,-0.22969 -0.3734,-0.25431 -0.3734,-0.27877 -0.3734,-0.30306 -0.3734,-0.32718 -0.3734,-0.3511 -0.3734,-0.37482 -0.37341,-0.3983 -0.3734,-0.42155 -0.3734,-0.44456 -0.3734,-0.46729 -0.3734,-0.48976 -0.3734,-0.51192 -0.37341,-0.53378 -0.3734,-0.55533 -0.3734,-0.57655 -0.3734,-0.59741 -0.3734,-0.61794 -0.3734,-0.63808 -0.3734,-0.65786 -0.37341,-0.67723 -0.3734,-0.69621 -0.3734,-0.71477 -0.3734,-0.73291 -0.3734,-0.75061 -0.3734,-0.76786 -0.37341,-0.78466 -0.3734,-0.80099 -0.3734,-0.81685 -0.3734,-0.83221 -0.3734,-0.84708 -0.3734,-0.86146 -0.3734,-0.87531 -0.37341,-0.88865 -0.3734,-0.90145 -0.3734,-0.91373 -0.3734,-0.92545 -0.3734,-0.93663 -0.3734,-0.94726 -0.37341,-0.9573 -0.3734,-0.9668 -0.3734,-0.9757 -0.3734,-0.98404 -0.3734,-0.99179 -0.3734,-0.99894 -0.3734,-1.0055 -0.37341,-1.01147 -0.3734,-1.01683 -0.3734,-1.02158 -0.3734,-1.02574 -0.3734,-1.02928 -0.3734,-1.0322 -0.37341,-1.03451 -0.3734,-1.03622 -0.3734,-1.03729 -0.3734,-1.03776 -0.3734,-1.03761 -0.3734,-1.03684 -0.3734,-1.03545 -0.37341,-1.03344 -0.3734,-1.03083 -0.3734,-1.0276 -0.3734,-1.02376 -0.3734,-1.0193 -0.3734,-1.01425 -0.37341,-1.00859 -0.3734,-1.00233 -0.3734,-0.99547 -0.3734,-0.98802 -0.3734,-0.97998 -0.3734,-0.97136 -0.3734,-0.96217 -0.37341,-0.9524 -0.3734,-0.94206 -0.3734,-0.93116 -0.3734,-0.91971 -0.3734,-0.90772 -0.3734,-0.89518 -0.37341,-0.8821 -0.3734,-0.86851 -0.3734,-0.8544 -0.3734,-0.83978 -0.3734,-0.82467 -0.3734,-0.80905 -0.3734,-0.79295 -0.37341,-0.7764 -0.3734,-0.75937 -0.3734,-0.7419 -0.3734,-0.72397 -0.3734,-0.70563 -0.3734,-0.68686 -0.3734,-0.66769 -0.37341,-0.64811 -0.3734,-0.62815 -0.3734,-0.60781 -0.3734,-0.58712 -0.3734,-0.56608 -0.3734,-0.5447 -0.37341,-0.52299 -0.3734,-0.50098 -0.3734,-0.47866 -0.3734,-0.45607 -0.3734,-0.43319 -0.3734,-0.41007 -0.3734,-0.38669 -0.37341,-0.36309 -0.3734,-0.33928 -0.3734,-0.31526 -0.3734,-0.29105 -0.3734,-0.26667 -0.3734,-0.24213 -0.37341,-0.21745 -0.3734,-0.19263 -0.3734,-0.16771 -0.3734,-0.14269 -0.3734,-0.11757 -0.3734,-0.0924 L 195.269,113 h -2.088 l -0.0122,0.002 -0.3734,0.0846 -0.37341,0.10978 -0.3734,0.13491 -0.3734,0.15996 -0.3734,0.18492 -0.3734,0.20977 -0.3734,0.2345 -0.3734,0.25908 -0.37341,0.28351 -0.3734,0.30778 -0.3734,0.33185 -0.3734,0.35573 -0.3734,0.37941 -0.3734,0.40285 -0.37341,0.42605 -0.3734,0.449 -0.3734,0.47169 -0.3734,0.4941 -0.3734,0.5162 -0.3734,0.538 -0.3734,0.55949 -0.37341,0.58064 -0.3734,0.60144 -0.3734,0.62189 -0.3734,0.64196 -0.3734,0.66166 -0.3734,0.68096 -0.3734,0.69986 -0.37341,0.71833 -0.3734,0.73639 -0.3734,0.754 -0.3734,0.77117 -0.3734,0.78788 -0.3734,0.80411 -0.37341,0.81988 -0.3734,0.83514 -0.3734,0.84993 -0.3734,0.86419 -0.3734,0.87795 -0.3734,0.89118 -0.37341,0.90389 -0.3734,0.91605 -0.3734,0.92767 -0.3734,0.93875 -0.3734,0.94925 -0.3734,0.9592 -0.3734,0.96858 -0.37341,0.97737 -0.3734,0.98559 -0.3734,0.99323 -0.3734,1.00026 -0.3734,1.00671 -0.3734,1.01256 -0.37341,1.0178 -0.3734,1.02245 -0.3734,1.02647 -0.3734,1.02989 -0.3734,1.03271 -0.3734,1.03489 -0.3734,1.03647 -0.37341,1.03744 -0.3734,1.03778 -0.7468,2.07411 -0.3734,1.03511 -0.3734,1.03299 -0.37341,1.03025 -0.3734,1.0269 -0.3734,1.02293 -0.3734,1.01837 -0.3734,1.01319 -0.3734,1.00742 -0.3734,1.00104 -0.37341,0.99406 -0.3734,0.98651 -0.3734,0.97835 -0.3734,0.96962 -0.3734,0.9603 -0.3734,0.95043 -0.37341,0.93999 -0.3734,0.92897 -0.3734,0.91742 -0.3734,0.90532 -0.3734,0.89267 -0.3734,0.8795 -0.3734,0.86581 -0.37341,0.85159 -0.3734,0.83687 -0.3734,0.82166 -0.3734,0.80596 -0.3734,0.78977 -0.3734,0.77312 -0.37341,0.756 -0.3734,0.73844 -0.3734,0.72044 -0.3734,0.70201 -0.3734,0.68316 -0.3734,0.6639 -0.3734,0.64425 -0.37341,0.62422 -0.3734,0.60382 -0.3734,0.58305 -0.3734,0.56194 -0.3734,0.5405 -0.3734,0.51873 -0.37341,0.49665 -0.3734,0.47429 -0.3734,0.45163 -0.3734,0.42871 -0.3734,0.40553 -0.3734,0.38212 -0.3734,0.35847 -0.37341,0.33462 -0.3734,0.31056 -0.3734,0.28631 -0.3734,0.26191 -0.3734,0.23733 -0.3734,0.21263 -0.37341,0.18779 -0.3734,0.16284 -0.3734,0.1378 -0.3734,0.11268 -0.3734,0.0875 -0.3734,0.0622 -0.3734,0.0369 -0.37341,0.0117 -0.3734,-0.0137 -0.3734,-0.039 -0.3734,-0.0642 -0.3734,-0.0895 -0.3734,-0.11467 -0.37341,-0.13979 -0.3734,-0.16483 -0.3734,-0.18977 -0.3734,-0.2146 -0.3734,-0.23929 -0.3734,-0.26385 -0.3734,-0.28825 -0.37341,-0.31248 -0.3734,-0.33652 -0.3734,-0.36036 -0.3734,-0.38399 -0.3734,-0.40738 -0.3734,-0.43054 -0.37341,-0.45345 -0.3734,-0.47607 -0.3734,-0.49842 -0.3734,-0.52047 -0.3734,-0.54221 -0.3734,-0.56364 -0.3734,-0.58471 -0.37341,-0.60545 -0.3734,-0.62583 -0.3734,-0.64583 -0.3734,-0.66544 -0.3734,-0.68468 -0.3734,-0.70348 -0.37341,-0.72189 -0.3734,-0.73985 -0.3734,-0.75738 -0.3734,-0.77446 -0.3734,-0.79107 -0.3734,-0.80723 -0.3734,-0.82288 -0.37341,-0.83807 -0.3734,-0.85274 -0.3734,-0.86691 -0.3734,-0.88057 -0.3734,-0.89369 -0.3734,-0.9063 -0.3734,-0.91836 -0.37341,-0.92987 -0.3734,-0.94083 -0.3734,-0.95124 -0.3734,-0.96107 -0.3734,-0.97033 -0.3734,-0.97902 -0.3734,-0.98713 -0.37341,-0.99464 -0.3734,-1.00157 -0.3734,-1.00789 -0.3734,-1.01363 -0.3734,-1.01875 -0.3734,-1.02328 -0.37341,-1.02718 -0.3734,-1.03049 -0.3734,-1.03318 -0.3734,-1.03525 -0.3734,-1.03671 -0.74681,-2.07532 -0.3734,-1.03738 -0.3734,-1.03637 -0.3734,-1.03475 -0.3734,-1.0325 -0.3734,-1.02964 -0.3734,-1.02617 -0.37341,-1.0221 -0.3734,-1.01741 -0.3734,-1.01211 -0.3734,-1.00622 -0.3734,-0.99973 -0.3734,-0.99264 -0.37341,-0.98496 -0.3734,-0.9767 -0.3734,-0.96785 -0.3734,-0.95843 -0.3734,-0.94844 -0.3734,-0.93788 -0.3734,-0.92677 -0.37341,-0.91511 -0.3734,-0.90289 -0.3734,-0.89015 -0.3734,-0.87688 -0.3734,-0.86308 -0.3734,-0.84876 -0.3734,-0.83395 -0.37341,-0.81864 -0.3734,-0.80285 -0.3734,-0.78656 -0.3734,-0.76982 -0.3734,-0.75262 -0.3734,-0.73497 -0.37341,-0.71688 -0.3734,-0.69837 -0.3734,-0.67944 -0.3734,-0.66011 -0.3734,-0.64038 -0.3734,-0.62028 -0.3734,-0.5998 -0.37341,-0.57897 -0.3734,-0.55779 -0.3734,-0.53628 -0.3734,-0.51446 -0.3734,-0.49232 -0.3734,-0.4699 -0.37341,-0.44719 -0.3734,-0.42421 -0.3734,-0.401 -0.3734,-0.37753 -0.3734,-0.35384 -0.3734,-0.32995 -0.3734,-0.30585 -0.37341,-0.28158 -0.3734,-0.25713 -0.3734,-0.23253 -0.3734,-0.20781 -0.3734,-0.18294 -0.3734,-0.15797 -0.373406,-0.13292 L 99.445013,113.0789 99.089,113 h -2.085 l -0.172798,0.0323 -0.373401,0.0944 -0.373402,0.11957 -0.373402,0.14467 -0.373401,0.1697 -0.373402,0.19461 -0.373401,0.21942 -0.373402,0.24408 -0.373401,0.26862 -0.373402,0.29298 -0.373401,0.31717 -0.373402,0.34118 -0.373401,0.36497 -0.373402,0.38856 -0.373401,0.41192 -0.373402,0.43502 -0.373401,0.45787 -0.373402,0.48045 -0.373402,0.50273 -0.373401,0.52473 -0.373402,0.54641 -0.373401,0.56777 -0.373402,0.58878 -0.373401,0.60944 -0.373402,0.62975 -0.373401,0.64968 -0.373402,0.66922 -0.373401,0.68837 -0.373402,0.7071 -0.373402,0.72542 -0.373401,0.7433 -0.373402,0.76074 -0.373401,0.77773 -0.373402,0.79426 -0.373401,0.81031 -0.373402,0.82588 -0.373401,0.84096 -0.373402,0.85554 -0.373401,0.86961 -0.373402,0.88316 -0.373401,0.8962 -0.373402,0.90868 -0.373401,0.92065 -0.373402,0.93205 -0.373402,0.9429 -0.373401,0.95319 -0.373402,0.96292 -0.373401,0.97207 -0.373402,0.98065 -0.373401,0.98863 -0.373402,0.99604 -0.373401,1.00284 -0.373402,1.00906 -0.373401,1.01468 -0.373402,1.01968 -0.373401,1.02408 -0.373402,1.02788 -0.373401,1.03106 -0.373402,1.03363 -0.373402,1.03558 -0.373401,1.03692 -0.373402,1.03764 -0.373401,1.03775 -0.373402,1.03723 -0.373401,1.0361 -0.373402,1.03436 -0.373401,1.03199 -0.373402,1.02902 -0.373401,1.02542 -0.373402,1.02123 -0.373401,1.01643 -0.373402,1.01101 -0.373401,1.00501 -0.373402,0.99839 -0.373402,0.99119 -0.373401,0.9834 -0.373402,0.97502 -0.373401,0.96606 -0.373402,0.95653 -0.373401,0.94643 -0.373402,0.93576 -0.373401,0.92454 -0.373402,0.91277 -0.373401,0.90046 -0.373402,0.88761 -0.373401,0.87422 -0.373402,0.86034 -0.373401,0.84592 -0.373402,0.83101 -0.373401,0.8156 -0.373402,0.79971 -0.373402,0.78334 -0.373401,0.76651 -0.373402,0.74921 -0.373401,0.73149 -0.373402,0.71331 -0.373401,0.69471 -0.373402,0.67571 -0.373401,0.6563 -0.373402,0.6365 -0.373401,0.61631 -0.373402,0.59578 -0.373402,0.57487 -0.373401,0.55363 -0.373402,0.53206 -0.373401,0.51017 -0.373402,0.48797 -0.373401,0.4655 -0.373402,0.44274 -0.373401,0.41971 -0.373402,0.39645 -0.373401,0.37293 -0.373402,0.34921 -0.373401,0.32527 -0.373402,0.30114 -0.373401,0.27683 -0.373402,0.25235 -0.373402,0.22773 -0.373401,0.20297 -0.373402,0.17809 -0.373401,0.15311 -0.373402,0.12802 -0.373401,0.10287 -0.373402,0.0777 -0.373401,0.0524 -0.373402,0.0271 -0.373401,0.002 -0.373402,-0.0235 -0.373401,-0.0488 -0.373402,-0.0741 -0.373401,-0.0993 -0.373402,-0.12446 -0.373401,-0.14956 -0.373402,-0.17455 -0.373402,-0.19945 -0.373401,-0.22423 -0.373402,-0.24888 -0.373401,-0.27337 -0.373402,-0.2977 -0.373401,-0.32186 -0.373402,-0.34583 -0.373401,-0.36959 -0.373402,-0.39312 -0.373401,-0.41644 -0.373402,-0.43949 -0.373402,-0.46229 -0.373401,-0.4848 -0.373402,-0.50705 -0.373401,-0.52897 -0.373402,-0.5506 -0.373401,-0.57188 -0.373402,-0.59283 -0.373401,-0.61343 -0.373402,-0.63366 -0.373401,-0.65351 -0.373402,-0.67298 -0.373401,-0.69205 -0.373402,-0.7107 -0.373401,-0.72894 -0.373402,-0.74673 -0.373402,-0.76408 -0.373401,-0.78099 -0.373402,-0.79741 -0.373401,-0.81338 -0.373402,-0.82886 -0.373401,-0.84384 -0.373402,-0.85832 -0.373401,-0.87229 -0.373402,-0.88574 -0.373401,-0.89867 -0.373402,-0.91106 -0.373401,-0.9229 -0.373402,-0.93421 -0.373401,-0.94495 -0.373402,-0.95513 -0.373401,-0.96475 -0.373402,-0.97378 -0.373402,-0.98225 -0.373401,-0.99012 -0.373402,-0.99741 -0.373401,-1.0041 -0.373402,-1.0102 -0.373401,-1.0157 -0.373402,-1.02058 -0.373401,-1.02488 -0.373402,-1.02854 -0.373401,-1.03161 -0.373402,-1.03406 -0.373401,-1.03589 -0.373402,-1.03711 -0.373402,-1.03771 -0.373401,-1.03769 -0.373402,-1.03706 -0.373401,-1.03581 -0.373402,-1.03394 -0.373401,-1.03147 -0.373402,-1.02836 -0.373401,-1.02466 -0.373402,-1.02034 -0.373401,-1.01542 -0.373402,-1.00989 -0.373401,-1.00377 -0.373402,-0.99703 -0.373402,-0.98972 -0.373401,-0.98181 -0.373402,-0.97333 -0.373401,-0.96425 -0.373402,-0.9546 -0.373401,-0.9444 -0.373402,-0.93362 -0.373401,-0.92229 -0.373402,-0.91042 -0.373401,-0.89799 -0.373402,-0.88505 -0.373401,-0.87156 -0.373402,-0.85757 -0.373401,-0.84305 -0.373402,-0.82805 -0.373401,-0.81255 -0.373402,-0.79656 -0.373401,-0.7801 -0.373402,-0.76317 -0.373402,-0.7458 -0.373401,-0.72798 -0.373402,-0.70972 -0.373401,-0.69105 -0.373402,-0.67196 -0.373401,-0.65247 -0.373402,-0.6326 -0.373401,-0.61235 -0.373402,-0.59173 -0.373401,-0.57076 -0.373402,-0.54945 L 9.8286445,118.55329 9.455243,118.04741 9.0818414,117.56379 8.7084399,117.1027 8.3350384,116.66443 7.9616368,116.24922 7.5882353,115.85734 7.2148338,115.48901 6.8414322,115.14444 6.4680307,114.82386 6.0946292,114.52744 5.7212276,114.25536 5.3478261,114.00779 4.9744245,113.78487 4.601023,113.58674 4.2276215,113.4135 3.85422,113.26528 3.4808184,113.14214 3.1074169,113.04418 2.882,113 H 0 V 85 H 2.877 L 3.1074169,84.955823 3.4808184,84.857857 3.85422,84.734724 4.2276215,84.586498 4.601023,84.413265 4.9744245,84.21513 5.3478261,83.992211 5.7212276,83.744639 6.0946292,83.472562 6.4680307,83.176143 6.8414322,82.855557 7.2148338,82.510995 7.5882353,82.142662 7.9616368,81.750777 8.3350384,81.335573 8.7084399,80.897297 9.0818414,80.436211 9.455243,79.952587 l 0.3734015,-0.505872 0.3734015,-0.527821 0.373402,-0.549455 0.373401,-0.570762 0.373402,-0.59173 0.373401,-0.612346 0.373402,-0.632597 0.373401,-0.652473 0.373402,-0.67196 0.373401,-0.691048 0.373402,-0.709723 0.373401,-0.727978 0.373402,-0.745799 0.373402,-0.763177 0.373401,-0.7801 0.373402,-0.79656 0.373401,-0.812545 0.373402,-0.828047 0.373401,-0.843058 0.373402,-0.857565 0.373401,-0.871564 0.373402,-0.885043 0.373401,-0.897996 0.373402,-0.910416 0.373401,-0.922293 0.373402,-0.933622 0.373401,-0.944395 0.373402,-0.954606 0.373401,-0.964251 0.373402,-0.973321 0.373401,-0.981812 0.373402,-0.989719 0.373402,-0.997038 0.373401,-1.003763 0.373402,-1.009891 0.373401,-1.015419 0.373402,-1.020342 0.373401,-1.024659 0.373402,-1.028366 0.373401,-1.031461 0.373402,-1.033943 0.373401,-1.03581 0.373402,-1.03706 0.373401,-1.037694 0.373402,-1.03771 0.373402,-1.03711 0.373401,-1.035891 0.373402,-1.034058 0.373401,-1.031608 0.373402,-1.028545 0.373401,-1.024871 0.373402,-1.020586 0.373401,-1.015695 0.373402,-1.010199 0.373401,-1.004103 0.373402,-0.997409 0.373401,-0.990122 0.373402,-0.982246 0.373402,-0.973785 0.373401,-0.964746 0.373402,-0.955132 0.373401,-0.94495 0.373402,-0.934207 0.373401,-0.922907 0.373402,-0.911058 0.373401,-0.898668 0.373402,-0.885743 0.373401,-0.872291 0.373402,-0.85832 0.373401,-0.843839 0.373402,-0.828855 0.373401,-0.813379 0.373402,-0.797418 0.373401,-0.780984 0.373402,-0.764085 0.373402,-0.746731 0.373401,-0.728934 0.373402,-0.710701 0.373401,-0.692048 0.373402,-0.6729812 0.373401,-0.6535153 0.373402,-0.6336602 0.373401,-0.6134282 0.373402,-0.5928314 0.373401,-0.5718819 0.373402,-0.5505922 0.373401,-0.5289751 0.373402,-0.5070431 0.373401,-0.4848096 0.373402,-0.4622878 0.373402,-0.4394909 0.373401,-0.4164326 0.373402,-0.3931266 0.373401,-0.3695866 0.373402,-0.345827 0.373401,-0.3218615 0.373402,-0.2977046 0.373401,-0.2733707 0.373402,-0.248874 0.373401,-0.22422932 0.373402,-0.19945131 0.373402,-0.17455464 0.373401,-0.14955411 0.373402,-0.12446463 0.373401,-0.0993011 0.373402,-0.07407852 0.373401,-0.04881187 0.373402,-0.02351618 0.373401,0.0017935 0.373402,0.02710211 0.373401,0.05239461 0.373402,0.07765592 0.373401,0.10287106 0.373402,0.12802499 0.373401,0.15310277 0.373402,0.17808948 0.373401,0.20297025 0.373402,0.22773029 0.373402,0.2523548 0.373401,0.2768293 0.373402,0.3011391 0.373401,0.3252697 0.373402,0.3492069 0.373401,0.3729363 0.373402,0.3964438 0.373401,0.4197157 0.373402,0.4427377 0.373401,0.4654965 0.373402,0.4879782 0.373401,0.5101699 0.373402,0.5320578 0.373401,0.5536295 0.373402,0.5748717 0.373402,0.595772 0.373401,0.6163179 0.373402,0.6364971 0.373401,0.6562977 0.373402,0.6757076 0.373401,0.694717 0.373402,0.713311 0.373401,0.731482 0.373402,0.749218 0.373401,0.766507 0.373402,0.783342 0.373402,0.799709 0.373401,0.815602 0.373402,0.831009 0.373401,0.845921 0.373402,0.860332 0.373401,0.874229 0.373402,0.887606 0.373401,0.900457 0.373402,0.912771 0.373401,0.924541 0.373402,0.935763 0.373401,0.946428 0.373402,0.956529 0.373401,0.966062 0.373402,0.975019 0.373401,0.983398 0.373402,0.99119 0.373402,0.998394 0.373401,1.005003 0.373402,1.011015 0.373401,1.016425 0.373402,1.02123 0.373401,1.025429 0.373402,1.029017 0.373401,1.031992 0.373402,1.034355 0.373401,1.036102 0.373402,1.037231 0.373401,1.037746 0.373402,1.037641 0.373401,1.036921 0.373402,1.035583 0.373402,1.033628 0.373401,1.03106 0.373402,1.027878 0.373401,1.024084 0.373402,1.019682 0.373401,1.014672 0.373402,1.009059 0.373401,1.002846 0.373402,0.996037 0.373401,0.988634 0.373402,0.980645 0.373401,0.97207 0.373402,0.962919 0.373401,0.953194 0.373402,0.942902 0.373402,0.93205 0.373401,0.920643 0.373402,0.908688 0.373401,0.896193 0.373402,0.883165 0.373401,0.869611 0.373402,0.855541 0.373401,0.84096 0.373402,0.825881 0.373401,0.810309 0.373402,0.794255 0.373401,0.77773 0.373402,0.760742 0.373401,0.7433 0.373402,0.725417 0.373402,0.707102 0.373401,0.688368 0.373402,0.669222 0.373401,0.64968 0.373402,0.62975 0.373401,0.609446 0.373402,0.58878 0.373401,0.567763 0.373402,0.546409 0.373401,0.524729 0.373402,0.502737 0.373402,0.480447 0.373401,0.45787 0.373402,0.435022 0.373401,0.411914 0.373402,0.388561 0.373401,0.364977 0.373402,0.341177 0.373401,0.317172 0.373402,0.292981 0.373401,0.268613 0.373402,0.244087 0.373401,0.219415 0.373402,0.194613 0.373401,0.169694 0.373402,0.144676 0.373402,0.119571 0.373401,0.09439 L 97.009,85 h 2.076 l 0.360013,-0.07933 0.373401,-0.107774 0.373406,-0.132914 0.3734,-0.157975 0.3734,-0.182943 0.3734,-0.207801 0.3734,-0.232535 0.3734,-0.257133 0.37341,-0.281575 0.3734,-0.305852 0.3734,-0.329946 0.3734,-0.353844 0.3734,-0.377531 0.3734,-0.400994 0.3734,-0.424218 0.37341,-0.44719 0.3734,-0.469896 0.3734,-0.492322 0.3734,-0.514455 0.3734,-0.536284 0.3734,-0.557791 0.37341,-0.578968 0.3734,-0.599801 0.3734,-0.620276 0.3734,-0.640382 0.3734,-0.660108 0.3734,-0.679441 0.3734,-0.698369 0.37341,-0.716883 0.3734,-0.73497 0.3734,-0.752619 0.3734,-0.769821 0.3734,-0.786565 0.3734,-0.802842 0.37341,-0.81864 0.3734,-0.833951 0.3734,-0.848767 0.3734,-0.863077 0.3734,-0.876875 0.3734,-0.89015 0.3734,-0.902897 0.37341,-0.915105 0.3734,-0.92677 0.3734,-0.937883 0.3734,-0.948439 0.3734,-0.95843 0.3734,-0.967851 0.3734,-0.976696 0.37341,-0.984961 0.3734,-0.992639 0.3734,-0.999728 0.3734,-1.00622 0.3734,-1.012116 0.3734,-1.017408 0.37341,-1.022095 0.3734,-1.026175 0.3734,-1.029644 0.3734,-1.032501 0.3734,-1.034743 0.3734,-1.03637 0.3734,-1.037381 0.74681,-2.075323 0.3734,-1.036708 0.3734,-1.035251 0.3734,-1.033176 0.3734,-1.030489 0.37341,-1.027187 0.3734,-1.023274 0.3734,-1.018754 0.3734,-1.013627 0.3734,-1.007896 0.3734,-1.001567 0.37341,-0.994642 0.3734,-0.987124 0.3734,-0.979021 0.3734,-0.970334 0.3734,-0.96107 0.3734,-0.951234 0.3734,-0.940833 0.37341,-0.929873 0.3734,-0.918358 0.3734,-0.906297 0.3734,-0.893698 0.3734,-0.880567 0.3734,-0.866912 0.3734,-0.852741 0.37341,-0.838063 0.3734,-0.822887 0.3734,-0.807221 0.3734,-0.791075 0.3734,-0.774458 0.3734,-0.757381 0.3734,-0.739853 0.37341,-0.721885 0.3734,-0.703487 0.3734,-0.684671 0.3734,-0.6654485 0.3734,-0.6458292 0.3734,-0.625826 0.37341,-0.6054505 0.3734,-0.5847149 0.3734,-0.5636314 0.3734,-0.5422126 0.3734,-0.5204714 0.3734,-0.4984205 0.3734,-0.4760731 0.37341,-0.4534426 0.3734,-0.4305423 0.3734,-0.4073858 0.3734,-0.3839871 0.3734,-0.36036 0.3734,-0.3365184 0.37341,-0.3124768 0.3734,-0.2882491 0.3734,-0.2638501 0.3734,-0.2392941 0.3734,-0.21459582 0.3734,-0.18976977 0.3734,-0.1648309 0.37341,-0.13979396 0.3734,-0.11467388 0.3734,-0.0894856 0.3734,-0.06424404 0.3734,-0.03896429 z"
         id="path2" /></g></g><metadata
     id="metadata2"><rdf:RDF><cc:Work
         rdf:about=""><dc:title>Page 1</dc:title></cc:Work></rdf:RDF></metadata></svg>
