<?xml version="1.0" standalone="no"?>
<svg style="background: #fff" xmlns="http://www.w3.org/2000/svg" xmlns:xlink="http://www.w3.org/1999/xlink" version="1.1" width="632px" height="548px" viewBox="-0.5 -0.5 632 548"><defs><style>* {margin: 0px; padding: 0px;}</style></defs><g><path d="M 92 279 L 92 303 L 92 361.63" fill="none" stroke="#000000" stroke-miterlimit="10" pointer-events="none"/><path d="M 92 366.88 L 88.5 359.88 L 92 361.63 L 95.5 359.88 Z" fill="#000000" stroke="#000000" stroke-miterlimit="10" pointer-events="none"/><path d="M 82 50.5 L 82 74.63" fill="none" stroke="#000000" stroke-miterlimit="10" pointer-events="none"/><path d="M 82 79.88 L 78.5 72.88 L 82 74.63 L 85.5 72.88 Z" fill="#000000" stroke="#000000" stroke-miterlimit="10" pointer-events="none"/><rect x="35" y="141" width="121" height="44" rx="3.08" ry="3.08" fill="#ff66b3" stroke="#000000" pointer-events="none"/><g fill="#000000" font-family="Helvetica" text-anchor="middle" font-size="12px"><text x="95" y="159.5">Query: </text><text x="95" y="173.5">filename</text></g><path d="M 142 399 L 162 399 L 162 400 L 162 393.63" fill="none" stroke="#000000" stroke-miterlimit="10" pointer-events="none"/><path d="M 162 398.88 L 158.5 391.88 L 162 393.63 L 165.5 391.88 Z" fill="#000000" stroke="#000000" stroke-miterlimit="10" pointer-events="none"/><path d="M 92 368.5 L 142 398.5 L 92 428.5 L 42 398.5 Z" fill="#ffffff" stroke="#000000" stroke-miterlimit="10" pointer-events="none"/><g fill="#000000" font-family="Helvetica" text-anchor="middle" font-size="12px"><text x="91.5" y="395">extension </text><text x="91.5" y="409">== 'dat'</text></g><rect x="25" y="255" width="134" height="22" rx="1.32" ry="1.32" fill="#66ff66" stroke="#000000" pointer-events="none"/><path d="M 43.76 255 L 43.76 277 M 140.24 255 L 140.24 277" fill="none" stroke="#000000" stroke-miterlimit="10" pointer-events="none"/><g fill="#000000" font-family="Helvetica" text-anchor="middle" font-size="12px"><text x="91.5" y="269.5">set standardpaths</text></g><path d="M 173 441 L 155.5 441 L 155.5 571 L 173 571" fill="none" stroke="#000000" stroke-miterlimit="10" transform="rotate(-90,155.5,506)" pointer-events="none"/><path d="M 138 506 L 155.5 506" fill="none" stroke="#000000" stroke-miterlimit="10" transform="rotate(-90,155.5,506)" pointer-events="none"/><ellipse cx="82" cy="30.5" rx="50" ry="30" fill="#ffe599" stroke="#000000" pointer-events="none"/><g fill="#000000" font-family="Helvetica" text-anchor="middle" font-size="12px"><text x="81.5" y="34">FileOpen</text></g><path d="M 3 80 L 145.2 80 L 145.2 80 L 161 95 L 145.2 110 L 145.2 110 L 3 110 L 18.8 95 Z" fill="#ffff99" stroke="#000000" stroke-miterlimit="10" pointer-events="none"/><g fill="#000000" font-family="Helvetica" text-anchor="middle" font-size="12px"><text x="81.5" y="91.5">Relay to resampler</text><text x="81.5" y="105.5">enable resampling Tab</text></g><path d="M 2 111 L 201.8 111 L 201.8 111 L 224 126 L 201.8 141 L 201.8 141 L 2 141 L 24.2 126 Z" fill="#ff99cc" stroke="#000000" stroke-miterlimit="10" pointer-events="none"/><g fill="#000000" font-family="Helvetica" text-anchor="middle" font-size="12px"><text x="112.5" y="122.5">Relay to all</text><text x="112.5" y="136.5">m["ismetadata"], m["metadata"]</text></g><path d="M 92 235 L 92 248.63" fill="none" stroke="#000000" stroke-miterlimit="10" pointer-events="none"/><path d="M 92 253.88 L 88.5 246.88 L 92 248.63 L 95.5 246.88 Z" fill="#000000" stroke="#000000" stroke-miterlimit="10" pointer-events="none"/><path d="M 7 185 L 166.3 185 L 166.3 185 L 184 210 L 166.3 235 L 166.3 235 L 7 235 L 24.7 210 Z" fill="#ff99cc" stroke="#000000" stroke-miterlimit="10" pointer-events="none"/><g fill="#000000" font-family="Helvetica" text-anchor="middle" font-size="12px"><text x="95" y="199.5">Relay to all</text><text x="95" y="213.5">filename, stem, extension, </text><text x="95" y="227.5">temp_directoryname</text></g><path d="M 13 292.5 L 155.2 292.5 L 155.2 292.5 L 171 307.5 L 155.2 322.5 L 155.2 322.5 L 13 322.5 L 28.8 307.5 Z" fill="#ffff99" stroke="#000000" stroke-miterlimit="10" pointer-events="none"/><g fill="#000000" font-family="Helvetica" text-anchor="middle" font-size="12px"><text x="91.5" y="304">Relay to all</text><text x="91.5" y="318">reset GUI</text></g><rect x="30" y="327" width="121" height="31" rx="2.17" ry="2.17" fill="#ffffff" stroke="#000000" pointer-events="none"/><g fill="#000000" font-family="Helvetica" text-anchor="middle" font-size="12px"><text x="90" y="346">create temp dirctory</text></g><path d="M 220 415 L 220 482.63" fill="none" stroke="#000000" stroke-miterlimit="10" pointer-events="none"/><path d="M 220 487.88 L 216.5 480.88 L 220 482.63 L 223.5 480.88 Z" fill="#000000" stroke="#000000" stroke-miterlimit="10" pointer-events="none"/><rect x="159" y="385" width="122" height="30" rx="1.8" ry="1.8" fill="#66ff66" stroke="#000000" pointer-events="none"/><path d="M 176.08 385 L 176.08 415 M 263.92 385 L 263.92 415" fill="none" stroke="#000000" stroke-miterlimit="10" pointer-events="none"/><g fill="#000000" font-family="Helvetica" text-anchor="middle" font-size="12px"><text x="219.5" y="396.5">dat_</text><text x="219.5" y="410.5">extractinfo4wavheader</text></g><path d="M 89.93 463 L 91 463 L 91 492.63" fill="none" stroke="#000000" stroke-miterlimit="10" pointer-events="none"/><path d="M 91 497.88 L 87.5 490.88 L 91 492.63 L 94.5 490.88 Z" fill="#000000" stroke="#000000" stroke-miterlimit="10" pointer-events="none"/><rect x="0.5" y="452" width="180" height="22" rx="1.32" ry="1.32" fill="#66ff66" stroke="#000000" pointer-events="none"/><path d="M 25.7 452 L 25.7 474 M 155.3 452 L 155.3 474" fill="none" stroke="#000000" stroke-miterlimit="10" pointer-events="none"/><g fill="#000000" font-family="Helvetica" text-anchor="middle" font-size="12px"><text x="90" y="466.5">get_sdruno_header</text></g><path d="M 136 374 L 166 374 L 166 388 L 136 388 L 136 374 Z" fill="#ffffff" stroke="none" pointer-events="none"/><path d="M 137.25 375.17 L 137.25 386.83 L 137.25 386.83 L 164.75 386.83 L 164.75 375.17 L 137.25 375.17" fill="#ffffff" stroke="none" pointer-events="none"/><path d="M 136 374 L 166 374 L 166 388 L 136 388 L 136 374 Z" fill="none" stroke="#000000" stroke-miterlimit="10" pointer-events="none"/><g fill="#000000" font-family="Helvetica" text-anchor="middle" font-size="12px"><text x="150.5" y="384.5">yes</text></g><path d="M 106 421.5 L 136 421.5 L 136 435.5 L 106 435.5 L 106 421.5 Z" fill="#ffffff" stroke="none" pointer-events="none"/><path d="M 107.25 422.67 L 107.25 434.33 L 107.25 434.33 L 134.75 434.33 L 134.75 422.67 L 107.25 422.67" fill="#ffffff" stroke="none" pointer-events="none"/><path d="M 106 421.5 L 136 421.5 L 136 435.5 L 106 435.5 L 106 421.5 Z" fill="none" stroke="#000000" stroke-miterlimit="10" pointer-events="none"/><g fill="#000000" font-family="Helvetica" text-anchor="middle" font-size="12px"><text x="120.5" y="432">no</text></g><path d="M 92.09 428.05 L 92.02 445.63" fill="none" stroke="#000000" stroke-miterlimit="10" pointer-events="none"/><path d="M 92 450.88 L 88.53 443.87 L 92.02 445.63 L 95.53 443.9 Z" fill="#000000" stroke="#000000" stroke-miterlimit="10" pointer-events="none"/><path d="M 238.76 490.39 C 221.67 482.09 220 468.44 234.95 459.12 C 249.89 449.8 276.36 448 295.52 455.01 C 314.68 462.01 320 475.42 307.7 485.71 C 295.4 495.99 269.67 499.64 248.81 494.06 C 244.12 500.97 236.55 505.36 228.25 506 C 233.47 502.2 237.19 496.67 238.76 490.39 Z" fill="#ffffff" stroke="#000000" stroke-miterlimit="15" pointer-events="none"/><g fill="#000000" font-family="Helvetica" text-anchor="middle" font-size="12px"><text x="269.5" y="466.5">internal</text><text x="269.5" y="480.5">wavheader</text><text x="269.5" y="494.5">generated</text></g><path d="M 379.5 139.5 L 502.8 139.5 L 502.8 139.5 L 516.5 154 L 502.8 168.5 L 502.8 168.5 L 379.5 168.5 L 393.2 154 Z" fill="#ff99cc" stroke="#000000" stroke-miterlimit="10" pointer-events="none"/><g fill="#000000" font-family="Helvetica" text-anchor="middle" font-size="12px"><text x="447.5" y="150.5">Relay to all</text><text x="447.5" y="164.5">m["wavheader"]</text></g><path d="M 383.5 170.5 L 506.8 170.5 L 506.8 170.5 L 520.5 185 L 506.8 199.5 L 506.8 199.5 L 383.5 199.5 L 397.2 185 Z" fill="#ff99cc" stroke="#000000" stroke-miterlimit="10" pointer-events="none"/><g fill="#000000" font-family="Helvetica" text-anchor="middle" font-size="12px"><text x="451.5" y="181.5">Relay to waveditor</text><text x="451.5" y="195.5">m["filetype"]</text></g><path d="M 458 230.5 L 458 251 L 458 237 L 458 250.63" fill="none" stroke="#000000" stroke-miterlimit="10" pointer-events="none"/><path d="M 458 255.88 L 454.5 248.88 L 458 250.63 L 461.5 248.88 Z" fill="#000000" stroke="#000000" stroke-miterlimit="10" pointer-events="none"/><path d="M 340.5 200.5 L 552 200.5 L 552 200.5 L 575.5 215.5 L 552 230.5 L 552 230.5 L 340.5 230.5 L 364 215.5 Z" fill="#ff99cc" stroke="#000000" stroke-miterlimit="10" pointer-events="none"/><g fill="#000000" font-family="Helvetica" text-anchor="middle" font-size="12px"><text x="457.5" y="212">Relay to playrec, resample</text><text x="457.5" y="226">m["addplaylistitem"], m["fillplaylist"]</text></g><path d="M 459.31 289.5 L 463 290 L 463 299.63" fill="none" stroke="#000000" stroke-miterlimit="10" pointer-events="none"/><path d="M 463 304.88 L 459.5 297.88 L 463 299.63 L 466.5 297.88 Z" fill="#000000" stroke="#000000" stroke-miterlimit="10" pointer-events="none"/><rect x="359.5" y="256.5" width="201" height="33" rx="2.31" ry="2.31" fill="#ffffff" stroke="#000000" pointer-events="none"/><g fill="#000000" font-family="Helvetica" text-anchor="middle" font-size="12px"><text x="459.5" y="269.5">determine readoffset</text><text x="459.5" y="283.5">from wav type (rcvr, auxi)</text></g><path d="M 346.5 383.5 L 558 383.5 L 558 383.5 L 581.5 398.5 L 558 413.5 L 558 413.5 L 346.5 413.5 L 370 398.5 Z" fill="#ff99cc" stroke="#000000" stroke-miterlimit="10" pointer-events="none"/><g fill="#000000" font-family="Helvetica" text-anchor="middle" font-size="12px"><text x="463.5" y="395">Relay to all</text><text x="463.5" y="409">m["fileopened"] = True</text></g><rect x="363.5" y="340.5" width="201" height="33" rx="2.31" ry="2.31" fill="#ffffff" stroke="#000000" pointer-events="none"/><g fill="#000000" font-family="Helvetica" text-anchor="middle" font-size="12px"><text x="463.5" y="353.5">write current filepath to </text><text x="463.5" y="367.5">config_wizard.yaml</text></g><path d="M 356.5 306.5 L 568 306.5 L 568 306.5 L 591.5 321.5 L 568 336.5 L 568 336.5 L 356.5 336.5 L 380 321.5 Z" fill="#ff99cc" stroke="#000000" stroke-miterlimit="10" pointer-events="none"/><g fill="#000000" font-family="Helvetica" text-anchor="middle" font-size="12px"><text x="473.5" y="318">Relay to all</text><text x="473.5" y="332">m["readoffset"]</text></g><rect x="363.5" y="418.5" width="201" height="33" rx="2.31" ry="2.31" fill="#ffffff" stroke="#000000" pointer-events="none"/><g fill="#000000" font-family="Helvetica" text-anchor="middle" font-size="12px"><text x="463.5" y="438.5">generate out path for resampler data</text></g><path d="M 458 486.5 L 458 507 L 458 491 L 458 504.63" fill="none" stroke="#000000" stroke-miterlimit="10" pointer-events="none"/><path d="M 458 509.88 L 454.5 502.88 L 458 504.63 L 461.5 502.88 Z" fill="#000000" stroke="#000000" stroke-miterlimit="10" pointer-events="none"/><path d="M 379 456.5 L 521.2 456.5 L 521.2 456.5 L 537 471.5 L 521.2 486.5 L 521.2 486.5 L 379 486.5 L 394.8 471.5 Z" fill="#ffff99" stroke="#000000" stroke-miterlimit="10" pointer-events="none"/><g fill="#000000" font-family="Helvetica" text-anchor="middle" font-size="12px"><text x="457.5" y="468">Relay to all</text><text x="457.5" y="482">updateGUIelements</text></g><path d="M 156 522 L 324 522 L 324 36 L 447 36 L 447 58.63" fill="none" stroke="#000000" stroke-miterlimit="10" pointer-events="none"/><path d="M 447 63.88 L 443.5 56.88 L 447 58.63 L 450.5 56.88 Z" fill="#000000" stroke="#000000" stroke-miterlimit="10" pointer-events="none"/><path d="M 511.5 95 L 532 95 L 511 95 L 524.63 95" fill="none" stroke="#000000" stroke-miterlimit="10" pointer-events="none"/><path d="M 529.88 95 L 522.88 98.5 L 524.63 95 L 522.88 91.5 Z" fill="#000000" stroke="#000000" stroke-miterlimit="10" pointer-events="none"/><path d="M 447.5 65 L 511.5 95 L 447.5 125 L 383.5 95 Z" fill="#ffffff" stroke="#000000" stroke-miterlimit="10" pointer-events="none"/><g fill="#000000" font-family="Helvetica" text-anchor="middle" font-size="12px"><text x="447" y="98.5">wavheader == valid</text></g><path d="M 466.5 119 L 496.5 119 L 496.5 133 L 466.5 133 L 466.5 119 Z" fill="#ffffff" stroke="none" pointer-events="none"/><path d="M 467.75 120.17 L 467.75 131.83 L 467.75 131.83 L 495.25 131.83 L 495.25 120.17 L 467.75 120.17" fill="#ffffff" stroke="none" pointer-events="none"/><path d="M 466.5 119 L 496.5 119 L 496.5 133 L 466.5 133 L 466.5 119 Z" fill="none" stroke="#000000" stroke-miterlimit="10" pointer-events="none"/><g fill="#000000" font-family="Helvetica" text-anchor="middle" font-size="12px"><text x="481" y="129.5">yes</text></g><path d="M 501.5 66 L 531.5 66 L 531.5 80 L 501.5 80 L 501.5 66 Z" fill="#ffffff" stroke="none" pointer-events="none"/><path d="M 502.75 67.17 L 502.75 78.83 L 502.75 78.83 L 530.25 78.83 L 530.25 67.17 L 502.75 67.17" fill="#ffffff" stroke="none" pointer-events="none"/><path d="M 501.5 66 L 531.5 66 L 531.5 80 L 501.5 80 L 501.5 66 Z" fill="none" stroke="#000000" stroke-miterlimit="10" pointer-events="none"/><g fill="#000000" font-family="Helvetica" text-anchor="middle" font-size="12px"><text x="516" y="76.5">no</text></g><path d="M 561.61 65 L 600.39 65 C 617.29 65 631 78.43 631 95 C 631 111.57 617.29 125 600.39 125 L 561.61 125 C 544.71 125 531 111.57 531 95 C 531 78.43 544.71 65 561.61 65 Z" fill="#ffffff" stroke="#000000" stroke-miterlimit="10" pointer-events="none"/><g fill="#000000" font-family="Helvetica" text-anchor="middle" font-size="12px"><text x="580.5" y="91.5">return </text><text x="580.5" y="105.5">False</text></g><path d="M 449.66 126.31 L 448 126 L 448 132.63" fill="none" stroke="#000000" stroke-miterlimit="10" pointer-events="none"/><path d="M 448 137.88 L 444.5 130.88 L 448 132.63 L 451.5 130.88 Z" fill="#000000" stroke="#000000" stroke-miterlimit="10" pointer-events="none"/><path d="M 439.61 510 L 478.39 510 C 495.29 510 509 518.28 509 528.5 C 509 538.72 495.29 547 478.39 547 L 439.61 547 C 422.71 547 409 538.72 409 528.5 C 409 518.28 422.71 510 439.61 510 Z" fill="#ffffff" stroke="#000000" stroke-miterlimit="10" pointer-events="none"/><g fill="#000000" font-family="Helvetica" text-anchor="middle" font-size="12px"><text x="458.5" y="525">return </text><text x="458.5" y="539">True</text></g></g></svg>