<?xml version="1.0" standalone="no"?>
<svg style="background: #fff" xmlns="http://www.w3.org/2000/svg" xmlns:xlink="http://www.w3.org/1999/xlink" version="1.1" width="1077px" height="1677px" viewBox="-0.5 -0.5 1077 1677"><defs><style>* {margin: 0px; padding: 0px;}</style></defs><g><path d="M 0 926 L 435 926 L 435 1389 L 0 1389 L 0 926 Z" fill="#e5ccff" stroke="none" pointer-events="none"/><path d="M 18.13 964.58 L 18.13 1350.42 L 18.13 1350.42 L 416.88 1350.42 L 416.88 964.58 L 18.13 964.58" fill="#e5ccff" stroke="none" pointer-events="none"/><path d="M 0 926 L 435 926 L 435 1389 L 0 1389 L 0 926 Z" fill="none" stroke="#fff4c3" stroke-miterlimit="10" pointer-events="none"/><path d="M 472 961 L 1076 961 L 1076 1676 L 472 1676 L 472 961 Z" fill="#e5ccff" stroke="none" pointer-events="none"/><path d="M 497.17 1020.58 L 497.17 1616.42 L 497.17 1616.42 L 1050.83 1616.42 L 1050.83 1020.58 L 497.17 1020.58" fill="#e5ccff" stroke="none" pointer-events="none"/><path d="M 472 961 L 1076 961 L 1076 1676 L 472 1676 L 472 961 Z" fill="none" stroke="#fff4c3" stroke-miterlimit="10" pointer-events="none"/><path d="M 459 0 L 957 0 L 957 712 L 459 712 L 459 0 Z" fill="#fff4c3" stroke="none" pointer-events="none"/><path d="M 479.75 59.33 L 479.75 652.67 L 479.75 652.67 L 936.25 652.67 L 936.25 59.33 L 479.75 59.33" fill="#fff4c3" stroke="none" pointer-events="none"/><path d="M 459 0 L 957 0 L 957 712 L 459 712 L 459 0 Z" fill="none" stroke="#fff4c3" stroke-miterlimit="10" pointer-events="none"/><path d="M 160 62 L 160 160.76 L 170.59 160.76 L 170.59 253.22" fill="none" stroke="#000000" stroke-miterlimit="10" pointer-events="none"/><path d="M 170.59 258.47 L 167.09 251.47 L 170.59 253.22 L 174.09 251.47 Z" fill="#000000" stroke="#000000" stroke-miterlimit="10" pointer-events="none"/><ellipse cx="160" cy="42" rx="50" ry="20" fill="#ffe599" stroke="#000000" pointer-events="none"/><g fill="#000000" font-family="Helvetica" text-anchor="middle" font-size="12px"><text x="158.91" y="44.91">merge2Gworker</text></g><rect x="53" y="78" width="214" height="95" rx="6.65" ry="6.65" fill="#ffffff" stroke="#000000" pointer-events="none"/><g fill="#000000" font-family="Helvetica" font-size="12px"><text x="54.5" y="93.41">self.stopix = False</text><text x="54.5" y="107.41">get output_file_prefix, MAX_GAP, </text><text x="54.5" y="121.41">input_file_list, basename</text><text x="54.5" y="135.41">current_output_file_index = 1</text><text x="54.5" y="149.41">current_output_file_size = 0</text><text x="54.5" y="163.41">compose current_output_file_path</text></g><rect x="51" y="181" width="218" height="60" rx="4.2" ry="4.2" fill="#ffffff" stroke="#000000" pointer-events="none"/><g fill="#000000" font-family="Helvetica" font-size="12px"><text x="52.5" y="192.91">open(current_output_file_path, 'wb') </text><text x="52.5" y="206.91">as current_output_file</text><text x="52.5" y="220.91">firstpass = True</text><text x="52.5" y="234.91">firstsource = True</text></g><path d="M 164.71 293 L 164.71 313.71 L 164.71 309.69" fill="none" stroke="#000000" stroke-miterlimit="10" pointer-events="none"/><path d="M 164.71 314.94 L 161.21 307.94 L 164.71 309.69 L 168.21 307.94 Z" fill="#000000" stroke="#000000" stroke-miterlimit="10" pointer-events="none"/><rect x="54" y="259" width="222" height="34" rx="2.38" ry="2.38" fill="#ffffff" stroke="#000000" pointer-events="none"/><g fill="#000000" font-family="Helvetica" text-anchor="middle" font-size="12px"><text x="163.91" y="271.91">write first 216 Null-bytes </text><text x="163.91" y="285.91">(for later header insertion)</text></g><path d="M 148.24 391 L 148.24 436.06 L 164.71 436.06 L 164.71 473.63" fill="none" stroke="#000000" stroke-miterlimit="10" pointer-events="none"/><path d="M 164.71 478.88 L 161.21 471.88 L 164.71 473.63 L 168.21 471.88 Z" fill="#000000" stroke="#000000" stroke-miterlimit="10" pointer-events="none"/><path d="M 231 370.18 L 263.53 370.18 L 263.53 369 L 288.63 369" fill="none" stroke="#000000" stroke-miterlimit="10" pointer-events="none"/><path d="M 293.88 369 L 286.88 372.5 L 288.63 369 L 286.88 365.5 Z" fill="#000000" stroke="#000000" stroke-miterlimit="10" pointer-events="none"/><path d="M 148 348 L 231 369.5 L 148 391 L 65 369.5 Z" fill="#ffffff" stroke="#000000" stroke-miterlimit="10" pointer-events="none"/><g fill="#000000" font-family="Helvetica" text-anchor="middle" font-size="12px"><text x="146.91" y="365.41">next inputfile </text><text x="146.91" y="379.41">in inputfilelist ?</text></g><rect x="53" y="419" width="224" height="41" rx="2.87" ry="2.87" fill="#ffffff" stroke="#000000" pointer-events="none"/><g fill="#000000" font-family="Helvetica" font-size="12px"><text x="54.5" y="435.41">         calculate and send progress</text><text x="54.5" y="449.41">         WRITEGAP = False</text></g><path d="M 254.5 510.18 L 274.12 510.18 L 274.63 510.18" fill="none" stroke="#000000" stroke-miterlimit="10" pointer-events="none"/><path d="M 279.88 510.18 L 272.88 513.68 L 274.63 510.18 L 272.88 506.68 Z" fill="#000000" stroke="#000000" stroke-miterlimit="10" pointer-events="none"/><path d="M 163.53 540 L 163.53 561.94 L 158.34 561.94" fill="none" stroke="#000000" stroke-miterlimit="10" pointer-events="none"/><path d="M 163.59 561.94 L 156.59 565.44 L 158.34 561.94 L 156.59 558.44 Z" fill="#000000" stroke="#000000" stroke-miterlimit="10" pointer-events="none"/><path d="M 165 480 L 254.5 510 L 165 540 L 75.5 510 Z" fill="#ffffff" stroke="#000000" stroke-miterlimit="10" pointer-events="none"/><g fill="#000000" font-family="Helvetica" text-anchor="middle" font-size="12px"><text x="163.91" y="512.91">first pass ?</text></g><path d="M 189.41 652 L 189.41 672.53 L 189.41 677.13" fill="none" stroke="#000000" stroke-miterlimit="10" pointer-events="none"/><path d="M 189.41 682.38 L 185.91 675.38 L 189.41 677.13 L 192.91 675.38 Z" fill="#000000" stroke="#000000" stroke-miterlimit="10" pointer-events="none"/><path d="M 279 621.94 L 298.82 621.94 L 298.82 620.76 L 298.82 627.15" fill="none" stroke="#000000" stroke-miterlimit="10" pointer-events="none"/><path d="M 298.82 621.9 L 302.32 628.9 L 298.82 627.15 L 295.32 628.9 Z" fill="#000000" stroke="#000000" stroke-miterlimit="10" pointer-events="none"/><path d="M 189.5 592 L 279 622 L 189.5 652 L 100 622 Z" fill="#ffffff" stroke="#000000" stroke-miterlimit="10" pointer-events="none"/><g fill="#000000" font-family="Helvetica" text-anchor="middle" font-size="12px"><text x="188.41" y="624.91">first source ?</text></g><path d="M 331.76 533.5 L 331.76 560.76 L 220.49 560.76" fill="none" stroke="#000000" stroke-miterlimit="10" pointer-events="none"/><path d="M 215.24 560.76 L 222.24 557.26 L 220.49 560.76 L 222.24 564.26 Z" fill="#000000" stroke="#000000" stroke-miterlimit="10" pointer-events="none"/><rect x="281" y="486.5" width="115" height="47" rx="3.29" ry="3.29" fill="#ffffff" stroke="#000000" pointer-events="none"/><g fill="#000000" font-family="Helvetica" text-anchor="middle" font-size="12px"><text x="337.41" y="505.91">read header into</text><text x="337.41" y="519.91">wavheader</text></g><path d="M 189.1 571.5 L 189.41 591.35 L 189.41 586.16" fill="none" stroke="#000000" stroke-miterlimit="10" pointer-events="none"/><path d="M 189.41 591.41 L 185.91 584.41 L 189.41 586.16 L 192.91 584.41 Z" fill="#000000" stroke="#000000" stroke-miterlimit="10" pointer-events="none"/><path d="M 195 541 L 189 541 L 189 590 L 195 590" fill="none" stroke="#000000" stroke-miterlimit="10" transform="rotate(270,189,565.5)" pointer-events="none"/><path d="M 183 565.5 L 189 565.5" fill="none" stroke="#000000" stroke-miterlimit="10" transform="rotate(270,189,565.5)" pointer-events="none"/><rect x="295" y="583" width="124" height="75" rx="5.25" ry="5.25" fill="#ffffff" stroke="#000000" pointer-events="none"/><g fill="#000000" font-family="Helvetica" font-size="12px"><text x="296.5" y="595.41">read header into</text><text x="296.5" y="609.41">    wavheader</text><text x="296.5" y="623.41">set start/stoptime as </text><text x="296.5" y="637.41">    previous </text><text x="296.5" y="651.41">start/stoptime</text></g><path d="M 189.41 758.5 L 189.41 778.41 L 190.59 778.41 L 190.59 779.63" fill="none" stroke="#000000" stroke-miterlimit="10" pointer-events="none"/><path d="M 190.59 784.88 L 187.09 777.88 L 190.59 779.63 L 194.09 777.88 Z" fill="#000000" stroke="#000000" stroke-miterlimit="10" pointer-events="none"/><rect x="113" y="683.5" width="153" height="75" rx="5.25" ry="5.25" fill="#ffffff" stroke="#000000" pointer-events="none"/><g fill="#000000" font-family="Helvetica" text-anchor="middle" font-size="12px"><text x="188.41" y="695.91">read header into</text><text x="188.41" y="709.91">aux_wavheader</text><text x="188.41" y="723.91">get start/stoptime</text><text x="188.41" y="737.91">calculate gap between start </text><text x="188.41" y="751.91">and previous stop</text></g><path d="M 472 620 L 446 620 L 446 816 L 472 816" fill="none" stroke="#000000" stroke-miterlimit="10" transform="rotate(180,446,718)" pointer-events="none"/><path d="M 420 718 L 446 718" fill="none" stroke="#000000" stroke-miterlimit="10" transform="rotate(180,446,718)" pointer-events="none"/><path d="M 556.47 106.5 L 556.47 126.65 L 556.47 132.04" fill="none" stroke="#000000" stroke-miterlimit="10" pointer-events="none"/><path d="M 556.47 137.29 L 552.97 130.29 L 556.47 132.04 L 559.97 130.29 Z" fill="#000000" stroke="#000000" stroke-miterlimit="10" pointer-events="none"/><rect x="477.5" y="57.5" width="157" height="49" rx="3.43" ry="3.43" fill="#ffffff" stroke="#000000" pointer-events="none"/><g fill="#000000" font-family="Helvetica" text-anchor="middle" font-size="12px"><text x="554.91" y="70.91">open inputfile</text><text x="554.91" y="84.91">fillchunk = </text><text x="554.91" y="98.91">CHUNKSIZE null bytes</text></g><path d="M 570.59 226 L 570.59 246.65 L 570.59 225.47 L 570.59 238.63" fill="none" stroke="#000000" stroke-miterlimit="10" pointer-events="none"/><path d="M 570.59 243.88 L 567.09 236.88 L 570.59 238.63 L 574.09 236.88 Z" fill="#000000" stroke="#000000" stroke-miterlimit="10" pointer-events="none"/><path d="M 620 196 L 663.13 196" fill="none" stroke="#000000" stroke-miterlimit="10" pointer-events="none"/><path d="M 668.38 196 L 661.38 199.5 L 663.13 196 L 661.38 192.5 Z" fill="#000000" stroke="#000000" stroke-miterlimit="10" pointer-events="none"/><path d="M 570 166 L 620 196 L 570 226 L 520 196 Z" fill="#ffffff" stroke="#000000" stroke-miterlimit="10" pointer-events="none"/><g fill="#000000" font-family="Helvetica" text-anchor="middle" font-size="12px"><text x="568.91" y="198.91">self.stopix ?</text></g><rect x="669.5" y="166" width="113" height="60" rx="4.2" ry="4.2" fill="#ffb366" stroke="#000000" pointer-events="none"/><g fill="#000000" font-family="Helvetica" text-anchor="middle" font-size="12px"><text x="724.91" y="191.91">close inputfile</text><text x="724.91" y="205.91">SigFinishedmerge2G</text></g><path d="M 520 274.88 L 481.18 274.88 L 481.18 594.88 L 548.24 594.88 L 548.24 619.1" fill="none" stroke="#000000" stroke-miterlimit="10" pointer-events="none"/><path d="M 548.24 624.35 L 544.74 617.35 L 548.24 619.1 L 551.74 617.35 Z" fill="#000000" stroke="#000000" stroke-miterlimit="10" pointer-events="none"/><path d="M 570.59 305 L 570.59 325.47 L 571.76 325.47 L 571.76 325.63" fill="none" stroke="#000000" stroke-miterlimit="10" pointer-events="none"/><path d="M 571.76 330.88 L 568.26 323.88 L 571.76 325.63 L 575.26 323.88 Z" fill="#000000" stroke="#000000" stroke-miterlimit="10" pointer-events="none"/><path d="M 570 245 L 620 275 L 570 305 L 520 275 Z" fill="#ffffff" stroke="#000000" stroke-miterlimit="10" pointer-events="none"/><g fill="#000000" font-family="Helvetica" text-anchor="middle" font-size="12px"><text x="568.91" y="277.91">WRITEGAP ?</text></g><path d="M 653.5 361.94 L 674.12 361.94 L 674.12 363.12 L 674.12 356.69" fill="none" stroke="#000000" stroke-miterlimit="10" pointer-events="none"/><path d="M 674.12 361.94 L 670.62 354.94 L 674.12 356.69 L 677.62 354.94 Z" fill="#000000" stroke="#000000" stroke-miterlimit="10" pointer-events="none"/><path d="M 571.76 392 L 571.76 432.53 L 571.54 465.63" fill="none" stroke="#000000" stroke-miterlimit="10" pointer-events="none"/><path d="M 571.51 470.88 L 568.05 463.86 L 571.54 465.63 L 575.05 463.91 Z" fill="#000000" stroke="#000000" stroke-miterlimit="10" pointer-events="none"/><path d="M 571.5 332 L 653.5 362 L 571.5 392 L 489.5 362 Z" fill="#ffffff" stroke="#000000" stroke-miterlimit="10" pointer-events="none"/><g fill="#000000" font-family="Helvetica" text-anchor="middle" font-size="12px"><text x="570.41" y="364.91">gap_bytes &gt; chunksize ?</text></g><path d="M 805 363.12 L 821.18 363.12 L 821.18 512.53 L 826.37 512.53" fill="none" stroke="#000000" stroke-miterlimit="10" pointer-events="none"/><path d="M 821.12 512.53 L 828.12 509.03 L 826.37 512.53 L 828.12 516.03 Z" fill="#000000" stroke="#000000" stroke-miterlimit="10" pointer-events="none"/><rect x="664" y="340" width="141" height="47" rx="3.29" ry="3.29" fill="#ffffff" stroke="#000000" pointer-events="none"/><g fill="#000000" font-family="Helvetica" font-size="12px"><text x="665.5" y="352.41">:gap_bytes -= CHUNKSIZE</text><text x="665.5" y="366.41"> data_chunk = fillchunk</text></g><path d="M 571.76 471.5 L 571.76 491.35 L 571.44 487.66" fill="none" stroke="#000000" stroke-miterlimit="10" pointer-events="none"/><path d="M 571.9 492.89 L 567.79 486.22 L 571.44 487.66 L 574.77 485.6 Z" fill="#000000" stroke="#000000" stroke-miterlimit="10" pointer-events="none"/><path d="M 653.5 441.94 L 674.12 441.94 L 667.75 441.96" fill="none" stroke="#000000" stroke-miterlimit="10" pointer-events="none"/><path d="M 673 441.97 L 665.99 445.46 L 667.75 441.96 L 666.01 438.46 Z" fill="#000000" stroke="#000000" stroke-miterlimit="10" pointer-events="none"/><path d="M 571.5 411.5 L 653.5 441.5 L 571.5 471.5 L 489.5 441.5 Z" fill="#ffffff" stroke="#000000" stroke-miterlimit="10" pointer-events="none"/><g fill="#000000" font-family="Helvetica" text-anchor="middle" font-size="12px"><text x="570.41" y="444.41">gap_bytes == chunksize ?</text></g><path d="M 738.82 465 L 738.82 489 L 737.65 489 L 737.65 506.16" fill="none" stroke="#000000" stroke-miterlimit="10" pointer-events="none"/><path d="M 737.65 511.41 L 734.15 504.41 L 737.65 506.16 L 741.15 504.41 Z" fill="#000000" stroke="#000000" stroke-miterlimit="10" pointer-events="none"/><rect x="669.5" y="418" width="138" height="47" rx="3.29" ry="3.29" fill="#ffffff" stroke="#000000" pointer-events="none"/><g fill="#000000" font-family="Helvetica" font-size="12px"><text x="671" y="437.41">data_chunk = fillchunk</text><text x="671" y="451.41">WRITEGAP = False</text></g><path d="M 571.76 525.47 L 571.76 571.35 L 571.76 576.75" fill="none" stroke="#000000" stroke-miterlimit="10" pointer-events="none"/><path d="M 571.76 582 L 568.26 575 L 571.76 576.75 L 575.26 575 Z" fill="#000000" stroke="#000000" stroke-miterlimit="10" pointer-events="none"/><rect x="503" y="491" width="138" height="53" rx="3.71" ry="3.71" fill="#ffffff" stroke="#000000" pointer-events="none"/><g fill="#000000" font-family="Helvetica" font-size="12px"><text x="504.5" y="506.41">WRITEGAP = False</text><text x="504.5" y="520.41">data_chunk = </text><text x="504.5" y="534.41">bytes(0x00 * gap_bytes</text></g><path d="M 631 315 L 659 315 L 659 343 L 631 343 L 631 315 Z" fill="#ffffff" stroke="none" pointer-events="none"/><path d="M 632.17 317.33 L 632.17 340.67 L 632.17 340.67 L 657.83 340.67 L 657.83 317.33 L 632.17 317.33" fill="#ffffff" stroke="none" pointer-events="none"/><path d="M 631 315 L 659 315 L 659 343 L 631 343 L 631 315 Z" fill="none" stroke="#000000" stroke-miterlimit="10" pointer-events="none"/><g fill="#000000" font-family="Helvetica" text-anchor="middle" font-size="12px"><text x="643.91" y="331.91">yes</text></g><path d="M 641 403 L 669 403 L 669 431 L 641 431 L 641 403 Z" fill="#ffffff" stroke="none" pointer-events="none"/><path d="M 642.17 405.33 L 642.17 428.67 L 642.17 428.67 L 667.83 428.67 L 667.83 405.33 L 642.17 405.33" fill="#ffffff" stroke="none" pointer-events="none"/><path d="M 641 403 L 669 403 L 669 431 L 641 431 L 641 403 Z" fill="none" stroke="#000000" stroke-miterlimit="10" pointer-events="none"/><g fill="#000000" font-family="Helvetica" text-anchor="middle" font-size="12px"><text x="653.91" y="419.91">yes</text></g><path d="M 531 302 L 564 302 L 564 330 L 531 330 L 531 302 Z" fill="#ffffff" stroke="none" pointer-events="none"/><path d="M 532.38 304.33 L 532.38 327.67 L 532.38 327.67 L 562.63 327.67 L 562.63 304.33 L 532.38 304.33" fill="#ffffff" stroke="none" pointer-events="none"/><path d="M 531 302 L 564 302 L 564 330 L 531 330 L 531 302 Z" fill="none" stroke="#000000" stroke-miterlimit="10" pointer-events="none"/><g fill="#000000" font-family="Helvetica" text-anchor="middle" font-size="12px"><text x="546.41" y="318.91">yes</text></g><path d="M 492 245 L 519 245 L 519 273 L 492 273 L 492 245 Z" fill="#ffffff" stroke="none" pointer-events="none"/><path d="M 493.13 247.33 L 493.13 270.67 L 493.13 270.67 L 517.88 270.67 L 517.88 247.33 L 493.13 247.33" fill="#ffffff" stroke="none" pointer-events="none"/><path d="M 492 245 L 519 245 L 519 273 L 492 273 L 492 245 Z" fill="none" stroke="#000000" stroke-miterlimit="10" pointer-events="none"/><g fill="#000000" font-family="Helvetica" text-anchor="middle" font-size="12px"><text x="504.41" y="261.91">no</text></g><path d="M 675.29 630.18 L 675.29 658.41 L 674.12 658.41 L 674.12 680.28" fill="none" stroke="#000000" stroke-miterlimit="10" pointer-events="none"/><path d="M 674.12 685.53 L 670.62 678.53 L 674.12 680.28 L 677.62 678.53 Z" fill="#000000" stroke="#000000" stroke-miterlimit="10" pointer-events="none"/><path d="M 700 503 L 675 503 L 675 709 L 700 709" fill="none" stroke="#000000" stroke-miterlimit="10" transform="rotate(270,675,606)" pointer-events="none"/><path d="M 650 606 L 675 606" fill="none" stroke="#000000" stroke-miterlimit="10" transform="rotate(270,675,606)" pointer-events="none"/><path d="M 779.32 543 L 778.9 579.1" fill="none" stroke="#000000" stroke-miterlimit="10" pointer-events="none"/><path d="M 778.84 584.35 L 775.42 577.31 L 778.9 579.1 L 782.42 577.39 Z" fill="#000000" stroke="#000000" stroke-miterlimit="10" pointer-events="none"/><path d="M 795 487 L 779.5 487 L 779.5 568 L 795 568" fill="none" stroke="#000000" stroke-miterlimit="10" transform="rotate(270,779.5,527.5)" pointer-events="none"/><path d="M 764 527.5 L 779.5 527.5" fill="none" stroke="#000000" stroke-miterlimit="10" transform="rotate(270,779.5,527.5)" pointer-events="none"/><path d="M 593 218 L 620 218 L 620 246 L 593 246 L 593 218 Z" fill="#ffffff" stroke="none" pointer-events="none"/><path d="M 594.12 220.33 L 594.12 243.67 L 594.12 243.67 L 618.87 243.67 L 618.87 220.33 L 594.12 220.33" fill="#ffffff" stroke="none" pointer-events="none"/><path d="M 593 218 L 620 218 L 620 246 L 593 246 L 593 218 Z" fill="none" stroke="#000000" stroke-miterlimit="10" pointer-events="none"/><g fill="#000000" font-family="Helvetica" text-anchor="middle" font-size="12px"><text x="605.41" y="234.91">no</text></g><path d="M 625.5 166 L 653.5 166 L 653.5 194 L 625.5 194 L 625.5 166 Z" fill="#ffffff" stroke="none" pointer-events="none"/><path d="M 626.67 168.33 L 626.67 191.67 L 626.67 191.67 L 652.33 191.67 L 652.33 168.33 L 626.67 168.33" fill="#ffffff" stroke="none" pointer-events="none"/><path d="M 625.5 166 L 653.5 166 L 653.5 194 L 625.5 194 L 625.5 166 Z" fill="none" stroke="#000000" stroke-miterlimit="10" pointer-events="none"/><g fill="#000000" font-family="Helvetica" text-anchor="middle" font-size="12px"><text x="638.41" y="182.91">yes</text></g><path d="M 248 473 L 276 473 L 276 501 L 248 501 L 248 473 Z" fill="#ffffff" stroke="none" pointer-events="none"/><path d="M 249.17 475.33 L 249.17 498.67 L 249.17 498.67 L 274.83 498.67 L 274.83 475.33 L 249.17 475.33" fill="#ffffff" stroke="none" pointer-events="none"/><path d="M 248 473 L 276 473 L 276 501 L 248 501 L 248 473 Z" fill="none" stroke="#000000" stroke-miterlimit="10" pointer-events="none"/><g fill="#000000" font-family="Helvetica" text-anchor="middle" font-size="12px"><text x="260.91" y="489.91">yes</text></g><path d="M 254 583 L 282 583 L 282 611 L 254 611 L 254 583 Z" fill="#ffffff" stroke="none" pointer-events="none"/><path d="M 255.17 585.33 L 255.17 608.67 L 255.17 608.67 L 280.83 608.67 L 280.83 585.33 L 255.17 585.33" fill="#ffffff" stroke="none" pointer-events="none"/><path d="M 254 583 L 282 583 L 282 611 L 254 611 L 254 583 Z" fill="none" stroke="#000000" stroke-miterlimit="10" pointer-events="none"/><g fill="#000000" font-family="Helvetica" text-anchor="middle" font-size="12px"><text x="266.91" y="599.91">yes</text></g><path d="M 118.5 541 L 145.5 541 L 145.5 569 L 118.5 569 L 118.5 541 Z" fill="#ffffff" stroke="none" pointer-events="none"/><path d="M 119.63 543.33 L 119.63 566.67 L 119.63 566.67 L 144.38 566.67 L 144.38 543.33 L 119.63 543.33" fill="#ffffff" stroke="none" pointer-events="none"/><path d="M 118.5 541 L 145.5 541 L 145.5 569 L 118.5 569 L 118.5 541 Z" fill="none" stroke="#000000" stroke-miterlimit="10" pointer-events="none"/><g fill="#000000" font-family="Helvetica" text-anchor="middle" font-size="12px"><text x="130.91" y="557.91">no</text></g><path d="M 153 650 L 180 650 L 180 678 L 153 678 L 153 650 Z" fill="#ffffff" stroke="none" pointer-events="none"/><path d="M 154.12 652.33 L 154.12 675.67 L 154.12 675.67 L 178.87 675.67 L 178.87 652.33 L 154.12 652.33" fill="#ffffff" stroke="none" pointer-events="none"/><path d="M 153 650 L 180 650 L 180 678 L 153 678 L 153 650 Z" fill="none" stroke="#000000" stroke-miterlimit="10" pointer-events="none"/><g fill="#000000" font-family="Helvetica" text-anchor="middle" font-size="12px"><text x="165.41" y="666.91">no</text></g><path d="M 182 384 L 210 384 L 210 412 L 182 412 L 182 384 Z" fill="#ffffff" stroke="none" pointer-events="none"/><path d="M 183.17 386.33 L 183.17 409.67 L 183.17 409.67 L 208.83 409.67 L 208.83 386.33 L 183.17 386.33" fill="#ffffff" stroke="none" pointer-events="none"/><path d="M 182 384 L 210 384 L 210 412 L 182 412 L 182 384 Z" fill="none" stroke="#000000" stroke-miterlimit="10" pointer-events="none"/><g fill="#000000" font-family="Helvetica" text-anchor="middle" font-size="12px"><text x="194.91" y="400.91">yes</text></g><rect x="492" y="625" width="106" height="60" rx="4.2" ry="4.2" fill="#ffffff" stroke="#000000" pointer-events="none"/><g fill="#000000" font-family="Helvetica" font-size="12px"><text x="493.5" y="643.91">data_chunk = </text><text x="493.5" y="657.91">input_file.read</text><text x="493.5" y="671.91">(self.CHUNKSIZE) </text></g><path d="M 610.51 712.5 L 610.59 781.94 L 609.41 781.94 L 609.41 844.98" fill="none" stroke="#000000" stroke-miterlimit="10" pointer-events="none"/><path d="M 609.41 850.23 L 605.91 843.23 L 609.41 844.98 L 612.91 843.23 Z" fill="#000000" stroke="#000000" stroke-miterlimit="10" pointer-events="none"/><path d="M 624 637 L 610.5 637 L 610.5 761 L 624 761" fill="none" stroke="#000000" stroke-miterlimit="10" transform="rotate(270,610.5,699)" pointer-events="none"/><path d="M 597 699 L 610.5 699" fill="none" stroke="#000000" stroke-miterlimit="10" transform="rotate(270,610.5,699)" pointer-events="none"/><path d="M 523.5 892.53 L 162.35 892.53 L 162.35 1054.4" fill="none" stroke="#000000" stroke-miterlimit="10" pointer-events="none"/><path d="M 162.35 1059.65 L 158.85 1052.65 L 162.35 1054.4 L 165.85 1052.65 Z" fill="#000000" stroke="#000000" stroke-miterlimit="10" pointer-events="none"/><path d="M 610.59 931.35 L 608.24 931.35 L 608.24 963.13" fill="none" stroke="#000000" stroke-miterlimit="10" pointer-events="none"/><path d="M 608.24 968.38 L 604.74 961.38 L 608.24 963.13 L 611.74 961.38 Z" fill="#000000" stroke="#000000" stroke-miterlimit="10" pointer-events="none"/><path d="M 610.5 851 L 697.5 891.5 L 610.5 932 L 523.5 891.5 Z" fill="#ffffff" stroke="#000000" stroke-miterlimit="10" pointer-events="none"/><g fill="#000000" font-family="Helvetica" text-anchor="middle" font-size="12px"><text x="609.41" y="887.41">no further datachunk ?</text><text x="609.41" y="901.41">(EOF inputfile)</text></g><rect x="70.5" y="949.5" width="212" height="28" rx="1.96" ry="1.96" fill="#ffffff" stroke="#000000" pointer-events="none"/><g fill="#000000" font-family="Helvetica" text-anchor="middle" font-size="12px"><text x="175.41" y="966.41">firstsource = False</text></g><rect x="779.5" y="851" width="232" height="60" rx="4.2" ry="4.2" fill="#ffffff" stroke="#000000" pointer-events="none"/><g fill="#000000" font-family="Helvetica" font-size="12px"><text x="781" y="876.91">write data_chunk and increment counter,</text><text x="781" y="890.91">increment current_output_file_size</text></g><path d="M 895.29 846.65 L 895.29 139.59 L 592.25 139.59" fill="none" stroke="#000000" stroke-miterlimit="10" pointer-events="none"/><path d="M 587 139.59 L 594 136.09 L 592.25 139.59 L 594 143.09 Z" fill="#000000" stroke="#000000" stroke-miterlimit="10" pointer-events="none"/><path d="M 570.51 146 L 570.59 165.47 L 570.59 161.46" fill="none" stroke="#000000" stroke-miterlimit="10" pointer-events="none"/><path d="M 570.59 166.71 L 567.09 159.71 L 570.59 161.46 L 574.09 159.71 Z" fill="#000000" stroke="#000000" stroke-miterlimit="10" pointer-events="none"/><path d="M 574 127 L 570.5 127 L 570.5 158 L 574 158" fill="none" stroke="#000000" stroke-miterlimit="10" transform="rotate(270,570.5,142.5)" pointer-events="none"/><path d="M 567 142.5 L 570.5 142.5" fill="none" stroke="#000000" stroke-miterlimit="10" transform="rotate(270,570.5,142.5)" pointer-events="none"/><path d="M 248 816.06 L 330.59 816.06 L 414.81 816.06" fill="none" stroke="#000000" stroke-miterlimit="10" pointer-events="none"/><path d="M 420.06 816.06 L 413.06 819.56 L 414.81 816.06 L 413.06 812.56 Z" fill="#000000" stroke="#000000" stroke-miterlimit="10" pointer-events="none"/><path d="M 135.29 817.24 L 135.29 816.06 L 111.76 816.06 L 111.76 817.24 L 89.41 817.24 L 89.41 827.34" fill="none" stroke="#000000" stroke-miterlimit="10" pointer-events="none"/><path d="M 89.41 832.59 L 85.91 825.59 L 89.41 827.34 L 92.91 825.59 Z" fill="#000000" stroke="#000000" stroke-miterlimit="10" pointer-events="none"/><path d="M 190 786 L 248 816 L 190 846 L 132 816 Z" fill="#ffffff" stroke="#000000" stroke-miterlimit="10" pointer-events="none"/><g fill="#000000" font-family="Helvetica" text-anchor="middle" font-size="12px"><text x="188.91" y="818.91">gap &gt;MAXGAP ?</text></g><rect x="34" y="835" width="113" height="42" rx="2.94" ry="2.94" fill="#ff9933" stroke="#000000" pointer-events="none"/><g fill="#000000" font-family="Helvetica" text-anchor="middle" font-size="12px"><text x="89.41" y="851.91">close inputfile</text><text x="89.41" y="865.91">SigFinishedmerge2G</text></g><rect x="70.5" y="995.5" width="212" height="28" rx="1.96" ry="1.96" fill="#ffffff" stroke="#000000" pointer-events="none"/><g fill="#000000" font-family="Helvetica" text-anchor="middle" font-size="12px"><text x="175.41" y="1012.41">duration = current dataset length (s)</text></g><path d="M 167.06 1120 L 167.06 1199.59 L 167.06 1215.57" fill="none" stroke="#000000" stroke-miterlimit="10" pointer-events="none"/><path d="M 167.06 1220.82 L 163.56 1213.82 L 167.06 1215.57 L 170.56 1213.82 Z" fill="#000000" stroke="#000000" stroke-miterlimit="10" pointer-events="none"/><path d="M 231.5 1090 L 271.13 1090" fill="none" stroke="#000000" stroke-miterlimit="10" pointer-events="none"/><path d="M 276.38 1090 L 269.38 1093.5 L 271.13 1090 L 269.38 1086.5 Z" fill="#000000" stroke="#000000" stroke-miterlimit="10" pointer-events="none"/><path d="M 166 1060 L 231.5 1090 L 166 1120 L 100.5 1090 Z" fill="#ffcce6" stroke="#000000" stroke-miterlimit="10" pointer-events="none"/><g fill="#000000" font-family="Helvetica" text-anchor="middle" font-size="12px"><text x="164.91" y="1092.91">first pass ?</text></g><path d="M 496.5 860 L 524.5 860 L 524.5 888 L 496.5 888 L 496.5 860 Z" fill="#ffffff" stroke="none" pointer-events="none"/><path d="M 497.67 862.33 L 497.67 885.67 L 497.67 885.67 L 523.33 885.67 L 523.33 862.33 L 497.67 862.33" fill="#ffffff" stroke="none" pointer-events="none"/><path d="M 496.5 860 L 524.5 860 L 524.5 888 L 496.5 888 L 496.5 860 Z" fill="none" stroke="#000000" stroke-miterlimit="10" pointer-events="none"/><g fill="#000000" font-family="Helvetica" text-anchor="middle" font-size="12px"><text x="509.41" y="876.91">yes</text></g><rect x="50.5" y="1141" width="228" height="69" rx="4.83" ry="4.83" fill="#ffcce6" stroke="#000000" pointer-events="none"/><g fill="#000000" font-family="Helvetica" font-size="12px"><text x="52" y="1150.41">firstpass = False</text><text x="52" y="1164.41">stt =self.get_sttime_atrim()</text><text x="52" y="1178.41"># get starttime of first file after start cut</text><text x="52" y="1192.41">wavheader['starttime_dt'] = stt</text></g><path d="M 362.35 1104 L 362.35 1194.88 L 362.35 1214.4" fill="none" stroke="#000000" stroke-miterlimit="10" pointer-events="none"/><path d="M 362.35 1219.65 L 358.85 1212.65 L 362.35 1214.4 L 365.85 1212.65 Z" fill="#000000" stroke="#000000" stroke-miterlimit="10" pointer-events="none"/><rect x="277.5" y="1076" width="169" height="28" rx="1.96" ry="1.96" fill="#ffcce6" stroke="#000000" pointer-events="none"/><g fill="#000000" font-family="Helvetica" text-anchor="middle" font-size="12px"><text x="360.91" y="1092.91">stt = wavheader['starttime_dt']</text></g><path d="M 190 1111 L 218 1111 L 218 1139 L 190 1139 L 190 1111 Z" fill="#ffffff" stroke="none" pointer-events="none"/><path d="M 191.17 1113.33 L 191.17 1136.67 L 191.17 1136.67 L 216.83 1136.67 L 216.83 1113.33 L 191.17 1113.33" fill="#ffffff" stroke="none" pointer-events="none"/><path d="M 190 1111 L 218 1111 L 218 1139 L 190 1139 L 190 1111 Z" fill="none" stroke="#000000" stroke-miterlimit="10" pointer-events="none"/><g fill="#000000" font-family="Helvetica" text-anchor="middle" font-size="12px"><text x="202.91" y="1127.91">yes</text></g><path d="M 265.88 1357 L 265.88 1373.71 L 27.06 1373.71 L 27.06 316.06 L 130.1 316.06" fill="none" stroke="#000000" stroke-miterlimit="10" pointer-events="none"/><path d="M 135.35 316.06 L 128.35 319.56 L 130.1 316.06 L 128.35 312.56 Z" fill="#000000" stroke="#000000" stroke-miterlimit="10" pointer-events="none"/><rect x="194.5" y="1248" width="143" height="109" rx="7.63" ry="7.63" fill="#ffcce6" stroke="#000000" pointer-events="none"/><g fill="#000000" font-family="Helvetica" font-size="12px"><text x="196" y="1263.41">spt = stt + duration</text><text x="196" y="1277.41">calculate several </text><text x="196" y="1291.41">wav-header parameters</text><text x="196" y="1305.41">write wavheader to</text><text x="196" y="1319.41">    output file</text><text x="196" y="1333.41">rename output file </text><text x="196" y="1347.41">    acc name convention</text></g><path d="M 278.5 1135.5 L 265 1135.5 L 265 1330.5 L 278.5 1330.5" fill="none" stroke="#000000" stroke-miterlimit="10" transform="rotate(270,265,1233)" pointer-events="none"/><path d="M 251.5 1233 L 265 1233" fill="none" stroke="#000000" stroke-miterlimit="10" transform="rotate(270,265,1233)" pointer-events="none"/><path d="M 603.53 1071.5 L 603.53 1109 L 601.18 1109 L 601.18 1139.63" fill="none" stroke="#000000" stroke-miterlimit="10" pointer-events="none"/><path d="M 601.18 1144.88 L 597.68 1137.88 L 601.18 1139.63 L 604.68 1137.88 Z" fill="#000000" stroke="#000000" stroke-miterlimit="10" pointer-events="none"/><path d="M 749.5 1021.94 L 868.24 1021.94 L 868.24 953.71 L 873.43 953.71" fill="none" stroke="#000000" stroke-miterlimit="10" pointer-events="none"/><path d="M 868.18 953.71 L 875.18 950.21 L 873.43 953.71 L 875.18 957.21 Z" fill="#000000" stroke="#000000" stroke-miterlimit="10" pointer-events="none"/><path d="M 604 969.5 L 749.5 1020.5 L 604 1071.5 L 458.5 1020.5 Z" fill="#ffffff" stroke="#000000" stroke-miterlimit="10" pointer-events="none"/><g fill="#000000" font-family="Helvetica" text-anchor="middle" font-size="12px"><text x="602.91" y="1016.41">outputfile size </text><text x="602.91" y="1030.41">&gt; MAX_TARGETSIZE - datachunk-length</text></g><rect x="493.5" y="1083.5" width="212" height="44" rx="3.08" ry="3.08" fill="#ffffff" stroke="#000000" pointer-events="none"/><g fill="#000000" font-family="Helvetica" font-size="12px"><text x="495" y="1101.41">close output file</text><text x="495" y="1115.41">duration = current dataset length (s)</text></g><path d="M 601.18 1206 L 601.18 1285.47 L 601.18 1307.82 L 595.98 1307.82" fill="none" stroke="#000000" stroke-miterlimit="10" pointer-events="none"/><path d="M 601.23 1307.82 L 594.23 1311.32 L 595.98 1307.82 L 594.23 1304.32 Z" fill="#000000" stroke="#000000" stroke-miterlimit="10" pointer-events="none"/><path d="M 601 1146 L 666.5 1176 L 601 1206 L 535.5 1176 Z" fill="#ffcce6" stroke="#000000" stroke-miterlimit="10" pointer-events="none"/><g fill="#000000" font-family="Helvetica" text-anchor="middle" font-size="12px"><text x="599.91" y="1178.91">first pass ?</text></g><rect x="485.5" y="1227" width="228" height="69" rx="4.83" ry="4.83" fill="#ffcce6" stroke="#000000" pointer-events="none"/><g fill="#000000" font-family="Helvetica" font-size="12px"><text x="487" y="1236.41">firstpass = False</text><text x="487" y="1250.41">stt =self.get_sttime_atrim()</text><text x="487" y="1264.41"># get starttime of first file after start cut</text><text x="487" y="1278.41">wavheader['starttime_dt'] = stt</text></g><path d="M 797.65 1190 L 797.65 1280.76 L 797.65 1300.28" fill="none" stroke="#000000" stroke-miterlimit="10" pointer-events="none"/><path d="M 797.65 1305.53 L 794.15 1298.53 L 797.65 1300.28 L 801.15 1298.53 Z" fill="#000000" stroke="#000000" stroke-miterlimit="10" pointer-events="none"/><rect x="712.5" y="1162" width="169" height="28" rx="1.96" ry="1.96" fill="#ffcce6" stroke="#000000" pointer-events="none"/><g fill="#000000" font-family="Helvetica" text-anchor="middle" font-size="12px"><text x="795.91" y="1178.91">stt = wavheader['starttime_dt']</text></g><path d="M 625 1197 L 653 1197 L 653 1225 L 625 1225 L 625 1197 Z" fill="#ffffff" stroke="none" pointer-events="none"/><path d="M 626.17 1199.33 L 626.17 1222.67 L 626.17 1222.67 L 651.83 1222.67 L 651.83 1199.33 L 626.17 1199.33" fill="#ffffff" stroke="none" pointer-events="none"/><path d="M 625 1197 L 653 1197 L 653 1225 L 625 1225 L 625 1197 Z" fill="none" stroke="#000000" stroke-miterlimit="10" pointer-events="none"/><g fill="#000000" font-family="Helvetica" text-anchor="middle" font-size="12px"><text x="637.91" y="1213.91">yes</text></g><path d="M 700 1438 L 700 1443.12 L 700 1442.63" fill="none" stroke="#000000" stroke-miterlimit="10" pointer-events="none"/><path d="M 700 1447.88 L 696.5 1440.88 L 700 1442.63 L 703.5 1440.88 Z" fill="#000000" stroke="#000000" stroke-miterlimit="10" pointer-events="none"/><rect x="629.5" y="1329" width="143" height="109" rx="7.63" ry="7.63" fill="#ffcce6" stroke="#000000" pointer-events="none"/><g fill="#000000" font-family="Helvetica" font-size="12px"><text x="631" y="1344.41">spt = stt + duration</text><text x="631" y="1358.41">calculate several </text><text x="631" y="1372.41">wav-header parameters</text><text x="631" y="1386.41">write wavheader to</text><text x="631" y="1400.41">    output file</text><text x="631" y="1414.41">rename output file </text><text x="631" y="1428.41">    acc name convention</text></g><path d="M 713.5 1221.5 L 700 1221.5 L 700 1416.5 L 713.5 1416.5" fill="none" stroke="#000000" stroke-miterlimit="10" transform="rotate(270,700,1319)" pointer-events="none"/><path d="M 686.5 1319 L 700 1319" fill="none" stroke="#000000" stroke-miterlimit="10" transform="rotate(270,700,1319)" pointer-events="none"/><path d="M 699.5 1525 L 699.5 1536.63" fill="none" stroke="#000000" stroke-miterlimit="10" pointer-events="none"/><path d="M 699.5 1541.88 L 696 1534.88 L 699.5 1536.63 L 703 1534.88 Z" fill="#000000" stroke="#000000" stroke-miterlimit="10" pointer-events="none"/><rect x="559" y="1449" width="281" height="76" rx="5.32" ry="5.32" fill="#ffffff" stroke="#000000" pointer-events="none"/><g fill="#000000" font-family="Helvetica" font-size="12px"><text x="560.5" y="1461.91">generate next suffix</text><text x="560.5" y="1475.91">generate next filename</text><text x="560.5" y="1489.91">write next filename to 'nextname' field of wavheader</text><text x="560.5" y="1503.91">write wavheader to output file</text><text x="560.5" y="1517.91">move file to out folder</text></g><path d="M 854 1596.06 L 922.35 1596.06 L 922.35 960.07" fill="none" stroke="#000000" stroke-miterlimit="10" pointer-events="none"/><path d="M 922.35 954.82 L 925.85 961.82 L 922.35 960.07 L 918.85 961.82 Z" fill="#000000" stroke="#000000" stroke-miterlimit="10" pointer-events="none"/><rect x="562" y="1543" width="292" height="93" rx="6.51" ry="6.51" fill="#ffffff" stroke="#000000" pointer-events="none"/><g fill="#000000" font-family="Helvetica" font-size="12px"><text x="563.5" y="1557.41">transfer current stoptime to next wavheader starttime</text><text x="563.5" y="1571.41">reset current filesize</text><text x="563.5" y="1585.41">increment current output file index</text><text x="563.5" y="1599.41">generate next outputfile name</text><text x="563.5" y="1613.41">open next uotput file</text><text x="563.5" y="1627.41">write 216 0-bytes to next file (reserve for header)</text></g><path d="M 895.29 949 L 895.29 940.76 L 895.29 920.07" fill="none" stroke="#000000" stroke-miterlimit="10" pointer-events="none"/><path d="M 895.29 914.82 L 898.79 921.82 L 895.29 920.07 L 891.79 921.82 Z" fill="#000000" stroke="#000000" stroke-miterlimit="10" pointer-events="none"/><path d="M 897 924 L 894.5 924 L 894.5 979 L 897 979" fill="none" stroke="#000000" stroke-miterlimit="10" transform="rotate(90,894.5,951.5)" pointer-events="none"/><path d="M 892 951.5 L 894.5 951.5" fill="none" stroke="#000000" stroke-miterlimit="10" transform="rotate(90,894.5,951.5)" pointer-events="none"/><path d="M 237.5 1062 L 265.5 1062 L 265.5 1082 L 237.5 1082 L 237.5 1062 Z" fill="#ffffff" stroke="none" pointer-events="none"/><path d="M 238.67 1063.67 L 238.67 1080.33 L 238.67 1080.33 L 264.33 1080.33 L 264.33 1063.67 L 238.67 1063.67" fill="#ffffff" stroke="none" pointer-events="none"/><path d="M 237.5 1062 L 265.5 1062 L 265.5 1082 L 237.5 1082 L 237.5 1062 Z" fill="none" stroke="#000000" stroke-miterlimit="10" pointer-events="none"/><g fill="#000000" font-family="Helvetica" text-anchor="middle" font-size="12px"><text x="250.41" y="1074.91">no</text></g><path d="M 669.5 1152 L 691.5 1152 L 691.5 1171 L 669.5 1171 L 669.5 1152 Z" fill="#ffffff" stroke="none" pointer-events="none"/><path d="M 670.42 1153.58 L 670.42 1169.42 L 670.42 1169.42 L 690.58 1169.42 L 690.58 1153.58 L 670.42 1153.58" fill="#ffffff" stroke="none" pointer-events="none"/><path d="M 669.5 1152 L 691.5 1152 L 691.5 1171 L 669.5 1171 L 669.5 1152 Z" fill="none" stroke="#000000" stroke-miterlimit="10" pointer-events="none"/><g fill="#000000" font-family="Helvetica" text-anchor="middle" font-size="12px"><text x="679.41" y="1164.41">no</text></g><path d="M 666.5 1176 L 705.63 1176" fill="none" stroke="#000000" stroke-miterlimit="10" pointer-events="none"/><path d="M 710.88 1176 L 703.88 1179.5 L 705.63 1176 L 703.88 1172.5 Z" fill="#000000" stroke="#000000" stroke-miterlimit="10" pointer-events="none"/><path d="M 149.49 321 L 149.41 340.76 L 149.41 341.46" fill="none" stroke="#000000" stroke-miterlimit="10" pointer-events="none"/><path d="M 149.41 346.71 L 145.91 339.71 L 149.41 341.46 L 152.91 339.71 Z" fill="#000000" stroke="#000000" stroke-miterlimit="10" pointer-events="none"/><path d="M 152 304 L 149.5 304 L 149.5 333 L 152 333" fill="none" stroke="#000000" stroke-miterlimit="10" transform="rotate(270,149.5,318.5)" pointer-events="none"/><path d="M 147 318.5 L 149.5 318.5" fill="none" stroke="#000000" stroke-miterlimit="10" transform="rotate(270,149.5,318.5)" pointer-events="none"/><path d="M 242 333 L 269 333 L 269 361 L 242 361 L 242 333 Z" fill="#ffffff" stroke="none" pointer-events="none"/><path d="M 243.13 335.33 L 243.13 358.67 L 243.13 358.67 L 267.88 358.67 L 267.88 335.33 L 243.13 335.33" fill="#ffffff" stroke="none" pointer-events="none"/><path d="M 242 333 L 269 333 L 269 361 L 242 361 L 242 333 Z" fill="none" stroke="#000000" stroke-miterlimit="10" pointer-events="none"/><g fill="#000000" font-family="Helvetica" text-anchor="middle" font-size="12px"><text x="254.41" y="349.91">no</text></g><path d="M 325.61 339 L 364.39 339 C 381.29 339 395 352.43 395 369 C 395 385.57 381.29 399 364.39 399 L 325.61 399 C 308.71 399 295 385.57 295 369 C 295 352.43 308.71 339 325.61 339 Z" fill="#ff9933" stroke="#000000" stroke-miterlimit="10" pointer-events="none"/><g fill="#000000" font-family="Helvetica" text-anchor="middle" font-size="12px"><text x="343.91" y="364.91">BREAK</text><text x="343.91" y="378.91">emit SigFinished</text></g><path d="M 469.41 717.24 L 469.41 33.71 L 556.47 33.71 L 556.47 51.35 L 557.65 51.35 L 557.65 52.04" fill="none" stroke="#000000" stroke-miterlimit="10" pointer-events="none"/><path d="M 557.65 57.29 L 554.15 50.29 L 557.65 52.04 L 561.15 50.29 Z" fill="#000000" stroke="#000000" stroke-miterlimit="10" pointer-events="none"/><path d="M 713.5 40 L 833.5 40 L 833.5 100 L 713.5 100 L 713.5 40 Z" fill="#ffffcc" stroke="none" pointer-events="none"/><path d="M 718.5 45 L 718.5 95 L 718.5 95 L 828.5 95 L 828.5 45 L 718.5 45" fill="#ffffcc" stroke="none" pointer-events="none"/><path d="M 713.5 40 L 833.5 40 L 833.5 100 L 713.5 100 L 713.5 40 Z" fill="none" stroke="#ffffcc" stroke-miterlimit="10" pointer-events="none"/><g fill="#000000" font-family="Helvetica" text-anchor="middle" font-size="22px"><text x="772.41" y="77.91">Gap Filler</text></g><path d="M 248 788 L 275 788 L 275 816 L 248 816 L 248 788 Z" fill="#ffffff" stroke="none" pointer-events="none"/><path d="M 249.12 790.33 L 249.12 813.67 L 249.12 813.67 L 273.87 813.67 L 273.87 790.33 L 249.12 790.33" fill="#ffffff" stroke="none" pointer-events="none"/><path d="M 248 788 L 275 788 L 275 816 L 248 816 L 248 788 Z" fill="none" stroke="#000000" stroke-miterlimit="10" pointer-events="none"/><g fill="#000000" font-family="Helvetica" text-anchor="middle" font-size="12px"><text x="260.41" y="804.91">no</text></g><path d="M 617 937 L 644 937 L 644 965 L 617 965 L 617 937 Z" fill="#ffffff" stroke="none" pointer-events="none"/><path d="M 618.13 939.33 L 618.13 962.67 L 618.13 962.67 L 642.88 962.67 L 642.88 939.33 L 618.13 939.33" fill="#ffffff" stroke="none" pointer-events="none"/><path d="M 617 937 L 644 937 L 644 965 L 617 965 L 617 937 Z" fill="none" stroke="#000000" stroke-miterlimit="10" pointer-events="none"/><g fill="#000000" font-family="Helvetica" text-anchor="middle" font-size="12px"><text x="629.41" y="953.91">no</text></g><path d="M 104.5 786 L 132.5 786 L 132.5 814 L 104.5 814 L 104.5 786 Z" fill="#ffffff" stroke="none" pointer-events="none"/><path d="M 105.67 788.33 L 105.67 811.67 L 105.67 811.67 L 131.33 811.67 L 131.33 788.33 L 105.67 788.33" fill="#ffffff" stroke="none" pointer-events="none"/><path d="M 104.5 786 L 132.5 786 L 132.5 814 L 104.5 814 L 104.5 786 Z" fill="none" stroke="#000000" stroke-miterlimit="10" pointer-events="none"/><g fill="#000000" font-family="Helvetica" text-anchor="middle" font-size="12px"><text x="117.41" y="802.91">yes</text></g><path d="M 760 990.5 L 787 990.5 L 787 1018.5 L 760 1018.5 L 760 990.5 Z" fill="#ffffff" stroke="none" pointer-events="none"/><path d="M 761.13 992.83 L 761.13 1016.17 L 761.13 1016.17 L 785.88 1016.17 L 785.88 992.83 L 761.13 992.83" fill="#ffffff" stroke="none" pointer-events="none"/><path d="M 760 990.5 L 787 990.5 L 787 1018.5 L 760 1018.5 L 760 990.5 Z" fill="none" stroke="#000000" stroke-miterlimit="10" pointer-events="none"/><g fill="#000000" font-family="Helvetica" text-anchor="middle" font-size="12px"><text x="772.41" y="1007.41">no</text></g><path d="M 644 1048 L 672 1048 L 672 1076 L 644 1076 L 644 1048 Z" fill="#ffffff" stroke="none" pointer-events="none"/><path d="M 645.17 1050.33 L 645.17 1073.67 L 645.17 1073.67 L 670.83 1073.67 L 670.83 1050.33 L 645.17 1050.33" fill="#ffffff" stroke="none" pointer-events="none"/><path d="M 644 1048 L 672 1048 L 672 1076 L 644 1076 L 644 1048 Z" fill="none" stroke="#000000" stroke-miterlimit="10" pointer-events="none"/><g fill="#000000" font-family="Helvetica" text-anchor="middle" font-size="12px"><text x="656.91" y="1064.91">yes</text></g><path d="M 764 1060 L 899 1060 L 899 1120 L 764 1120 L 764 1060 Z" fill="#ffffcc" stroke="none" pointer-events="none"/><path d="M 769.63 1065 L 769.63 1115 L 769.63 1115 L 893.38 1115 L 893.38 1065 L 769.63 1065" fill="#ffffcc" stroke="none" pointer-events="none"/><path d="M 764 1060 L 899 1060 L 899 1120 L 764 1120 L 764 1060 Z" fill="none" stroke="#ffffcc" stroke-miterlimit="10" pointer-events="none"/><g fill="#000000" font-family="Helvetica" text-anchor="middle" font-size="22px"><text x="830.41" y="1084.91">EOF handler</text><text x="830.41" y="1110.91">output file</text></g><path d="M 295 958.5 L 430 958.5 L 430 1018.5 L 295 1018.5 L 295 958.5 Z" fill="#ffffcc" stroke="none" pointer-events="none"/><path d="M 300.63 963.5 L 300.63 1013.5 L 300.63 1013.5 L 424.38 1013.5 L 424.38 963.5 L 300.63 963.5" fill="#ffffcc" stroke="none" pointer-events="none"/><path d="M 295 958.5 L 430 958.5 L 430 1018.5 L 295 1018.5 L 295 958.5 Z" fill="none" stroke="#ffffcc" stroke-miterlimit="10" pointer-events="none"/><g fill="#000000" font-family="Helvetica" text-anchor="middle" font-size="22px"><text x="361.41" y="983.41">EOF handler</text><text x="361.41" y="1009.41">input file</text></g></g></svg>