<?xml version="1.0" standalone="no"?>
<svg style="background: #fff" xmlns="http://www.w3.org/2000/svg" xmlns:xlink="http://www.w3.org/1999/xlink" version="1.1" width="891px" height="1834px" viewBox="-0.5 -0.5 891 1834"><defs><style>* {margin: 0px; padding: 0px;}</style></defs><g><ellipse cx="118" cy="71" rx="50" ry="20" fill="#ffffff" stroke="#000000" pointer-events="none"/><g fill="#000000" font-family="Helvetica" text-anchor="middle" font-size="12px"><text x="117.5" y="74.5">merge2Gworker</text></g><rect x="11" y="108" width="214" height="95" rx="6.65" ry="6.65" fill="#ffffff" stroke="#000000" pointer-events="none"/><g fill="#000000" font-family="Helvetica" font-size="12px"><text x="13.19" y="124">self.stopix = False</text><text x="13.19" y="138">get output_file_prefix, MAX_GAP, </text><text x="13.19" y="152">input_file_list, basename</text><text x="13.19" y="166">current_output_file_index = 1</text><text x="13.19" y="180">current_output_file_size = 0</text><text x="13.19" y="194">compose current_output_file_path</text></g><rect x="9" y="210" width="218" height="60" rx="4.2" ry="4.2" fill="#ffffff" stroke="#000000" pointer-events="none"/><g fill="#000000" font-family="Helvetica" font-size="12px"><text x="11.19" y="222.5">open(current_output_file_path, 'wb') </text><text x="11.19" y="236.5">as current_output_file</text><text x="11.19" y="250.5">firstpass = True</text><text x="11.19" y="264.5">firstsource = True</text></g><path d="M 123.28 314 L 123.28 334.14 L 123.28 331.63" fill="none" stroke="#000000" stroke-miterlimit="10" pointer-events="none"/><path d="M 123.28 336.88 L 119.78 329.88 L 123.28 331.63 L 126.78 329.88 Z" fill="#000000" stroke="#000000" stroke-miterlimit="10" pointer-events="none"/><rect x="12" y="280" width="222" height="34" rx="2.38" ry="2.38" fill="#ffffff" stroke="#000000" pointer-events="none"/><g fill="#000000" font-family="Helvetica" text-anchor="middle" font-size="12px"><text x="122.5" y="293.5">write first 216 Null-bytes </text><text x="122.5" y="307.5">(for later header insertion)</text></g><path d="M 123.28 398 L 123.28 437.59 L 123.28 470.63" fill="none" stroke="#000000" stroke-miterlimit="10" pointer-events="none"/><path d="M 123.28 475.88 L 119.78 468.88 L 123.28 470.63 L 126.78 468.88 Z" fill="#000000" stroke="#000000" stroke-miterlimit="10" pointer-events="none"/><path d="M 123 338 L 206 368 L 123 398 L 40 368 Z" fill="#ffffff" stroke="#000000" stroke-miterlimit="10" pointer-events="none"/><g fill="#000000" font-family="Helvetica" text-anchor="middle" font-size="12px"><text x="122.5" y="371.5">inputfile in inputfilelist ?</text></g><rect x="11" y="416" width="224" height="46" rx="3.22" ry="3.22" fill="#ffffff" stroke="#000000" pointer-events="none"/><g fill="#000000" font-family="Helvetica" font-size="12px"><text x="13.19" y="428.5">         lincrement ist_ix</text><text x="13.19" y="442.5">         calculate and send progress</text><text x="13.19" y="456.5">         WRITEGAP = False</text></g><path d="M 212.5 507.24 L 232.24 507.24 L 232.63 507.24" fill="none" stroke="#000000" stroke-miterlimit="10" pointer-events="none"/><path d="M 237.88 507.24 L 230.88 510.74 L 232.63 507.24 L 230.88 503.74 Z" fill="#000000" stroke="#000000" stroke-miterlimit="10" pointer-events="none"/><path d="M 123 477 L 212.5 507 L 123 537 L 33.5 507 Z" fill="#ffffff" stroke="#000000" stroke-miterlimit="10" pointer-events="none"/><g fill="#000000" font-family="Helvetica" text-anchor="middle" font-size="12px"><text x="122.5" y="510.5">first pass ?</text></g><path d="M 147.41 647 L 147.41 667.24 L 147.41 674.13" fill="none" stroke="#000000" stroke-miterlimit="10" pointer-events="none"/><path d="M 147.41 679.38 L 143.91 672.38 L 147.41 674.13 L 150.91 672.38 Z" fill="#000000" stroke="#000000" stroke-miterlimit="10" pointer-events="none"/><path d="M 237 616.9 L 257.07 616.9 L 257.07 617.59 L 257.07 613.16" fill="none" stroke="#000000" stroke-miterlimit="10" pointer-events="none"/><path d="M 257.07 616.81 L 254.63 611.94 L 257.07 613.16 L 259.5 611.94 Z" fill="#000000" stroke="#000000" stroke-miterlimit="10" pointer-events="none"/><path d="M 147.5 587 L 237 617 L 147.5 647 L 58 617 Z" fill="#ffffff" stroke="#000000" stroke-miterlimit="10" pointer-events="none"/><g fill="#000000" font-family="Helvetica" text-anchor="middle" font-size="12px"><text x="147" y="620.5">first source ?</text></g><path d="M 290.86 530.5 L 290.86 536.9 L 172.93 536.9 L 172.93 535.36" fill="none" stroke="#000000" stroke-miterlimit="10" pointer-events="none"/><path d="M 172.93 540.61 L 169.43 533.61 L 172.93 535.36 L 176.43 533.61 Z" fill="#000000" stroke="#000000" stroke-miterlimit="10" pointer-events="none"/><rect x="239" y="483.5" width="115" height="47" rx="3.29" ry="3.29" fill="#ffffff" stroke="#000000" pointer-events="none"/><g fill="#000000" font-family="Helvetica" text-anchor="middle" font-size="12px"><text x="296" y="503.5">read header into</text><text x="296" y="517.5">wavheader</text></g><path d="M 172.5 538 L 147.5 538 L 147.5 587 L 172.5 587" fill="none" stroke="#000000" stroke-miterlimit="10" transform="rotate(270,147.5,562.5)" pointer-events="none"/><path d="M 122.5 562.5 L 147.5 562.5" fill="none" stroke="#000000" stroke-miterlimit="10" transform="rotate(270,147.5,562.5)" pointer-events="none"/><rect x="253" y="580" width="124" height="75" rx="5.25" ry="5.25" fill="#ffffff" stroke="#000000" pointer-events="none"/><g fill="#000000" font-family="Helvetica" text-anchor="middle" font-size="12px"><text x="314.5" y="600">read header into</text><text x="314.5" y="614">wavheader</text><text x="314.5" y="628">get previous </text><text x="314.5" y="642">start/stoptime</text></g><path d="M 147.41 755.5 L 147.41 775.52 L 147.41 776.13" fill="none" stroke="#000000" stroke-miterlimit="10" pointer-events="none"/><path d="M 147.41 781.38 L 143.91 774.38 L 147.41 776.13 L 150.91 774.38 Z" fill="#000000" stroke="#000000" stroke-miterlimit="10" pointer-events="none"/><rect x="71" y="680.5" width="153" height="75" rx="5.25" ry="5.25" fill="#ffffff" stroke="#000000" pointer-events="none"/><g fill="#000000" font-family="Helvetica" text-anchor="middle" font-size="12px"><text x="147" y="693.5">read header into</text><text x="147" y="707.5">aux_wavheader</text><text x="147" y="721.5">get start/stoptime</text><text x="147" y="735.5">calculate gap between start </text><text x="147" y="749.5">and previous stop</text></g><path d="M 428.1 714.14 L 428.1 667.24 L 426.03 667.24 L 428.1 667.24 L 428.1 7.24 L 528.1 7.24 L 528.1 52.6" fill="none" stroke="#000000" stroke-miterlimit="10" pointer-events="none"/><path d="M 528.1 57.85 L 524.6 50.85 L 528.1 52.6 L 531.6 50.85 Z" fill="#000000" stroke="#000000" stroke-miterlimit="10" pointer-events="none"/><path d="M 430 617 L 404 617 L 404 813 L 430 813" fill="none" stroke="#000000" stroke-miterlimit="10" transform="rotate(180,404,715)" pointer-events="none"/><path d="M 378 715 L 404 715" fill="none" stroke="#000000" stroke-miterlimit="10" transform="rotate(180,404,715)" pointer-events="none"/><path d="M 528.1 75.5 L 528.1 95.52 L 512.93 95.52 L 512.93 102.25" fill="none" stroke="#000000" stroke-miterlimit="10" pointer-events="none"/><path d="M 512.93 107.5 L 509.43 100.5 L 512.93 102.25 L 516.43 100.5 Z" fill="#000000" stroke="#000000" stroke-miterlimit="10" pointer-events="none"/><rect x="449.5" y="26.5" width="157" height="49" rx="3.43" ry="3.43" fill="#ffffff" stroke="#000000" pointer-events="none"/><g fill="#000000" font-family="Helvetica" text-anchor="middle" font-size="12px"><text x="527.5" y="40.5">open inputfile</text><text x="527.5" y="54.5">fillchunk = </text><text x="527.5" y="68.5">CHUNKSIZE null bytes</text></g><path d="M 528.1 195 L 528.1 214.83 L 528.1 194.14 L 528.1 207.63" fill="none" stroke="#000000" stroke-miterlimit="10" pointer-events="none"/><path d="M 528.1 212.88 L 524.6 205.88 L 528.1 207.63 L 531.6 205.88 Z" fill="#000000" stroke="#000000" stroke-miterlimit="10" pointer-events="none"/><path d="M 578 165 L 621.13 165" fill="none" stroke="#000000" stroke-miterlimit="10" pointer-events="none"/><path d="M 626.38 165 L 619.38 168.5 L 621.13 165 L 619.38 161.5 Z" fill="#000000" stroke="#000000" stroke-miterlimit="10" pointer-events="none"/><path d="M 528 135 L 578 165 L 528 195 L 478 165 Z" fill="#ffffff" stroke="#000000" stroke-miterlimit="10" pointer-events="none"/><g fill="#000000" font-family="Helvetica" text-anchor="middle" font-size="12px"><text x="527.5" y="168.5">self.stopix ?</text></g><rect x="627.5" y="135" width="113" height="60" rx="4.2" ry="4.2" fill="#6666ff" stroke="#000000" pointer-events="none"/><g fill="#000000" font-family="Helvetica" text-anchor="middle" font-size="12px"><text x="683.5" y="161.5">close inputfile</text><text x="683.5" y="175.5">SigFinishedmerge2G</text></g><path d="M 478 243.79 L 439.14 243.79 L 439.14 563.79 L 506.72 563.79 L 506.72 588.46" fill="none" stroke="#000000" stroke-miterlimit="10" pointer-events="none"/><path d="M 506.72 593.71 L 503.22 586.71 L 506.72 588.46 L 510.22 586.71 Z" fill="#000000" stroke="#000000" stroke-miterlimit="10" pointer-events="none"/><path d="M 528.1 274 L 528.1 294.14 L 529.48 294.14 L 529.48 294.63" fill="none" stroke="#000000" stroke-miterlimit="10" pointer-events="none"/><path d="M 529.48 299.88 L 525.98 292.88 L 529.48 294.63 L 532.98 292.88 Z" fill="#000000" stroke="#000000" stroke-miterlimit="10" pointer-events="none"/><path d="M 528 214 L 578 244 L 528 274 L 478 244 Z" fill="#ffffff" stroke="#000000" stroke-miterlimit="10" pointer-events="none"/><g fill="#000000" font-family="Helvetica" text-anchor="middle" font-size="12px"><text x="527.5" y="247.5">WRITEGAP ?</text></g><path d="M 611.5 331.38 L 631.55 331.38 L 631.55 332.76 L 631.55 326.43" fill="none" stroke="#000000" stroke-miterlimit="10" pointer-events="none"/><path d="M 631.55 331.68 L 628.05 324.68 L 631.55 326.43 L 635.05 324.68 Z" fill="#000000" stroke="#000000" stroke-miterlimit="10" pointer-events="none"/><path d="M 529.5 361 L 529.5 434.63" fill="none" stroke="#000000" stroke-miterlimit="10" pointer-events="none"/><path d="M 529.5 439.88 L 526 432.88 L 529.5 434.63 L 533 432.88 Z" fill="#000000" stroke="#000000" stroke-miterlimit="10" pointer-events="none"/><path d="M 529.5 301 L 611.5 331 L 529.5 361 L 447.5 331 Z" fill="#ffffff" stroke="#000000" stroke-miterlimit="10" pointer-events="none"/><g fill="#000000" font-family="Helvetica" text-anchor="middle" font-size="12px"><text x="529" y="334.5">gap_bytes &gt; chunksize ?</text></g><path d="M 763 332.76 L 779.14 332.76 L 779.14 481.72 L 736.54 481.72" fill="none" stroke="#000000" stroke-miterlimit="10" pointer-events="none"/><path d="M 731.29 481.72 L 738.29 478.22 L 736.54 481.72 L 738.29 485.22 Z" fill="#000000" stroke="#000000" stroke-miterlimit="10" pointer-events="none"/><rect x="622" y="309" width="141" height="47" rx="3.29" ry="3.29" fill="#ffffff" stroke="#000000" pointer-events="none"/><g fill="#000000" font-family="Helvetica" font-size="12px"><text x="624.19" y="322">:gap_bytes -= CHUNKSIZE</text><text x="624.19" y="336"> data_chunk = fillchunk</text></g><path d="M 529.48 440.5 L 529.48 460.34 L 530.17 460.34 L 530.41 456.65" fill="none" stroke="#000000" stroke-miterlimit="10" pointer-events="none"/><path d="M 530.07 461.88 L 527.03 454.67 L 530.41 456.65 L 534.02 455.13 Z" fill="#000000" stroke="#000000" stroke-miterlimit="10" pointer-events="none"/><path d="M 611.5 410.69 L 631.55 410.69 L 625.18 410.7" fill="none" stroke="#000000" stroke-miterlimit="10" pointer-events="none"/><path d="M 630.43 410.7 L 623.43 414.2 L 625.18 410.7 L 623.44 407.2 Z" fill="#000000" stroke="#000000" stroke-miterlimit="10" pointer-events="none"/><path d="M 529.5 380.5 L 611.5 410.5 L 529.5 440.5 L 447.5 410.5 Z" fill="#ffffff" stroke="#000000" stroke-miterlimit="10" pointer-events="none"/><g fill="#000000" font-family="Helvetica" text-anchor="middle" font-size="12px"><text x="529" y="414">gap_bytes == chunksize ?</text></g><path d="M 696.38 434 L 696.38 457.59 L 681.9 457.59 L 681.9 475.36" fill="none" stroke="#000000" stroke-miterlimit="10" pointer-events="none"/><path d="M 681.9 480.61 L 678.4 473.61 L 681.9 475.36 L 685.4 473.61 Z" fill="#000000" stroke="#000000" stroke-miterlimit="10" pointer-events="none"/><rect x="627.5" y="387" width="138" height="47" rx="3.29" ry="3.29" fill="#ffffff" stroke="#000000" pointer-events="none"/><g fill="#000000" font-family="Helvetica" font-size="12px"><text x="629.69" y="407">data_chunk = fillchunk</text><text x="629.69" y="421">WRITEGAP = False</text></g><path d="M 530.17 513 L 530.17 532.76 L 529.48 532.76 L 529.48 550.53" fill="none" stroke="#000000" stroke-miterlimit="10" pointer-events="none"/><path d="M 529.48 555.78 L 525.98 548.78 L 529.48 550.53 L 532.98 548.78 Z" fill="#000000" stroke="#000000" stroke-miterlimit="10" pointer-events="none"/><rect x="461" y="460" width="138" height="53" rx="3.71" ry="3.71" fill="#ffffff" stroke="#000000" pointer-events="none"/><g fill="#000000" font-family="Helvetica" font-size="12px"><text x="463.19" y="476">WRITEGAP = False</text><text x="463.19" y="490">data_chunk = </text><text x="463.19" y="504">bytes(0x00 * gap_bytes</text></g><path d="M 589 284 L 617 284 L 617 312 L 589 312 L 589 284 Z" fill="#ffffff" stroke="none" pointer-events="none"/><path d="M 590.17 286.33 L 590.17 309.67 L 590.17 309.67 L 615.83 309.67 L 615.83 286.33 L 590.17 286.33" fill="#ffffff" stroke="none" pointer-events="none"/><path d="M 589 284 L 617 284 L 617 312 L 589 312 L 589 284 Z" fill="none" stroke="#000000" stroke-miterlimit="10" pointer-events="none"/><g fill="#000000" font-family="Helvetica" text-anchor="middle" font-size="12px"><text x="602.5" y="301.5">yes</text></g><path d="M 599 372 L 627 372 L 627 400 L 599 400 L 599 372 Z" fill="#ffffff" stroke="none" pointer-events="none"/><path d="M 600.17 374.33 L 600.17 397.67 L 600.17 397.67 L 625.83 397.67 L 625.83 374.33 L 600.17 374.33" fill="#ffffff" stroke="none" pointer-events="none"/><path d="M 599 372 L 627 372 L 627 400 L 599 400 L 599 372 Z" fill="none" stroke="#000000" stroke-miterlimit="10" pointer-events="none"/><g fill="#000000" font-family="Helvetica" text-anchor="middle" font-size="12px"><text x="612.5" y="389.5">yes</text></g><path d="M 489 271 L 522 271 L 522 299 L 489 299 L 489 271 Z" fill="#ffffff" stroke="none" pointer-events="none"/><path d="M 490.37 273.33 L 490.37 296.67 L 490.37 296.67 L 520.62 296.67 L 520.62 273.33 L 490.37 273.33" fill="#ffffff" stroke="none" pointer-events="none"/><path d="M 489 271 L 522 271 L 522 299 L 489 299 L 489 271 Z" fill="none" stroke="#000000" stroke-miterlimit="10" pointer-events="none"/><g fill="#000000" font-family="Helvetica" text-anchor="middle" font-size="12px"><text x="505" y="288.5">yes</text></g><path d="M 450 214 L 477 214 L 477 242 L 450 242 L 450 214 Z" fill="#ffffff" stroke="none" pointer-events="none"/><path d="M 451.13 216.33 L 451.13 239.67 L 451.13 239.67 L 475.88 239.67 L 475.88 216.33 L 451.13 216.33" fill="#ffffff" stroke="none" pointer-events="none"/><path d="M 450 214 L 477 214 L 477 242 L 450 242 L 450 214 Z" fill="none" stroke="#000000" stroke-miterlimit="10" pointer-events="none"/><g fill="#000000" font-family="Helvetica" text-anchor="middle" font-size="12px"><text x="463" y="231.5">no</text></g><path d="M 617.76 598.28 L 617.76 649.15" fill="none" stroke="#000000" stroke-miterlimit="10" pointer-events="none"/><path d="M 617.76 654.4 L 614.26 647.4 L 617.76 649.15 L 621.26 647.4 Z" fill="#000000" stroke="#000000" stroke-miterlimit="10" pointer-events="none"/><path d="M 643 487 L 618 487 L 618 662 L 643 662" fill="none" stroke="#000000" stroke-miterlimit="10" transform="rotate(270,618,574.5)" pointer-events="none"/><path d="M 593 574.5 L 618 574.5" fill="none" stroke="#000000" stroke-miterlimit="10" transform="rotate(270,618,574.5)" pointer-events="none"/><path d="M 706.6 512 L 706.72 532.07 L 706.72 547.77" fill="none" stroke="#000000" stroke-miterlimit="10" pointer-events="none"/><path d="M 706.72 553.02 L 703.22 546.02 L 706.72 547.77 L 710.22 546.02 Z" fill="#000000" stroke="#000000" stroke-miterlimit="10" pointer-events="none"/><path d="M 722 473 L 706.5 473 L 706.5 520 L 722 520" fill="none" stroke="#000000" stroke-miterlimit="10" transform="rotate(270,706.5,496.5)" pointer-events="none"/><path d="M 691 496.5 L 706.5 496.5" fill="none" stroke="#000000" stroke-miterlimit="10" transform="rotate(270,706.5,496.5)" pointer-events="none"/><path d="M 551 187 L 578 187 L 578 215 L 551 215 L 551 187 Z" fill="#ffffff" stroke="none" pointer-events="none"/><path d="M 552.13 189.33 L 552.13 212.67 L 552.13 212.67 L 576.88 212.67 L 576.88 189.33 L 552.13 189.33" fill="#ffffff" stroke="none" pointer-events="none"/><path d="M 551 187 L 578 187 L 578 215 L 551 215 L 551 187 Z" fill="none" stroke="#000000" stroke-miterlimit="10" pointer-events="none"/><g fill="#000000" font-family="Helvetica" text-anchor="middle" font-size="12px"><text x="564" y="204.5">no</text></g><path d="M 583.5 135 L 611.5 135 L 611.5 163 L 583.5 163 L 583.5 135 Z" fill="#ffffff" stroke="none" pointer-events="none"/><path d="M 584.67 137.33 L 584.67 160.67 L 584.67 160.67 L 610.33 160.67 L 610.33 137.33 L 584.67 137.33" fill="#ffffff" stroke="none" pointer-events="none"/><path d="M 583.5 135 L 611.5 135 L 611.5 163 L 583.5 163 L 583.5 135 Z" fill="none" stroke="#000000" stroke-miterlimit="10" pointer-events="none"/><g fill="#000000" font-family="Helvetica" text-anchor="middle" font-size="12px"><text x="597" y="152.5">yes</text></g><path d="M 206 470 L 234 470 L 234 498 L 206 498 L 206 470 Z" fill="#ffffff" stroke="none" pointer-events="none"/><path d="M 207.17 472.33 L 207.17 495.67 L 207.17 495.67 L 232.83 495.67 L 232.83 472.33 L 207.17 472.33" fill="#ffffff" stroke="none" pointer-events="none"/><path d="M 206 470 L 234 470 L 234 498 L 206 498 L 206 470 Z" fill="none" stroke="#000000" stroke-miterlimit="10" pointer-events="none"/><g fill="#000000" font-family="Helvetica" text-anchor="middle" font-size="12px"><text x="219.5" y="487.5">yes</text></g><path d="M 213 572 L 241 572 L 241 600 L 213 600 L 213 572 Z" fill="#ffffff" stroke="none" pointer-events="none"/><path d="M 214.17 574.33 L 214.17 597.67 L 214.17 597.67 L 239.83 597.67 L 239.83 574.33 L 214.17 574.33" fill="#ffffff" stroke="none" pointer-events="none"/><path d="M 213 572 L 241 572 L 241 600 L 213 600 L 213 572 Z" fill="none" stroke="#000000" stroke-miterlimit="10" pointer-events="none"/><g fill="#000000" font-family="Helvetica" text-anchor="middle" font-size="12px"><text x="226.5" y="589.5">yes</text></g><path d="M 84 543 L 111 543 L 111 571 L 84 571 L 84 543 Z" fill="#ffffff" stroke="none" pointer-events="none"/><path d="M 85.12 545.33 L 85.12 568.67 L 85.12 568.67 L 109.87 568.67 L 109.87 545.33 L 85.12 545.33" fill="#ffffff" stroke="none" pointer-events="none"/><path d="M 84 543 L 111 543 L 111 571 L 84 571 L 84 543 Z" fill="none" stroke="#000000" stroke-miterlimit="10" pointer-events="none"/><g fill="#000000" font-family="Helvetica" text-anchor="middle" font-size="12px"><text x="97" y="560.5">no</text></g><path d="M 111 647 L 138 647 L 138 675 L 111 675 L 111 647 Z" fill="#ffffff" stroke="none" pointer-events="none"/><path d="M 112.13 649.33 L 112.13 672.67 L 112.13 672.67 L 136.88 672.67 L 136.88 649.33 L 112.13 649.33" fill="#ffffff" stroke="none" pointer-events="none"/><path d="M 111 647 L 138 647 L 138 675 L 111 675 L 111 647 Z" fill="none" stroke="#000000" stroke-miterlimit="10" pointer-events="none"/><g fill="#000000" font-family="Helvetica" text-anchor="middle" font-size="12px"><text x="124" y="664.5">no</text></g><path d="M 140 381 L 168 381 L 168 409 L 140 409 L 140 381 Z" fill="#ffffff" stroke="none" pointer-events="none"/><path d="M 141.17 383.33 L 141.17 406.67 L 141.17 406.67 L 166.83 406.67 L 166.83 383.33 L 141.17 383.33" fill="#ffffff" stroke="none" pointer-events="none"/><path d="M 140 381 L 168 381 L 168 409 L 140 409 L 140 381 Z" fill="none" stroke="#000000" stroke-miterlimit="10" pointer-events="none"/><g fill="#000000" font-family="Helvetica" text-anchor="middle" font-size="12px"><text x="153.5" y="398.5">yes</text></g><rect x="450" y="594" width="106" height="60" rx="4.2" ry="4.2" fill="#ffffff" stroke="#000000" pointer-events="none"/><g fill="#000000" font-family="Helvetica" font-size="12px"><text x="452.19" y="613.5">data_chunk = </text><text x="452.19" y="627.5">input_file.read</text><text x="452.19" y="641.5">(self.CHUNKSIZE) </text></g><path d="M 561.49 681.5 L 561.21 934.14 L 154.31 934.14 L 154.31 949.15" fill="none" stroke="#000000" stroke-miterlimit="10" pointer-events="none"/><path d="M 154.31 954.4 L 150.81 947.4 L 154.31 949.15 L 157.81 947.4 Z" fill="#000000" stroke="#000000" stroke-miterlimit="10" pointer-events="none"/><path d="M 575 613 L 561.5 613 L 561.5 723 L 575 723" fill="none" stroke="#000000" stroke-miterlimit="10" transform="rotate(270,561.5,668)" pointer-events="none"/><path d="M 548 668 L 561.5 668" fill="none" stroke="#000000" stroke-miterlimit="10" transform="rotate(270,561.5,668)" pointer-events="none"/><path d="M 155 1037 L 155 1070 L 156.38 1070 L 156.38 1096.63" fill="none" stroke="#000000" stroke-miterlimit="10" pointer-events="none"/><path d="M 156.38 1101.88 L 152.88 1094.88 L 156.38 1096.63 L 159.88 1094.88 Z" fill="#000000" stroke="#000000" stroke-miterlimit="10" pointer-events="none"/><path d="M 155 956 L 242 996.5 L 155 1037 L 68 996.5 Z" fill="#ffffff" stroke="#000000" stroke-miterlimit="10" pointer-events="none"/><g fill="#000000" font-family="Helvetica" text-anchor="middle" font-size="12px"><text x="154.5" y="993">no further datachunk ?</text><text x="154.5" y="1007">(EOF inputfile)</text></g><rect x="60" y="1052.5" width="212" height="28" rx="1.96" ry="1.96" fill="#ffffff" stroke="#000000" pointer-events="none"/><g fill="#000000" font-family="Helvetica" text-anchor="middle" font-size="12px"><text x="165.5" y="1070">firstsource = False</text></g><rect x="632.5" y="1772.5" width="232" height="60" rx="4.2" ry="4.2" fill="#ffffff" stroke="#000000" pointer-events="none"/><g fill="#000000" font-family="Helvetica" text-anchor="middle" font-size="12px"><text x="748" y="1799">write data_chunk and increment counter,</text><text x="748" y="1813">increment current_output_file_size</text></g><path d="M 863.97 1798.97 L 881.21 1798.97 L 881.21 107.93 L 550.33 107.93" fill="none" stroke="#000000" stroke-miterlimit="10" pointer-events="none"/><path d="M 545.08 107.93 L 552.08 104.43 L 550.33 107.93 L 552.08 111.43 Z" fill="#000000" stroke="#000000" stroke-miterlimit="10" pointer-events="none"/><path d="M 541 107 L 527.5 107 L 527.5 138 L 541 138" fill="none" stroke="#000000" stroke-miterlimit="10" transform="rotate(270,527.5,122.5)" pointer-events="none"/><path d="M 514 122.5 L 527.5 122.5" fill="none" stroke="#000000" stroke-miterlimit="10" transform="rotate(270,527.5,122.5)" pointer-events="none"/><path d="M 146.72 842.41 L 150.86 842.41 L 147.41 843.1 L 147.41 858.8" fill="none" stroke="#000000" stroke-miterlimit="10" pointer-events="none"/><path d="M 147.41 864.05 L 143.91 857.05 L 147.41 858.8 L 150.91 857.05 Z" fill="#000000" stroke="#000000" stroke-miterlimit="10" pointer-events="none"/><path d="M 197.5 812.76 L 288.1 812.76 L 372.77 812.76" fill="none" stroke="#000000" stroke-miterlimit="10" pointer-events="none"/><path d="M 378.02 812.76 L 371.02 816.26 L 372.77 812.76 L 371.02 809.26 Z" fill="#000000" stroke="#000000" stroke-miterlimit="10" pointer-events="none"/><path d="M 147.5 782.5 L 197.5 812.5 L 147.5 842.5 L 97.5 812.5 Z" fill="#ffffff" stroke="#000000" stroke-miterlimit="10" pointer-events="none"/><g fill="#000000" font-family="Helvetica" text-anchor="middle" font-size="12px"><text x="147" y="816">gap &gt;MAXGAP ?</text></g><rect x="92" y="866" width="113" height="42" rx="2.94" ry="2.94" fill="#9999ff" stroke="#000000" pointer-events="none"/><g fill="#000000" font-family="Helvetica" text-anchor="middle" font-size="12px"><text x="148" y="883.5">close inputfile</text><text x="148" y="897.5">SigFinishedmerge2G</text></g><path d="M 156.38 1163 L 156.38 1192.76 L 155.69 1192.76 L 155.69 1216.63" fill="none" stroke="#000000" stroke-miterlimit="10" pointer-events="none"/><path d="M 155.69 1221.88 L 152.19 1214.88 L 155.69 1216.63 L 159.19 1214.88 Z" fill="#000000" stroke="#000000" stroke-miterlimit="10" pointer-events="none"/><path d="M 106 1132.76 L 6.72 1132.76 L 6.72 1723.79 L 97.63 1723.79" fill="none" stroke="#000000" stroke-miterlimit="10" pointer-events="none"/><path d="M 102.88 1723.79 L 95.88 1727.29 L 97.63 1723.79 L 95.88 1720.29 Z" fill="#000000" stroke="#000000" stroke-miterlimit="10" pointer-events="none"/><path d="M 156 1103 L 206 1133 L 156 1163 L 106 1133 Z" fill="#ffffff" stroke="#000000" stroke-miterlimit="10" pointer-events="none"/><g fill="#000000" font-family="Helvetica" text-anchor="middle" font-size="12px"><text x="155.5" y="1136.5">end of list ?</text></g><rect x="60" y="1181.5" width="212" height="28" rx="1.96" ry="1.96" fill="#ffffff" stroke="#000000" pointer-events="none"/><g fill="#000000" font-family="Helvetica" text-anchor="middle" font-size="12px"><text x="165.5" y="1199">duration = current dataset length (s)</text></g><path d="M 155.69 1283 L 155.69 1363.1 L 156.18 1378.81" fill="none" stroke="#000000" stroke-miterlimit="10" pointer-events="none"/><path d="M 156.34 1384.05 L 152.63 1377.17 L 156.18 1378.81 L 159.62 1376.95 Z" fill="#000000" stroke="#000000" stroke-miterlimit="10" pointer-events="none"/><path d="M 221 1252.76 L 243.97 1252.76 L 260.63 1252.76" fill="none" stroke="#000000" stroke-miterlimit="10" pointer-events="none"/><path d="M 265.88 1252.76 L 258.88 1256.26 L 260.63 1252.76 L 258.88 1249.26 Z" fill="#000000" stroke="#000000" stroke-miterlimit="10" pointer-events="none"/><path d="M 155.5 1223 L 221 1253 L 155.5 1283 L 90 1253 Z" fill="#ffcce6" stroke="#000000" stroke-miterlimit="10" pointer-events="none"/><g fill="#000000" font-family="Helvetica" text-anchor="middle" font-size="12px"><text x="155" y="1256.5">first pass ?</text></g><path d="M 185 1021 L 213 1021 L 213 1049 L 185 1049 L 185 1021 Z" fill="#ffffff" stroke="none" pointer-events="none"/><path d="M 186.17 1023.33 L 186.17 1046.67 L 186.17 1046.67 L 211.83 1046.67 L 211.83 1023.33 L 186.17 1023.33" fill="#ffffff" stroke="none" pointer-events="none"/><path d="M 185 1021 L 213 1021 L 213 1049 L 185 1049 L 185 1021 Z" fill="none" stroke="#000000" stroke-miterlimit="10" pointer-events="none"/><g fill="#000000" font-family="Helvetica" text-anchor="middle" font-size="12px"><text x="198.5" y="1038.5">yes</text></g><path d="M 64 1105 L 92 1105 L 92 1133 L 64 1133 L 64 1105 Z" fill="#ffffff" stroke="none" pointer-events="none"/><path d="M 65.17 1107.33 L 65.17 1130.67 L 65.17 1130.67 L 90.83 1130.67 L 90.83 1107.33 L 65.17 1107.33" fill="#ffffff" stroke="none" pointer-events="none"/><path d="M 64 1105 L 92 1105 L 92 1133 L 64 1133 L 64 1105 Z" fill="none" stroke="#000000" stroke-miterlimit="10" pointer-events="none"/><g fill="#000000" font-family="Helvetica" text-anchor="middle" font-size="12px"><text x="77.5" y="1122.5">yes</text></g><rect x="40" y="1304" width="228" height="69" rx="4.83" ry="4.83" fill="#ffcce6" stroke="#000000" pointer-events="none"/><g fill="#000000" font-family="Helvetica" font-size="12px"><text x="42.19" y="1314">firstpass = False</text><text x="42.19" y="1328">stt =self.get_sttime_atrim()</text><text x="42.19" y="1342"># get starttime of first file after start cut</text><text x="42.19" y="1356">wavheader['starttime_dt'] = stt</text></g><path d="M 351.55 1267 L 351.55 1358.28 L 351.55 1377.43" fill="none" stroke="#000000" stroke-miterlimit="10" pointer-events="none"/><path d="M 351.55 1382.68 L 348.05 1375.68 L 351.55 1377.43 L 355.05 1375.68 Z" fill="#000000" stroke="#000000" stroke-miterlimit="10" pointer-events="none"/><rect x="267" y="1239" width="169" height="28" rx="1.96" ry="1.96" fill="#ffcce6" stroke="#000000" pointer-events="none"/><g fill="#000000" font-family="Helvetica" text-anchor="middle" font-size="12px"><text x="351" y="1256.5">stt = wavheader['starttime_dt']</text></g><path d="M 179.5 1274 L 207.5 1274 L 207.5 1302 L 179.5 1302 L 179.5 1274 Z" fill="#ffffff" stroke="none" pointer-events="none"/><path d="M 180.67 1276.33 L 180.67 1299.67 L 180.67 1299.67 L 206.33 1299.67 L 206.33 1276.33 L 180.67 1276.33" fill="#ffffff" stroke="none" pointer-events="none"/><path d="M 179.5 1274 L 207.5 1274 L 207.5 1302 L 179.5 1302 L 179.5 1274 Z" fill="none" stroke="#000000" stroke-miterlimit="10" pointer-events="none"/><g fill="#000000" font-family="Helvetica" text-anchor="middle" font-size="12px"><text x="193" y="1291.5">yes</text></g><path d="M 327 1465.17 L 410.17 1465.17 L 410.17 1001.72 L 557.07 1001.72 L 557.07 1011.91" fill="none" stroke="#000000" stroke-miterlimit="10" pointer-events="none"/><path d="M 557.07 1017.16 L 553.57 1010.16 L 557.07 1011.91 L 560.57 1010.16 Z" fill="#000000" stroke="#000000" stroke-miterlimit="10" pointer-events="none"/><rect x="184" y="1411" width="143" height="109" rx="7.63" ry="7.63" fill="#ffcce6" stroke="#000000" pointer-events="none"/><g fill="#000000" font-family="Helvetica" font-size="12px"><text x="186.19" y="1427">spt = stt + duration</text><text x="186.19" y="1441">calculate several </text><text x="186.19" y="1455">wav-header parameters</text><text x="186.19" y="1469">write wavheader to</text><text x="186.19" y="1483">    output file</text><text x="186.19" y="1497">rename output file </text><text x="186.19" y="1511">    acc name convention</text></g><path d="M 268 1298.5 L 254.5 1298.5 L 254.5 1493.5 L 268 1493.5" fill="none" stroke="#000000" stroke-miterlimit="10" transform="rotate(270,254.5,1396)" pointer-events="none"/><path d="M 241 1396 L 254.5 1396" fill="none" stroke="#000000" stroke-miterlimit="10" transform="rotate(270,254.5,1396)" pointer-events="none"/><path d="M 559 1122.5 L 559 1187.63" fill="none" stroke="#000000" stroke-miterlimit="10" pointer-events="none"/><path d="M 559 1192.88 L 555.5 1185.88 L 559 1187.63 L 562.5 1185.88 Z" fill="#000000" stroke="#000000" stroke-miterlimit="10" pointer-events="none"/><path d="M 704.5 1071.38 L 850.17 1071.38 L 850.17 1738.28 L 850.23 1738.84" fill="none" stroke="#000000" stroke-miterlimit="10" pointer-events="none"/><path d="M 850.75 1744.06 L 846.57 1737.44 L 850.23 1738.84 L 853.54 1736.75 Z" fill="#000000" stroke="#000000" stroke-miterlimit="10" pointer-events="none"/><path d="M 559 1020.5 L 704.5 1071.5 L 559 1122.5 L 413.5 1071.5 Z" fill="#ffffff" stroke="#000000" stroke-miterlimit="10" pointer-events="none"/><g fill="#000000" font-family="Helvetica" text-anchor="middle" font-size="12px"><text x="558.5" y="1068">outputfile size </text><text x="558.5" y="1082">&gt; MAX_TSRGETSIZE - datachunk-length</text></g><rect x="451.5" y="1131.5" width="212" height="44" rx="3.08" ry="3.08" fill="#ffffff" stroke="#000000" pointer-events="none"/><g fill="#000000" font-family="Helvetica" font-size="12px"><text x="453.69" y="1150">close output file</text><text x="453.69" y="1164">duration = current dataset length (s)</text></g><path d="M 559.14 1254 L 559.14 1334.14 L 559.63 1349.84" fill="none" stroke="#000000" stroke-miterlimit="10" pointer-events="none"/><path d="M 559.79 1355.09 L 556.08 1348.2 L 559.63 1349.84 L 563.07 1347.98 Z" fill="#000000" stroke="#000000" stroke-miterlimit="10" pointer-events="none"/><path d="M 559 1194 L 624.5 1224 L 559 1254 L 493.5 1224 Z" fill="#ffcce6" stroke="#000000" stroke-miterlimit="10" pointer-events="none"/><g fill="#000000" font-family="Helvetica" text-anchor="middle" font-size="12px"><text x="558.5" y="1227.5">first pass ?</text></g><rect x="443.5" y="1275" width="228" height="69" rx="4.83" ry="4.83" fill="#ffcce6" stroke="#000000" pointer-events="none"/><g fill="#000000" font-family="Helvetica" font-size="12px"><text x="445.69" y="1285">firstpass = False</text><text x="445.69" y="1299">stt =self.get_sttime_atrim()</text><text x="445.69" y="1313"># get starttime of first file after start cut</text><text x="445.69" y="1327">wavheader['starttime_dt'] = stt</text></g><path d="M 755 1238 L 755 1329.31 L 755 1348.46" fill="none" stroke="#000000" stroke-miterlimit="10" pointer-events="none"/><path d="M 755 1353.71 L 751.5 1346.71 L 755 1348.46 L 758.5 1346.71 Z" fill="#000000" stroke="#000000" stroke-miterlimit="10" pointer-events="none"/><rect x="670.5" y="1210" width="169" height="28" rx="1.96" ry="1.96" fill="#ffcce6" stroke="#000000" pointer-events="none"/><g fill="#000000" font-family="Helvetica" text-anchor="middle" font-size="12px"><text x="754.5" y="1227.5">stt = wavheader['starttime_dt']</text></g><path d="M 583 1245 L 611 1245 L 611 1273 L 583 1273 L 583 1245 Z" fill="#ffffff" stroke="none" pointer-events="none"/><path d="M 584.17 1247.33 L 584.17 1270.67 L 584.17 1270.67 L 609.83 1270.67 L 609.83 1247.33 L 584.17 1247.33" fill="#ffffff" stroke="none" pointer-events="none"/><path d="M 583 1245 L 611 1245 L 611 1273 L 583 1273 L 583 1245 Z" fill="none" stroke="#000000" stroke-miterlimit="10" pointer-events="none"/><g fill="#000000" font-family="Helvetica" text-anchor="middle" font-size="12px"><text x="596.5" y="1262.5">yes</text></g><path d="M 657.76 1486 L 657.76 1490.69 L 657.76 1490.63" fill="none" stroke="#000000" stroke-miterlimit="10" pointer-events="none"/><path d="M 657.76 1495.88 L 654.26 1488.88 L 657.76 1490.63 L 661.26 1488.88 Z" fill="#000000" stroke="#000000" stroke-miterlimit="10" pointer-events="none"/><rect x="587.5" y="1377" width="143" height="109" rx="7.63" ry="7.63" fill="#ffcce6" stroke="#000000" pointer-events="none"/><g fill="#000000" font-family="Helvetica" font-size="12px"><text x="589.69" y="1393">spt = stt + duration</text><text x="589.69" y="1407">calculate several </text><text x="589.69" y="1421">wav-header parameters</text><text x="589.69" y="1435">write wavheader to</text><text x="589.69" y="1449">    output file</text><text x="589.69" y="1463">rename output file </text><text x="589.69" y="1477">    acc name convention</text></g><path d="M 671.5 1269.5 L 658 1269.5 L 658 1464.5 L 671.5 1464.5" fill="none" stroke="#000000" stroke-miterlimit="10" transform="rotate(270,658,1367)" pointer-events="none"/><path d="M 644.5 1367 L 658 1367" fill="none" stroke="#000000" stroke-miterlimit="10" transform="rotate(270,658,1367)" pointer-events="none"/><path d="M 134.61 1693 L 173.39 1693 C 190.29 1693 204 1706.43 204 1723 C 204 1739.57 190.29 1753 173.39 1753 L 134.61 1753 C 117.71 1753 104 1739.57 104 1723 C 104 1706.43 117.71 1693 134.61 1693 Z" fill="#ff9933" stroke="#000000" stroke-miterlimit="10" pointer-events="none"/><g fill="#000000" font-family="Helvetica" text-anchor="middle" font-size="12px"><text x="153.5" y="1719.5">BREAK</text><text x="153.5" y="1733.5">emit SigFinished</text></g><path d="M 659.14 1609 L 659.14 1618.97 L 659.14 1612.63" fill="none" stroke="#000000" stroke-miterlimit="10" pointer-events="none"/><path d="M 659.14 1617.88 L 655.64 1610.88 L 659.14 1612.63 L 662.64 1610.88 Z" fill="#000000" stroke="#000000" stroke-miterlimit="10" pointer-events="none"/><rect x="517" y="1497" width="281" height="112" rx="7.84" ry="7.84" fill="#ffffff" stroke="#000000" pointer-events="none"/><g fill="#000000" font-family="Helvetica" font-size="12px"><text x="519.19" y="1521.5">generate next suffix</text><text x="519.19" y="1535.5">generate next filename</text><text x="519.19" y="1549.5">write next filename to 'nextname' field of wavheader</text><text x="519.19" y="1563.5">write wavheader to output file</text><text x="519.19" y="1591.5">move file to out folder</text></g><path d="M 659.14 1724 L 659.14 1743.79 L 659.14 1740.87" fill="none" stroke="#000000" stroke-miterlimit="10" pointer-events="none"/><path d="M 659.14 1746.12 L 655.64 1739.12 L 659.14 1740.87 L 662.64 1739.12 Z" fill="#000000" stroke="#000000" stroke-miterlimit="10" pointer-events="none"/><rect x="520" y="1619" width="278" height="105" rx="7.35" ry="7.35" fill="#ffffff" stroke="#000000" pointer-events="none"/><g fill="#000000" font-family="Helvetica" font-size="12px"><text x="522.19" y="1640">transfer current stoptime to next wavheader starttime</text><text x="522.19" y="1654">reset current filesize</text><text x="522.19" y="1668">increment current output file index</text><text x="522.19" y="1682">generate next outputfile name</text><text x="522.19" y="1696">open next uotput file</text><text x="522.19" y="1710">write 216 0-bytes to next file (reserve for header)</text></g><path d="M 770 1663 L 756.5 1663 L 756.5 1854 L 770 1854" fill="none" stroke="#000000" stroke-miterlimit="10" transform="rotate(270,756.5,1758.5)" pointer-events="none"/><path d="M 743 1758.5 L 756.5 1758.5" fill="none" stroke="#000000" stroke-miterlimit="10" transform="rotate(270,756.5,1758.5)" pointer-events="none"/><path d="M 172.5 1153.5 L 200.5 1153.5 L 200.5 1181.5 L 172.5 1181.5 L 172.5 1153.5 Z" fill="#ffffff" stroke="none" pointer-events="none"/><path d="M 173.67 1155.83 L 173.67 1179.17 L 173.67 1179.17 L 199.33 1179.17 L 199.33 1155.83 L 173.67 1155.83" fill="#ffffff" stroke="none" pointer-events="none"/><path d="M 172.5 1153.5 L 200.5 1153.5 L 200.5 1181.5 L 172.5 1181.5 L 172.5 1153.5 Z" fill="none" stroke="#000000" stroke-miterlimit="10" pointer-events="none"/><g fill="#000000" font-family="Helvetica" text-anchor="middle" font-size="12px"><text x="186" y="1171">no</text></g><path d="M 227 1225 L 255 1225 L 255 1245 L 227 1245 L 227 1225 Z" fill="#ffffff" stroke="none" pointer-events="none"/><path d="M 228.17 1226.67 L 228.17 1243.33 L 228.17 1243.33 L 253.83 1243.33 L 253.83 1226.67 L 228.17 1226.67" fill="#ffffff" stroke="none" pointer-events="none"/><path d="M 227 1225 L 255 1225 L 255 1245 L 227 1245 L 227 1225 Z" fill="none" stroke="#000000" stroke-miterlimit="10" pointer-events="none"/><g fill="#000000" font-family="Helvetica" text-anchor="middle" font-size="12px"><text x="240.5" y="1238.5">no</text></g><path d="M 627.5 1200 L 649.5 1200 L 649.5 1219 L 627.5 1219 L 627.5 1200 Z" fill="#ffffff" stroke="none" pointer-events="none"/><path d="M 628.42 1201.58 L 628.42 1217.42 L 628.42 1217.42 L 648.58 1217.42 L 648.58 1201.58 L 628.42 1201.58" fill="#ffffff" stroke="none" pointer-events="none"/><path d="M 627.5 1200 L 649.5 1200 L 649.5 1219 L 627.5 1219 L 627.5 1200 Z" fill="none" stroke="#000000" stroke-miterlimit="10" pointer-events="none"/><g fill="#000000" font-family="Helvetica" text-anchor="middle" font-size="12px"><text x="638" y="1213">no</text></g><path d="M 624.5 1224 L 663.63 1224" fill="none" stroke="#000000" stroke-miterlimit="10" pointer-events="none"/><path d="M 668.88 1224 L 661.88 1227.5 L 663.63 1224 L 661.88 1220.5 Z" fill="#000000" stroke="#000000" stroke-miterlimit="10" pointer-events="none"/></g></svg>